{"glyphs":{"0":{"ha":833,"x_min":0,"x_max":0,"o":"m 417 -17 b 744 485 638 -17 744 153 b 417 986 744 817 638 986 b 89 485 196 986 89 817 b 417 -17 89 153 196 -17 z m 417 56 b 176 419 253 56 176 193 l 176 550 b 417 914 176 776 253 914 b 657 550 581 914 657 776 l 657 419 b 417 56 657 193 581 56 z "},"1":{"ha":833,"x_min":0,"x_max":0,"o":"m 758 0 l 758 74 l 492 74 l 492 969 l 364 969 l 88 724 l 135 671 l 401 908 l 408 908 l 408 74 l 125 74 l 125 0 z "},"2":{"ha":833,"x_min":0,"x_max":0,"o":"m 733 74 l 201 74 l 500 357 b 693 710 617 465 693 569 b 407 986 693 875 590 986 b 106 764 231 986 142 882 l 181 736 b 404 911 211 839 275 911 b 604 717 538 911 604 831 l 604 690 b 450 410 604 593 540 497 l 111 85 l 111 0 l 733 0 z "},"3":{"ha":833,"x_min":0,"x_max":0,"o":"m 257 544 l 257 472 l 379 472 b 604 276 522 472 604 397 l 604 254 b 379 58 604 133 519 58 b 136 189 258 58 190 106 l 74 142 b 381 -17 135 51 225 -17 b 693 263 569 -17 693 94 b 485 508 693 408 599 489 l 485 514 b 674 743 592 539 674 613 b 393 986 674 896 554 986 b 113 829 243 986 157 913 l 175 785 b 392 911 215 863 279 911 b 585 740 504 911 585 849 l 585 722 b 372 544 585 618 506 544 z "},"4":{"ha":833,"x_min":0,"x_max":0,"o":"m 619 0 l 619 203 l 769 203 l 769 272 l 619 272 l 619 969 l 500 969 l 58 276 l 58 203 l 540 203 l 540 0 z m 536 899 l 540 899 l 540 272 l 136 272 z "},"5":{"ha":833,"x_min":0,"x_max":0,"o":"m 682 969 l 181 969 l 146 443 l 218 432 b 415 521 265 486 314 521 b 635 301 557 521 635 436 l 635 278 b 411 58 635 143 554 58 b 174 189 290 58 228 106 l 111 142 b 411 -17 171 51 260 -17 b 722 296 604 -17 722 108 b 438 592 722 481 608 592 b 226 489 335 592 275 557 l 218 490 l 249 896 l 682 896 z "},"6":{"ha":833,"x_min":0,"x_max":0,"o":"m 418 -17 b 728 297 606 -17 728 110 b 439 593 728 479 611 593 b 197 451 322 593 244 538 l 192 453 b 572 969 239 681 358 822 l 463 969 b 104 339 285 856 104 638 b 418 -17 104 126 213 -17 z m 417 56 b 190 279 275 56 190 143 l 190 301 b 417 522 190 436 274 522 b 642 301 558 522 642 436 l 642 278 b 417 56 642 143 557 56 z "},"7":{"ha":833,"x_min":0,"x_max":0,"o":"m 339 0 l 724 896 l 724 969 l 100 969 l 100 697 l 175 697 l 175 897 l 639 897 l 250 0 z "},"8":{"ha":833,"x_min":0,"x_max":0,"o":"m 417 -17 b 746 258 628 -17 746 99 b 542 504 746 393 665 476 l 542 514 b 714 743 647 543 714 626 b 417 986 714 890 603 986 b 119 743 231 986 119 890 b 292 514 119 626 186 543 l 292 504 b 88 258 168 476 88 393 b 417 -17 88 99 206 -17 z m 417 56 b 176 249 267 56 176 131 l 176 281 b 417 474 176 400 267 474 b 657 281 567 474 657 400 l 657 249 b 417 56 657 131 567 56 z m 417 544 b 206 717 283 544 206 608 l 206 742 b 417 914 206 849 283 914 b 628 742 550 914 628 849 l 628 717 b 417 544 628 608 550 544 z "},"9":{"ha":833,"x_min":0,"x_max":0,"o":"m 729 631 b 417 986 729 843 621 986 b 106 672 228 986 106 860 b 394 376 106 490 224 376 b 636 518 511 376 589 432 l 642 517 b 263 0 594 289 476 147 l 371 0 b 729 631 549 114 729 332 z m 418 447 b 192 668 275 447 192 533 l 192 692 b 418 914 192 826 276 914 b 643 690 558 914 643 826 l 643 668 b 418 447 643 533 560 447 z "},"a":{"ha":732,"x_min":0,"x_max":0,"o":"m 699 0 l 699 69 l 603 69 l 603 490 b 344 728 603 640 510 728 b 97 585 215 728 136 667 l 147 543 b 342 658 186 617 247 658 b 524 482 463 658 524 599 l 524 399 l 360 399 b 71 193 154 399 71 319 b 306 -17 71 61 157 -17 b 521 113 417 -17 489 33 l 528 113 l 528 88 b 618 0 532 35 557 0 z m 317 51 b 154 178 219 51 154 96 l 154 211 b 357 339 154 290 215 339 l 524 339 l 524 207 b 317 51 524 111 432 51 z "},"b":{"ha":797,"x_min":0,"x_max":0,"o":"m 129 0 l 208 0 l 208 114 l 213 114 b 429 -17 251 35 321 -17 b 722 356 611 -17 722 121 b 429 728 722 590 611 728 b 213 597 321 728 247 676 l 208 597 l 208 1028 l 129 1028 z m 411 54 b 208 217 301 54 208 117 l 208 499 b 411 657 208 592 301 657 b 638 406 553 657 638 558 l 638 306 b 411 54 638 153 553 54 z "},"c":{"ha":689,"x_min":0,"x_max":0,"o":"m 379 -17 b 642 139 510 -17 596 44 l 583 178 b 379 54 543 99 476 54 b 157 306 235 54 157 156 l 157 406 b 379 657 157 556 235 657 b 565 538 472 657 532 614 l 632 571 b 379 728 590 664 510 728 b 72 356 185 728 72 590 b 379 -17 72 121 185 -17 z "},"d":{"ha":797,"x_min":0,"x_max":0,"o":"m 589 0 l 668 0 l 668 1028 l 589 1028 l 589 597 l 585 597 b 368 728 550 676 476 728 b 75 356 186 728 75 590 b 368 -17 75 121 186 -17 b 585 114 476 -17 547 35 l 589 114 z m 386 54 b 160 306 244 54 160 153 l 160 406 b 386 657 160 558 244 657 b 589 499 496 657 589 592 l 589 217 b 386 54 589 117 496 54 z "},"e":{"ha":754,"x_min":0,"x_max":0,"o":"m 383 -17 b 661 157 518 -17 617 53 l 603 196 b 388 53 564 103 489 53 b 156 306 242 53 156 157 l 156 340 l 682 340 l 682 378 b 382 728 682 586 564 728 b 72 356 193 728 72 589 b 383 -17 72 122 193 -17 z m 382 661 b 596 413 510 661 596 563 l 596 401 l 156 401 l 156 408 b 382 661 156 558 244 661 z "},"f":{"ha":429,"x_min":0,"x_max":0,"o":"m 163 0 l 242 0 l 242 642 l 399 642 l 399 711 l 242 711 l 242 958 l 399 958 l 399 1028 l 274 1028 b 163 910 199 1028 163 982 l 163 711 l 40 711 l 40 642 l 163 642 z "},"g":{"ha":735,"x_min":0,"x_max":0,"o":"m 713 -83 b 468 96 713 28 639 96 l 303 96 b 189 160 225 96 189 118 b 294 251 189 207 233 235 b 368 243 318 247 343 243 b 628 486 525 243 628 342 b 553 663 628 558 600 619 l 553 731 l 697 731 l 697 800 l 575 800 b 510 728 529 800 510 771 l 510 693 b 367 728 471 715 422 728 b 108 486 210 728 108 629 b 240 269 108 383 158 307 l 240 264 b 119 142 172 246 119 211 b 186 44 119 94 142 63 l 186 33 b 64 -117 110 11 64 -36 b 371 -294 64 -228 154 -294 b 713 -83 593 -294 713 -228 z m 636 -89 b 413 -229 636 -185 550 -229 l 324 -229 b 139 -100 200 -229 139 -174 b 238 22 139 -39 176 1 l 468 22 b 636 -89 594 22 636 -21 z m 368 307 b 193 464 260 307 193 364 l 193 508 b 368 664 193 606 258 664 b 543 508 476 664 543 606 l 543 464 b 368 307 543 364 476 307 z "},"h":{"ha":782,"x_min":0,"x_max":0,"o":"m 129 0 l 208 0 l 208 500 b 401 657 208 606 301 657 b 583 443 519 657 583 588 l 583 0 l 663 0 l 663 457 b 422 728 663 631 574 728 b 213 599 308 728 244 672 l 208 599 l 208 1028 l 129 1028 z "},"i":{"ha":338,"x_min":0,"x_max":0,"o":"m 168 904 b 222 954 206 904 222 925 l 222 968 b 168 1018 222 997 206 1018 b 114 968 131 1018 114 997 l 114 954 b 168 904 114 925 131 904 z m 129 0 l 208 0 l 208 711 l 129 711 z "},"j":{"ha":338,"x_min":0,"x_max":0,"o":"m 129 -208 l 11 -208 l 11 -278 l 97 -278 b 208 -160 174 -278 208 -232 l 208 711 l 129 711 z m 168 904 b 222 954 206 904 222 925 l 222 968 b 168 1018 222 997 206 1018 b 114 968 131 1018 114 997 l 114 954 b 168 904 114 925 131 904 z "},"k":{"ha":713,"x_min":0,"x_max":0,"o":"m 129 0 l 208 0 l 208 258 l 321 372 l 590 0 l 688 0 l 378 422 l 657 711 l 560 711 l 324 467 l 213 349 l 208 349 l 208 1028 l 129 1028 z "},"l":{"ha":367,"x_min":0,"x_max":0,"o":"m 318 0 l 318 69 l 208 69 l 208 1028 l 129 1028 l 129 86 b 217 0 129 35 160 0 z "},"m":{"ha":1217,"x_min":0,"x_max":0,"o":"m 208 0 l 208 500 b 396 657 208 606 299 657 b 574 443 513 657 574 588 l 574 0 l 653 0 l 653 499 b 839 657 653 604 740 657 b 1018 443 958 657 1018 586 l 1018 0 l 1097 0 l 1097 457 b 861 728 1097 631 1013 728 b 638 578 735 728 664 661 l 633 578 b 414 728 599 681 515 728 b 213 599 297 728 242 668 l 208 599 l 208 711 l 129 711 l 129 0 z "},"n":{"ha":782,"x_min":0,"x_max":0,"o":"m 208 0 l 208 500 b 401 657 208 606 301 657 b 583 443 519 657 583 588 l 583 0 l 663 0 l 663 457 b 422 728 663 631 574 728 b 213 599 308 728 244 672 l 208 599 l 208 711 l 129 711 l 129 0 z "},"o":{"ha":764,"x_min":0,"x_max":0,"o":"m 382 -17 b 692 356 569 -17 692 122 b 382 728 692 589 569 728 b 72 356 194 728 72 589 b 382 -17 72 122 194 -17 z m 382 54 b 157 311 244 54 157 146 l 157 400 b 382 657 157 567 244 657 b 607 400 519 657 607 565 l 607 311 b 382 54 607 144 519 54 z "},"p":{"ha":797,"x_min":0,"x_max":0,"o":"m 129 -278 l 208 -278 l 208 114 l 213 114 b 429 -17 251 35 321 -17 b 722 356 611 -17 722 121 b 429 728 722 590 611 728 b 213 597 321 728 247 676 l 208 597 l 208 711 l 129 711 z m 411 54 b 208 217 301 54 208 117 l 208 499 b 411 657 208 592 301 657 b 638 406 553 657 638 558 l 638 306 b 411 54 638 153 553 54 z "},"q":{"ha":797,"x_min":0,"x_max":0,"o":"m 589 -278 l 668 -278 l 668 711 l 589 711 l 589 597 l 585 597 b 368 728 550 676 476 728 b 75 356 186 728 75 590 b 368 -17 75 121 186 -17 b 585 114 476 -17 547 35 l 589 114 z m 386 54 b 160 306 244 54 160 153 l 160 406 b 386 657 160 558 244 657 b 589 499 496 657 589 592 l 589 217 b 386 54 589 117 496 54 z "},"r":{"ha":496,"x_min":0,"x_max":0,"o":"m 208 0 l 208 486 b 411 633 208 578 293 633 l 474 633 l 474 711 l 426 711 b 214 583 304 711 242 650 l 208 583 l 208 711 l 129 711 l 129 0 z "},"s":{"ha":663,"x_min":0,"x_max":0,"o":"m 331 -17 b 583 194 488 -17 583 63 b 371 393 583 308 515 371 l 314 401 b 161 532 213 418 161 450 b 322 660 161 613 221 660 b 517 569 421 660 479 614 l 569 618 b 326 728 517 682 444 728 b 85 528 189 728 85 661 b 303 329 85 400 174 349 l 361 319 b 507 186 464 304 507 261 b 336 51 507 100 444 51 b 115 165 242 51 174 89 l 57 119 b 331 -17 121 32 207 -17 z "},"t":{"ha":465,"x_min":0,"x_max":0,"o":"m 393 0 l 393 69 l 243 69 l 243 642 l 404 642 l 404 711 l 243 711 l 243 910 l 171 910 l 171 765 b 121 711 171 725 160 711 l 40 711 l 40 642 l 164 642 l 164 88 b 251 0 164 35 194 0 z "},"u":{"ha":782,"x_min":0,"x_max":0,"o":"m 574 0 l 653 0 l 653 711 l 574 711 l 574 213 b 382 54 574 106 481 54 b 199 269 264 54 199 124 l 199 711 l 119 711 l 119 254 b 361 -17 119 81 210 -17 b 568 113 483 -17 542 46 l 574 113 z "},"v":{"ha":661,"x_min":0,"x_max":0,"o":"m 286 0 l 376 0 l 633 711 l 553 711 l 336 85 l 331 85 l 113 711 l 29 711 z "},"w":{"ha":1044,"x_min":0,"x_max":0,"o":"m 246 0 l 342 0 l 519 599 l 522 599 l 701 0 l 799 0 l 999 711 l 922 711 l 753 71 l 750 71 l 560 711 l 486 711 l 297 71 l 294 71 l 124 711 l 46 711 z "},"x":{"ha":685,"x_min":0,"x_max":0,"o":"m 36 0 l 125 0 l 343 300 l 346 300 l 556 0 l 649 0 l 389 364 l 642 711 l 553 711 l 346 421 l 342 421 l 139 711 l 46 711 l 300 358 z "},"y":{"ha":665,"x_min":0,"x_max":0,"o":"m 338 85 l 332 85 l 114 711 l 31 711 l 294 -21 l 226 -208 l 107 -208 l 107 -278 l 188 -278 b 306 -200 260 -278 283 -260 l 635 711 l 554 711 z "},"z":{"ha":619,"x_min":0,"x_max":0,"o":"m 579 0 l 579 69 l 132 69 l 568 649 l 568 711 l 56 711 l 56 642 l 474 642 l 43 68 l 43 0 z "},"A":{"ha":868,"x_min":0,"x_max":0,"o":"m 832 0 l 488 969 l 381 969 l 38 0 l 121 0 l 226 301 l 639 301 l 744 0 z m 617 374 l 247 374 l 429 890 l 435 890 z "},"B":{"ha":886,"x_min":0,"x_max":0,"o":"m 138 0 l 551 0 b 797 274 700 0 797 114 b 611 508 797 425 701 497 l 611 514 b 760 725 683 531 760 590 b 517 969 760 878 668 969 l 138 969 z m 221 468 l 529 468 b 708 297 646 468 708 397 l 708 246 b 529 74 708 144 646 74 l 221 74 z m 221 896 l 508 896 b 671 744 614 896 671 833 l 671 692 b 508 540 671 604 614 540 l 221 540 z "},"C":{"ha":857,"x_min":0,"x_max":0,"o":"m 465 -17 b 793 200 622 -17 736 68 l 725 240 b 465 58 683 129 594 58 b 176 426 285 58 176 189 l 176 536 b 465 911 176 775 285 911 b 718 739 588 911 675 844 l 786 779 b 465 986 728 907 619 986 b 88 482 226 986 88 808 b 465 -17 88 154 226 -17 z "},"D":{"ha":925,"x_min":0,"x_max":0,"o":"m 138 0 l 446 0 b 838 485 694 0 838 163 b 446 969 838 807 694 969 l 138 969 z m 221 74 l 221 896 l 447 896 b 749 549 638 896 749 764 l 749 421 b 447 74 749 206 638 74 z "},"E":{"ha":797,"x_min":0,"x_max":0,"o":"m 704 0 l 704 74 l 221 74 l 221 456 l 681 456 l 681 529 l 221 529 l 221 896 l 704 896 l 704 969 l 138 969 l 138 0 z "},"F":{"ha":764,"x_min":0,"x_max":0,"o":"m 221 0 l 221 456 l 660 456 l 660 529 l 221 529 l 221 896 l 692 896 l 692 969 l 138 969 l 138 0 z "},"G":{"ha":950,"x_min":0,"x_max":0,"o":"m 768 0 l 846 0 l 846 483 l 538 483 l 538 411 l 764 411 l 764 294 b 492 58 764 136 639 58 b 176 426 296 58 176 194 l 176 544 b 485 911 176 775 297 911 b 756 739 613 911 708 846 l 824 779 b 485 986 765 903 650 986 b 88 485 239 986 88 811 b 479 -17 88 157 240 -17 b 764 149 629 -17 729 50 l 768 149 z "},"H":{"ha":974,"x_min":0,"x_max":0,"o":"m 753 0 l 836 0 l 836 969 l 753 969 l 753 529 l 221 529 l 221 969 l 138 969 l 138 0 l 221 0 l 221 456 l 753 456 z "},"I":{"ha":542,"x_min":0,"x_max":0,"o":"m 454 0 l 454 69 l 313 69 l 313 900 l 454 900 l 454 969 l 88 969 l 88 900 l 229 900 l 229 69 l 88 69 l 88 0 z "},"J":{"ha":685,"x_min":0,"x_max":0,"o":"m 135 969 l 135 896 l 471 896 l 471 265 b 294 57 471 129 410 57 b 110 204 192 57 132 119 l 36 186 b 292 -17 61 65 156 -17 b 554 253 450 -17 554 82 l 554 969 z "},"K":{"ha":847,"x_min":0,"x_max":0,"o":"m 715 0 l 818 0 l 435 557 l 800 969 l 699 969 l 379 603 l 224 424 l 221 424 l 221 969 l 138 969 l 138 0 l 221 0 l 221 326 l 378 500 z "},"L":{"ha":682,"x_min":0,"x_max":0,"o":"m 649 0 l 649 74 l 221 74 l 221 969 l 138 969 l 138 0 z "},"M":{"ha":1117,"x_min":0,"x_max":0,"o":"m 138 0 l 218 0 l 218 863 l 224 863 l 558 269 l 893 863 l 899 863 l 899 0 l 979 0 l 979 969 l 869 969 l 563 424 l 558 424 l 251 969 l 138 969 z "},"N":{"ha":974,"x_min":0,"x_max":0,"o":"m 732 0 l 836 0 l 836 969 l 756 969 l 756 114 l 751 114 l 242 969 l 138 969 l 138 0 l 218 0 l 218 856 l 222 856 z "},"O":{"ha":968,"x_min":0,"x_max":0,"o":"m 485 -17 b 881 485 731 -17 881 157 b 485 986 881 813 731 986 b 88 485 238 986 88 813 b 485 -17 88 157 238 -17 z m 485 58 b 176 424 299 58 176 193 l 176 546 b 485 911 176 776 299 911 b 792 546 669 911 792 776 l 792 424 b 485 58 792 193 669 58 z "},"P":{"ha":835,"x_min":0,"x_max":0,"o":"m 221 0 l 221 426 l 518 426 b 778 699 686 426 778 532 b 518 969 778 864 686 969 l 138 969 l 138 0 z m 221 896 l 518 896 b 689 732 629 896 689 826 l 689 665 b 518 500 689 569 629 500 l 221 500 z "},"Q":{"ha":968,"x_min":0,"x_max":0,"o":"m 678 -147 l 531 -147 l 531 -14 b 881 485 750 7 881 178 b 485 986 881 813 731 986 b 88 485 238 986 88 813 b 451 -15 88 172 224 0 l 451 -133 b 538 -218 451 -183 481 -218 l 678 -218 z m 485 58 b 176 424 299 58 176 193 l 176 546 b 485 911 176 776 299 911 b 792 546 669 911 792 776 l 792 424 b 485 58 792 193 669 58 z "},"R":{"ha":883,"x_min":0,"x_max":0,"o":"m 221 429 l 478 429 l 710 0 l 803 0 l 564 435 b 778 700 703 453 778 551 b 518 969 778 869 683 969 l 138 969 l 138 0 l 221 0 z m 221 500 l 221 896 l 518 896 b 689 732 629 896 689 826 l 689 665 b 518 500 689 569 629 500 z "},"S":{"ha":789,"x_min":0,"x_max":0,"o":"m 394 -17 b 713 264 592 -17 713 88 b 451 529 713 397 644 488 l 365 547 b 167 732 244 572 167 617 b 392 913 167 851 253 913 b 640 792 508 913 586 868 l 703 838 b 396 986 639 931 540 986 b 85 729 210 986 85 899 b 349 469 85 594 165 507 l 435 451 b 631 260 558 425 631 379 b 397 57 631 132 547 57 b 121 200 271 57 189 110 l 58 149 b 394 -17 133 49 236 -17 z "},"T":{"ha":789,"x_min":0,"x_max":0,"o":"m 761 896 l 761 969 l 28 969 l 28 896 l 353 896 l 353 0 l 436 0 l 436 896 z "},"U":{"ha":928,"x_min":0,"x_max":0,"o":"m 129 969 l 129 389 b 461 -17 129 104 213 -17 b 799 389 710 -17 799 104 l 799 969 l 715 969 l 715 371 b 464 58 715 156 653 58 b 213 371 274 58 213 156 l 213 969 z "},"V":{"ha":825,"x_min":0,"x_max":0,"o":"m 464 0 l 792 969 l 704 969 l 415 85 l 410 85 l 124 969 l 33 969 l 358 0 z "},"W":{"ha":1228,"x_min":0,"x_max":0,"o":"m 375 0 l 610 876 l 613 876 l 844 0 l 942 0 l 1194 969 l 1108 969 l 894 103 l 890 103 l 664 969 l 563 969 l 333 103 l 329 103 l 122 969 l 33 969 l 278 0 z "},"X":{"ha":822,"x_min":0,"x_max":0,"o":"m 36 0 l 132 0 l 408 429 l 411 429 l 686 0 l 786 0 l 463 497 l 776 969 l 681 969 l 413 560 l 410 560 l 144 969 l 46 969 l 357 493 z "},"Y":{"ha":799,"x_min":0,"x_max":0,"o":"m 440 0 l 440 397 l 776 969 l 682 969 l 401 481 l 397 481 l 117 969 l 22 969 l 357 393 l 357 0 z "},"Z":{"ha":792,"x_min":0,"x_max":0,"o":"m 746 74 l 140 74 l 724 893 l 724 969 l 82 969 l 82 896 l 633 896 l 51 76 l 51 0 l 746 0 z "},"&":{"ha":954,"x_min":0,"x_max":0,"o":"m 810 0 l 913 0 l 725 196 b 786 432 757 264 778 343 l 894 432 l 894 501 l 721 501 b 675 249 718 410 704 321 l 424 510 b 665 783 561 581 665 653 b 436 986 665 901 574 986 b 192 760 288 986 192 889 b 311 521 192 671 238 601 b 99 243 201 464 99 392 b 389 -17 99 94 206 -17 b 683 132 542 -17 636 61 z m 432 919 b 588 783 515 919 588 869 l 588 765 b 379 556 588 678 492 611 b 271 751 317 624 271 686 l 271 771 b 432 919 271 854 335 919 z m 182 235 l 182 258 b 354 475 182 376 263 428 l 638 181 b 394 54 586 101 507 54 b 182 235 268 54 182 124 z "},"@":{"ha":1232,"x_min":0,"x_max":0,"o":"m 942 -107 l 618 -107 b 161 371 350 -107 161 89 l 161 449 b 625 924 161 719 354 924 b 1071 492 876 924 1071 753 l 1071 428 b 925 157 1071 260 1017 157 b 839 254 869 157 839 186 l 839 692 l 769 692 l 769 600 l 764 600 b 594 707 739 657 686 707 b 354 400 457 707 354 606 b 594 96 354 196 457 96 b 774 211 686 96 740 146 l 778 211 b 914 96 786 143 833 96 b 1139 453 1075 96 1139 257 b 626 985 1139 819 894 985 b 93 407 311 985 93 754 b 617 -168 93 51 311 -168 l 942 -168 z m 607 163 b 438 356 493 163 438 239 l 438 444 b 607 640 438 565 493 640 b 769 496 706 640 769 581 l 769 311 b 607 163 769 219 706 163 z "},"-":{"ha":551,"x_min":0,"x_max":0,"o":"m 449 381 l 449 465 l 103 465 l 103 381 z "},"­":{"ha":551,"x_min":0,"x_max":0,"o":"m 449 381 l 449 465 l 103 465 l 103 381 z "},"–":{"ha":817,"x_min":0,"x_max":0,"o":"m 767 386 l 767 460 l 50 460 l 50 386 z "},"—":{"ha":1083,"x_min":0,"x_max":0,"o":"m 1033 386 l 1033 460 l 50 460 l 50 386 z "},"_":{"ha":788,"x_min":0,"x_max":0,"o":"m 746 -217 l 746 -147 l 42 -147 l 42 -217 z "},".":{"ha":361,"x_min":0,"x_max":0,"o":"m 181 -12 b 247 50 225 -12 247 13 l 247 65 b 181 128 247 103 225 128 b 114 65 135 128 114 103 l 114 50 b 181 -12 114 13 135 -12 z "},"…":{"ha":1083,"x_min":0,"x_max":0,"o":"m 903 -12 b 969 50 947 -12 969 13 l 969 65 b 903 128 969 103 947 128 b 836 65 857 128 836 103 l 836 50 b 903 -12 836 13 857 -12 z m 542 -12 b 608 50 586 -12 608 13 l 608 65 b 542 128 608 103 586 128 b 475 65 496 128 475 103 l 475 50 b 542 -12 475 13 496 -12 z m 181 -12 b 247 50 225 -12 247 13 l 247 65 b 181 128 247 103 225 128 b 114 65 135 128 114 103 l 114 50 b 181 -12 114 13 135 -12 z "},":":{"ha":389,"x_min":0,"x_max":0,"o":"m 194 571 b 261 633 239 571 261 596 l 261 649 b 194 711 261 686 239 711 b 128 649 149 711 128 686 l 128 633 b 194 571 128 596 149 571 z m 194 -12 b 261 50 239 -12 261 13 l 261 65 b 194 128 261 103 239 128 b 128 65 149 128 128 103 l 128 50 b 194 -12 128 13 149 -12 z "},",":{"ha":361,"x_min":0,"x_max":0,"o":"m 181 128 b 114 64 135 128 114 101 l 114 47 b 164 -10 114 18 128 -6 b 61 -192 153 -71 122 -129 l 128 -192 b 247 46 200 -129 247 -31 l 247 64 b 181 128 247 101 226 128 z "},";":{"ha":389,"x_min":0,"x_max":0,"o":"m 193 571 b 260 633 238 571 260 596 l 260 649 b 193 711 260 686 238 711 b 126 649 147 711 126 686 l 126 633 b 193 571 126 596 147 571 z m 194 128 b 128 64 149 128 128 101 l 128 47 b 178 -10 128 18 142 -6 b 75 -192 167 -71 136 -129 l 142 -192 b 261 46 214 -129 261 -31 l 261 64 b 194 128 261 101 240 128 z "},"'":{"ha":322,"x_min":0,"x_max":0,"o":"m 197 656 l 197 1028 l 125 1028 l 125 656 z "},"\"":{"ha":556,"x_min":0,"x_max":0,"o":"m 431 656 l 431 1028 l 358 1028 l 358 656 z m 197 656 l 197 1028 l 125 1028 l 125 656 z "},"‘":{"ha":361,"x_min":0,"x_max":0,"o":"m 174 708 b 242 772 221 708 242 733 l 242 789 b 190 846 242 818 226 840 b 294 1028 203 906 233 965 l 228 1028 b 108 790 156 965 108 865 l 108 772 b 174 708 108 733 129 708 z "},"’":{"ha":361,"x_min":0,"x_max":0,"o":"m 186 1042 b 119 978 140 1042 119 1015 l 119 961 b 169 904 119 932 135 908 b 67 722 158 843 128 785 l 133 722 b 253 960 206 785 253 883 l 253 978 b 186 1042 253 1015 232 1042 z "},"“":{"ha":619,"x_min":0,"x_max":0,"o":"m 432 708 b 500 772 479 708 500 733 l 500 789 b 449 846 500 818 485 840 b 553 1028 461 906 492 965 l 486 1028 b 367 790 414 965 367 865 l 367 772 b 432 708 367 733 388 708 z m 174 708 b 242 772 221 708 242 733 l 242 789 b 190 846 242 818 226 840 b 294 1028 203 906 233 965 l 228 1028 b 108 790 156 965 108 865 l 108 772 b 174 708 108 733 129 708 z "},"”":{"ha":618,"x_min":0,"x_max":0,"o":"m 443 1042 b 376 978 397 1042 376 1015 l 376 961 b 426 904 376 932 392 908 b 324 722 415 843 385 785 l 390 722 b 510 960 463 785 510 883 l 510 978 b 443 1042 510 1015 489 1042 z m 186 1042 b 119 978 140 1042 119 1015 l 119 961 b 169 904 119 932 135 908 b 67 722 158 843 128 785 l 133 722 b 253 960 206 785 253 883 l 253 978 b 186 1042 253 1015 232 1042 z "},"‚":{"ha":361,"x_min":0,"x_max":0,"o":"m 178 149 b 111 85 132 149 111 122 l 111 68 b 161 11 111 39 126 15 b 58 -171 150 -50 119 -108 l 125 -171 b 244 67 197 -108 244 -10 l 244 85 b 178 149 244 122 224 149 z "},"„":{"ha":618,"x_min":0,"x_max":0,"o":"m 435 149 b 368 85 389 149 368 122 l 368 68 b 418 11 368 39 383 15 b 315 -171 407 -50 376 -108 l 382 -171 b 501 67 454 -108 501 -10 l 501 85 b 435 149 501 122 481 149 z m 178 149 b 111 85 132 149 111 122 l 111 68 b 161 11 111 39 126 15 b 58 -171 150 -50 119 -108 l 125 -171 b 244 67 197 -108 244 -10 l 244 85 b 178 149 244 122 224 149 z "},"‹":{"ha":415,"x_min":0,"x_max":0,"o":"m 344 179 l 128 400 l 344 621 l 319 675 l 49 438 l 49 363 l 319 125 z "},"›":{"ha":415,"x_min":0,"x_max":0,"o":"m 96 125 l 367 363 l 367 438 l 96 675 l 71 621 l 288 400 l 71 179 z "},"«":{"ha":690,"x_min":0,"x_max":0,"o":"m 619 179 l 403 400 l 619 621 l 594 675 l 324 438 l 324 363 l 594 125 z m 344 179 l 128 400 l 344 621 l 319 675 l 49 438 l 49 363 l 319 125 z "},"»":{"ha":690,"x_min":0,"x_max":0,"o":"m 371 125 l 642 363 l 642 438 l 371 675 l 346 621 l 563 400 l 346 179 z m 96 125 l 367 363 l 367 438 l 96 675 l 71 621 l 288 400 l 71 179 z "},"¡":{"ha":378,"x_min":0,"x_max":0,"o":"m 231 -257 l 231 68 l 208 460 l 168 460 l 144 68 l 144 -257 z m 189 583 b 256 646 233 583 256 608 l 256 661 b 189 724 256 699 233 724 b 122 661 143 724 122 699 l 122 646 b 189 583 122 608 143 583 z "},"!":{"ha":378,"x_min":0,"x_max":0,"o":"m 208 251 l 232 644 l 232 969 l 146 969 l 146 644 l 168 251 z m 189 -12 b 256 50 233 -12 256 13 l 256 65 b 189 128 256 103 233 128 b 122 65 143 128 122 103 l 122 50 b 189 -12 122 13 143 -12 z "},"¿":{"ha":643,"x_min":0,"x_max":0,"o":"m 321 -275 b 611 -56 485 -275 576 -181 l 538 -29 b 324 -203 511 -133 442 -203 b 136 -28 208 -203 136 -133 l 136 -1 b 392 207 136 122 231 201 l 392 439 l 315 439 l 315 264 b 50 -18 171 243 50 153 b 321 -275 50 -174 154 -275 z m 356 583 b 422 646 400 583 422 608 l 422 661 b 356 724 422 699 400 724 b 289 661 310 724 289 699 l 289 646 b 356 583 289 608 310 583 z "},"?":{"ha":651,"x_min":0,"x_max":0,"o":"m 336 272 l 336 446 b 601 729 481 467 601 558 b 331 986 601 885 497 986 b 39 767 167 986 75 892 l 113 740 b 328 914 140 844 208 914 b 515 739 443 914 515 843 l 515 713 b 258 504 515 589 421 510 l 258 272 z m 297 -12 b 364 50 343 -12 364 11 l 364 65 b 297 128 364 104 343 128 b 232 65 253 128 232 104 l 232 50 b 297 -12 232 11 253 -12 z "},"(":{"ha":464,"x_min":0,"x_max":0,"o":"m 128 433 b 381 -190 128 157 246 -74 l 458 -190 b 203 386 314 -62 203 168 l 203 478 b 458 1056 203 696 311 924 l 381 1056 b 128 433 244 936 128 707 z "},")":{"ha":464,"x_min":0,"x_max":0,"o":"m 336 433 b 83 1056 336 707 219 936 l 6 1056 b 261 478 153 924 261 696 l 261 386 b 6 -190 261 168 150 -62 l 83 -190 b 336 433 217 -74 336 157 z "},"[":{"ha":432,"x_min":0,"x_max":0,"o":"m 343 -192 l 343 -129 l 207 -129 l 207 993 l 343 993 l 343 1056 l 138 1056 l 138 -192 z "},"]":{"ha":432,"x_min":0,"x_max":0,"o":"m 89 1056 l 89 993 l 225 993 l 225 -129 l 89 -129 l 89 -192 l 294 -192 l 294 1056 z "},"{":{"ha":461,"x_min":0,"x_max":0,"o":"m 374 -192 l 374 -129 l 236 -129 l 236 257 b 103 421 236 344 182 411 l 103 443 b 236 607 182 453 236 519 l 236 993 l 374 993 l 374 1056 l 249 1056 b 167 972 194 1056 167 1021 l 167 599 b 32 478 167 518 113 478 l 32 386 b 167 265 113 386 167 346 l 167 -108 b 249 -192 167 -157 194 -192 z "},"}":{"ha":461,"x_min":0,"x_max":0,"o":"m 88 1056 l 88 993 l 225 993 l 225 607 b 360 443 225 519 279 453 l 360 421 b 225 257 279 411 225 344 l 225 -129 l 88 -129 l 88 -192 l 213 -192 b 294 -108 267 -192 294 -157 l 294 265 b 429 386 294 346 349 386 l 429 478 b 294 599 349 478 294 518 l 294 972 b 213 1056 294 1021 267 1056 z "},"/":{"ha":494,"x_min":0,"x_max":0,"o":"m 86 -210 l 436 1028 l 365 1028 l 15 -210 z "},"\\":{"ha":494,"x_min":0,"x_max":0,"o":"m 474 -210 l 128 1028 l 56 1028 l 401 -210 z "},"⁄":{"ha":204,"x_min":0,"x_max":0,"o":"m -190 0 l 464 969 l 396 969 l -258 0 z "},"%":{"ha":1261,"x_min":0,"x_max":0,"o":"m 335 0 l 1007 969 l 929 969 l 257 0 z m 307 443 b 518 714 435 443 518 532 b 307 986 518 897 435 986 b 96 714 179 986 96 897 b 307 443 96 532 179 443 z m 307 496 b 168 681 224 496 168 554 l 168 749 b 307 933 168 875 224 933 b 446 749 390 933 446 875 l 446 681 b 307 496 446 554 390 496 z m 954 -17 b 1165 254 1082 -17 1165 72 b 954 526 1165 438 1082 526 b 743 254 826 526 743 438 b 954 -17 743 72 826 -17 z m 954 36 b 815 221 871 36 815 94 l 815 289 b 954 474 815 415 871 474 b 1093 289 1038 474 1093 415 l 1093 221 b 954 36 1093 94 1038 36 z "},"‰":{"ha":1776,"x_min":0,"x_max":0,"o":"m 335 0 l 1007 969 l 929 969 l 257 0 z m 307 443 b 518 714 435 443 518 532 b 307 986 518 897 435 986 b 96 714 179 986 96 897 b 307 443 96 532 179 443 z m 307 496 b 168 681 224 496 168 554 l 168 749 b 307 933 168 875 224 933 b 446 749 390 933 446 875 l 446 681 b 307 496 446 554 390 496 z m 954 -17 b 1165 254 1082 -17 1165 72 b 954 526 1165 438 1082 526 b 743 254 826 526 743 438 b 954 -17 743 72 826 -17 z m 954 36 b 815 221 871 36 815 94 l 815 289 b 954 474 815 415 871 474 b 1093 289 1038 474 1093 415 l 1093 221 b 954 36 1093 94 1038 36 z m 1469 -17 b 1681 254 1597 -17 1681 72 b 1469 526 1681 438 1597 526 b 1258 254 1342 526 1258 438 b 1469 -17 1258 72 1342 -17 z m 1469 36 b 1331 221 1386 36 1331 94 l 1331 289 b 1469 474 1331 415 1386 474 b 1608 289 1553 474 1608 415 l 1608 221 b 1469 36 1608 94 1553 36 z "},"|":{"ha":396,"x_min":0,"x_max":0,"o":"m 232 -192 l 232 1056 l 164 1056 l 164 -192 z "},"¦":{"ha":396,"x_min":0,"x_max":0,"o":"m 232 561 l 232 1056 l 164 1056 l 164 561 z m 232 -192 l 232 303 l 164 303 l 164 -192 z "},"§":{"ha":803,"x_min":0,"x_max":0,"o":"m 614 363 b 499 192 614 285 568 232 b 447 211 482 199 465 206 l 358 236 b 189 408 244 269 189 318 b 303 579 189 486 233 540 b 354 561 319 572 336 565 l 443 535 b 614 363 558 501 614 453 z m 642 -4 b 539 172 642 72 604 132 l 539 179 b 692 382 633 217 692 286 b 482 597 692 488 622 553 l 393 625 b 238 776 303 653 238 692 b 419 917 238 864 306 917 b 600 853 499 917 556 892 l 646 908 b 421 986 589 960 511 986 b 160 776 269 986 160 910 b 263 600 160 697 200 640 l 263 592 b 111 390 168 554 111 485 b 318 175 111 283 179 218 l 408 147 b 564 -6 499 119 564 79 b 382 -146 564 -94 496 -146 b 201 -82 303 -146 246 -119 l 156 -137 b 381 -215 213 -187 289 -215 b 642 -4 532 -215 642 -139 z "},"¶":{"ha":872,"x_min":0,"x_max":0,"o":"m 344 -207 l 418 -207 l 418 903 l 582 903 l 582 -207 l 656 -207 l 656 903 l 750 903 l 750 969 l 344 969 b 72 701 193 969 72 856 b 344 433 72 546 193 433 z "},"©":{"ha":1039,"x_min":0,"x_max":0,"o":"m 519 -15 b 976 485 781 -15 976 178 b 519 985 976 792 781 985 b 63 485 258 985 63 792 b 519 -15 63 178 258 -15 z m 519 44 b 132 447 290 44 132 217 l 132 522 b 519 925 132 753 290 925 b 907 522 749 925 907 753 l 907 447 b 519 44 907 217 749 44 z m 524 213 b 713 331 618 213 682 263 l 657 363 b 525 275 629 308 590 275 b 379 450 433 275 379 339 l 379 515 b 525 692 379 625 433 692 b 647 607 588 692 626 660 l 704 636 b 525 754 676 706 617 754 b 304 483 388 754 304 653 b 524 213 304 314 388 213 z "},"®":{"ha":656,"x_min":0,"x_max":0,"o":"m 328 414 b 603 700 482 414 603 535 b 328 986 603 865 482 986 b 53 700 174 986 53 865 b 328 414 53 535 174 414 z m 328 457 b 100 685 194 457 100 561 l 100 715 b 328 943 100 839 194 943 b 556 715 461 943 556 839 l 556 685 b 328 457 556 561 461 457 z m 272 668 l 336 668 l 401 550 l 449 550 l 379 672 b 438 756 413 681 438 708 b 349 843 438 811 404 843 l 229 843 l 229 550 l 272 550 z m 272 703 l 272 807 l 347 807 b 392 765 378 807 392 793 l 392 743 b 347 703 392 715 378 703 z "},"™":{"ha":903,"x_min":0,"x_max":0,"o":"m 226 588 l 226 922 l 358 922 l 358 969 l 39 969 l 39 922 l 174 922 l 174 588 z m 490 588 l 490 893 l 494 893 l 614 668 l 733 893 l 738 893 l 738 588 l 785 588 l 785 969 l 722 969 l 617 765 l 613 765 l 507 969 l 442 969 l 442 588 z "},"ª":{"ha":529,"x_min":0,"x_max":0,"o":"m 483 504 l 483 561 l 426 561 l 426 822 b 249 986 426 926 358 986 b 71 890 154 986 97 942 l 115 857 b 246 932 136 904 183 932 b 363 818 321 932 363 896 l 363 764 l 250 764 b 56 625 119 764 56 717 b 207 494 56 547 110 494 b 361 575 293 494 340 535 l 367 575 l 367 560 b 428 504 368 525 385 504 z m 219 546 b 121 624 157 546 121 572 l 121 639 b 249 715 121 688 161 715 l 363 715 l 363 647 b 219 546 363 582 294 546 z "},"º":{"ha":536,"x_min":0,"x_max":0,"o":"m 268 494 b 474 742 397 494 474 589 b 268 986 474 892 397 986 b 63 742 139 986 63 892 b 268 494 63 589 139 494 z m 268 549 b 131 706 178 549 131 617 l 131 776 b 268 932 131 864 178 932 b 406 776 358 932 406 864 l 406 706 b 268 549 406 617 358 549 z "},"°":{"ha":647,"x_min":0,"x_max":0,"o":"m 324 514 b 554 750 456 514 554 617 b 324 986 554 883 456 986 b 93 750 192 986 93 883 b 324 514 93 617 192 514 z m 324 578 b 164 750 225 578 164 656 b 324 922 164 844 225 922 b 483 750 422 922 483 844 b 324 578 483 656 422 578 z "},"*":{"ha":578,"x_min":0,"x_max":0,"o":"m 289 739 l 408 565 l 464 606 l 336 774 l 538 831 l 515 899 l 318 828 l 324 1038 l 254 1038 l 260 828 l 61 899 l 40 831 l 242 774 l 114 606 l 169 565 z "},"†":{"ha":774,"x_min":0,"x_max":0,"o":"m 422 -278 l 422 647 l 699 647 l 699 711 l 422 711 l 422 1028 l 351 1028 l 351 711 l 75 711 l 75 647 l 351 647 l 351 -278 z "},"‡":{"ha":774,"x_min":0,"x_max":0,"o":"m 422 -278 l 422 39 l 699 39 l 699 103 l 422 103 l 422 647 l 699 647 l 699 711 l 422 711 l 422 1028 l 351 1028 l 351 711 l 75 711 l 75 647 l 351 647 l 351 103 l 75 103 l 75 39 l 351 39 l 351 -278 z "},"#":{"ha":990,"x_min":0,"x_max":0,"o":"m 526 0 l 593 0 l 643 293 l 844 293 l 844 354 l 654 354 l 697 615 l 899 615 l 899 676 l 708 676 l 760 969 l 693 969 l 643 676 l 413 676 l 463 969 l 397 969 l 347 676 l 146 676 l 146 615 l 336 615 l 292 354 l 92 354 l 92 293 l 281 293 l 231 0 l 296 0 l 347 293 l 578 293 z m 357 354 l 401 615 l 632 615 l 588 354 z "},"^":{"ha":833,"x_min":0,"x_max":0,"o":"m 754 458 l 460 969 l 374 969 l 79 458 l 140 425 l 414 894 l 419 894 l 693 425 z "},"~":{"ha":833,"x_min":0,"x_max":0,"o":"m 585 340 b 746 413 660 340 706 367 l 711 457 b 589 407 668 422 638 407 b 428 456 535 407 492 426 b 249 507 356 489 311 507 b 88 435 174 507 128 481 l 122 390 b 244 440 165 425 196 440 b 406 392 299 440 342 421 b 585 340 478 358 522 340 z "},"+":{"ha":833,"x_min":0,"x_max":0,"o":"m 454 88 l 454 390 l 743 390 l 743 458 l 454 458 l 454 761 l 379 761 l 379 458 l 90 458 l 90 390 l 379 390 l 379 88 z "},"−":{"ha":833,"x_min":0,"x_max":0,"o":"m 743 390 l 743 458 l 90 458 l 90 390 z "},"±":{"ha":833,"x_min":0,"x_max":0,"o":"m 454 190 l 454 486 l 743 486 l 743 554 l 454 554 l 454 850 l 379 850 l 379 554 l 90 554 l 90 486 l 379 486 l 379 190 z m 743 0 l 743 68 l 90 68 l 90 0 z "},"×":{"ha":833,"x_min":0,"x_max":0,"o":"m 650 139 l 699 188 l 465 424 l 699 660 l 650 708 l 417 472 l 183 708 l 135 660 l 368 424 l 135 188 l 183 139 l 417 375 z "},"÷":{"ha":833,"x_min":0,"x_max":0,"o":"m 743 390 l 743 458 l 90 458 l 90 390 z m 417 88 b 488 143 468 88 488 111 l 488 167 b 417 221 488 199 468 221 b 346 167 365 221 346 199 l 346 143 b 417 88 346 111 365 88 z m 417 626 b 488 682 468 626 488 650 l 488 704 b 417 760 488 736 468 760 b 346 704 365 760 346 736 l 346 682 b 417 626 346 650 365 626 z "},"=":{"ha":833,"x_min":0,"x_max":0,"o":"m 743 524 l 743 592 l 90 592 l 90 524 z m 743 258 l 743 326 l 90 326 l 90 258 z "},"≈":{"ha":833,"x_min":0,"x_max":0,"o":"m 585 211 b 746 283 660 211 706 238 l 711 328 b 589 278 668 293 638 278 b 428 326 535 278 492 297 b 249 378 356 360 311 378 b 88 306 174 378 128 351 l 122 261 b 244 311 165 296 196 311 b 406 263 299 311 342 292 b 585 211 478 229 522 211 z m 585 469 b 746 542 660 469 706 496 l 711 586 b 589 536 668 551 638 536 b 428 585 535 536 492 556 b 249 636 356 618 311 636 b 88 564 174 636 128 610 l 122 519 b 244 569 165 554 196 569 b 406 521 299 569 342 550 b 585 469 478 488 522 469 z "},"≠":{"ha":833,"x_min":0,"x_max":0,"o":"m 276 111 l 360 258 l 743 258 l 743 326 l 397 326 l 508 524 l 743 524 l 743 592 l 546 592 l 629 739 l 557 739 l 474 592 l 90 592 l 90 524 l 436 524 l 325 326 l 90 326 l 90 258 l 288 258 l 204 111 z "},"<":{"ha":833,"x_min":0,"x_max":0,"o":"m 711 11 l 711 94 l 199 396 l 199 404 l 711 706 l 711 789 l 122 439 l 122 361 z "},">":{"ha":833,"x_min":0,"x_max":0,"o":"m 122 11 l 711 361 l 711 439 l 122 789 l 122 706 l 635 404 l 635 396 l 122 94 z "},"≤":{"ha":833,"x_min":0,"x_max":0,"o":"m 711 0 l 711 68 l 122 68 l 122 0 z m 711 821 l 122 532 l 122 446 l 711 156 l 711 236 l 199 485 l 199 493 l 711 742 z "},"≥":{"ha":833,"x_min":0,"x_max":0,"o":"m 122 156 l 711 446 l 711 532 l 122 821 l 122 742 l 635 493 l 635 485 l 122 236 z m 122 0 l 711 0 l 711 68 l 122 68 z "},"·":{"ha":439,"x_min":0,"x_max":0,"o":"m 219 354 b 286 417 264 354 286 379 l 286 432 b 219 494 286 469 264 494 b 153 432 174 494 153 469 l 153 417 b 219 354 153 379 174 354 z "},"•":{"ha":517,"x_min":0,"x_max":0,"o":"m 258 275 b 408 404 368 275 408 332 l 408 440 b 258 569 408 513 368 569 b 108 440 150 569 108 513 l 108 404 b 258 275 108 332 150 275 z "},"◊":{"ha":833,"x_min":0,"x_max":0,"o":"m 457 0 l 764 485 l 457 969 l 378 969 l 69 485 l 378 0 z m 413 75 l 154 485 l 413 894 l 421 894 l 681 485 l 421 75 z "},"¬":{"ha":833,"x_min":0,"x_max":0,"o":"m 735 122 l 735 458 l 90 458 l 90 390 l 664 390 l 664 122 z "},"√":{"ha":833,"x_min":0,"x_max":0,"o":"m 482 0 l 771 969 l 693 969 l 431 71 l 425 71 l 249 711 l 39 711 l 39 647 l 189 647 l 371 0 z "},"∫":{"ha":553,"x_min":0,"x_max":0,"o":"m 71 -278 l 204 -278 b 317 -162 281 -278 317 -232 l 317 958 l 483 958 l 483 1028 l 349 1028 b 238 913 272 1028 238 982 l 238 -208 l 71 -208 z "},"∞":{"ha":1024,"x_min":0,"x_max":0,"o":"m 268 165 b 490 369 374 165 461 233 l 497 369 b 756 165 536 238 622 165 b 994 424 907 165 994 269 b 756 682 994 578 907 682 b 532 478 650 682 563 614 l 526 478 b 268 682 488 610 400 682 b 29 424 117 682 29 578 b 268 165 29 269 117 165 z m 267 233 b 110 393 174 233 110 293 l 110 454 b 267 614 110 554 174 614 b 471 424 360 614 435 558 b 267 233 435 293 360 233 z m 757 233 b 553 424 664 233 588 289 b 757 614 588 554 664 614 b 914 454 849 614 914 554 l 914 393 b 757 233 914 293 849 233 z "},"℮":{"ha":992,"x_min":0,"x_max":0,"o":"m 206 485 l 938 485 b 496 986 938 783 756 986 b 54 485 238 986 54 783 b 499 -17 54 186 238 -17 b 890 215 692 -17 819 82 l 840 242 b 499 38 774 119 668 38 b 206 197 363 38 260 107 z m 206 536 l 206 776 b 496 935 260 868 361 935 b 788 776 632 935 733 868 l 788 536 z "},"ℓ":{"ha":663,"x_min":0,"x_max":0,"o":"m 368 -17 b 618 169 496 -17 571 69 l 561 204 b 374 53 518 119 467 53 b 246 240 288 53 246 110 l 246 304 b 525 826 417 460 525 636 b 349 1044 525 969 464 1044 b 169 785 240 1044 169 972 l 169 329 b 53 247 132 297 90 271 l 86 192 b 171 251 114 210 143 229 l 171 224 b 368 -17 171 81 233 -17 z m 351 978 b 451 836 413 978 451 938 l 451 815 b 246 390 451 669 369 518 l 246 792 b 351 978 246 933 290 978 z "},"№":{"ha":1417,"x_min":0,"x_max":0,"o":"m 1149 507 b 1364 747 1275 507 1364 596 b 1149 986 1364 897 1275 986 b 933 747 1022 986 933 897 b 1149 507 933 596 1022 507 z m 215 0 l 215 850 l 219 850 l 715 0 l 814 0 l 814 969 l 736 969 l 736 113 l 732 113 l 235 969 l 138 969 l 138 0 z m 1149 561 b 1004 714 1057 561 1004 629 l 1004 779 b 1149 932 1004 863 1057 932 b 1293 779 1240 932 1293 863 l 1293 714 b 1149 561 1293 629 1240 561 z m 1339 360 l 1339 426 l 958 426 l 958 360 z "},"∂":{"ha":813,"x_min":0,"x_max":0,"o":"m 711 363 b 333 969 711 729 475 886 l 206 969 b 592 613 379 882 539 757 l 588 610 b 394 700 543 667 481 700 b 94 342 214 700 94 564 b 406 -17 94 119 214 -17 b 711 363 592 -17 711 113 z m 403 51 b 179 300 271 51 179 140 l 179 383 b 403 632 179 543 271 632 b 628 383 536 632 628 543 l 628 300 b 403 51 628 140 536 51 z "},"¢":{"ha":690,"x_min":0,"x_max":0,"o":"m 406 -158 l 406 -15 b 643 138 522 -10 600 50 l 585 176 b 404 54 547 104 489 60 l 404 657 b 568 539 483 651 535 610 l 632 571 b 406 726 592 658 518 721 l 406 869 l 336 869 l 336 725 b 72 356 169 707 72 574 b 336 -14 72 139 168 4 l 336 -158 z m 157 306 l 157 406 b 338 654 157 542 221 638 l 338 58 b 157 306 221 74 157 171 z "},"€":{"ha":856,"x_min":0,"x_max":0,"o":"m 792 200 l 726 240 b 465 57 683 129 594 57 b 181 342 307 57 204 163 l 540 342 l 540 408 l 175 408 b 175 433 175 417 175 424 l 175 536 b 175 561 175 546 175 554 l 540 561 l 540 628 l 181 628 b 465 913 203 807 306 913 b 719 740 588 913 676 844 l 785 779 b 465 986 726 907 619 986 b 89 485 228 986 89 813 b 465 -17 89 157 228 -17 b 792 200 632 -17 736 74 z "},"ƒ":{"ha":675,"x_min":0,"x_max":0,"o":"m -4 -186 l 182 -186 b 307 -71 258 -186 300 -140 l 356 424 l 613 424 l 621 496 l 364 496 l 404 900 l 635 900 l 642 969 l 444 969 b 319 854 368 969 326 924 l 283 496 l 69 496 l 61 424 l 276 424 l 222 -117 l 3 -117 z "},"£":{"ha":818,"x_min":0,"x_max":0,"o":"m 722 0 l 722 75 l 194 75 l 194 79 b 308 328 261 128 308 221 b 299 411 308 358 304 385 l 582 411 l 582 481 l 281 481 b 231 692 258 547 231 613 b 450 913 231 836 318 913 b 678 781 553 913 626 867 l 742 825 b 453 986 679 929 585 986 b 146 699 265 986 146 872 b 197 481 146 615 174 550 l 89 481 l 89 411 l 217 411 b 228 319 222 383 228 353 b 114 99 228 226 192 142 l 114 0 z "},"$":{"ha":803,"x_min":0,"x_max":0,"o":"m 436 -114 l 436 0 b 722 269 611 13 722 108 b 460 529 722 401 656 494 l 436 533 l 436 899 b 650 778 533 889 603 846 l 711 824 b 436 971 651 908 564 961 l 436 1083 l 375 1083 l 375 969 b 93 726 207 960 93 878 b 358 471 93 596 164 503 l 375 468 l 375 71 b 126 214 264 79 189 133 l 67 163 b 375 0 135 72 229 7 l 375 -114 z m 643 265 b 436 71 643 151 565 82 l 436 458 l 446 457 b 643 265 572 439 643 383 z m 172 731 b 375 899 172 833 250 890 l 375 543 l 361 546 b 172 731 244 569 172 617 z "},"¥":{"ha":826,"x_min":0,"x_max":0,"o":"m 711 214 l 711 281 l 454 281 l 454 438 l 711 438 l 711 504 l 494 504 l 772 969 l 681 969 l 419 513 l 414 513 l 149 969 l 54 969 l 332 504 l 115 504 l 115 438 l 372 438 l 372 281 l 115 281 l 115 214 l 372 214 l 372 0 l 454 0 l 454 214 z "},"฿":{"ha":874,"x_min":0,"x_max":0,"o":"m 463 29 l 538 29 b 785 286 686 29 785 136 b 594 506 785 429 697 490 l 594 513 b 746 710 681 532 746 590 b 504 940 746 851 656 940 l 463 940 l 463 1083 l 394 1083 l 394 940 l 138 940 l 138 29 l 394 29 l 394 -114 l 463 -114 z m 219 536 l 219 865 l 394 865 l 394 536 z m 461 865 l 506 865 b 660 726 611 865 660 811 l 660 678 b 506 536 660 593 611 536 l 461 536 z m 219 104 l 219 467 l 394 467 l 394 104 z m 461 467 l 518 467 b 699 311 635 467 699 404 l 699 258 b 518 104 699 165 635 104 l 461 104 z "},"₡":{"ha":858,"x_min":0,"x_max":0,"o":"m 433 -114 l 500 -114 l 513 0 b 794 214 653 14 743 97 l 726 256 b 518 76 690 158 621 92 l 607 863 b 719 725 658 833 694 786 l 788 765 b 618 943 750 847 694 910 l 633 1083 l 567 1083 l 553 961 b 467 972 526 968 497 972 b 444 971 460 972 454 972 l 457 1083 l 390 1083 l 378 965 b 89 483 194 929 89 769 b 275 42 89 256 156 108 l 257 -114 l 324 -114 l 339 18 b 446 -1 369 6 407 0 z m 468 897 b 544 886 496 897 521 893 l 453 72 b 347 96 414 72 378 81 l 436 897 b 468 897 443 897 461 897 z m 178 426 l 178 544 b 369 885 178 731 247 849 l 286 129 b 178 426 215 185 178 286 z "},"₤":{"ha":818,"x_min":0,"x_max":0,"o":"m 722 75 l 194 75 l 194 79 b 308 322 260 128 307 218 b 308 338 308 328 308 333 l 592 338 l 592 404 l 301 404 b 256 554 292 457 271 506 l 592 554 l 592 621 l 240 621 b 231 692 235 643 231 667 b 450 913 231 836 318 913 b 678 781 553 913 626 867 l 742 825 b 453 986 679 929 585 986 b 146 699 265 986 146 872 b 154 621 146 671 149 644 l 89 621 l 89 554 l 171 554 b 218 404 188 506 208 458 l 89 404 l 89 338 l 228 338 b 228 321 228 332 228 326 b 114 99 228 226 192 142 l 114 0 l 722 0 z "},"₦":{"ha":953,"x_min":0,"x_max":0,"o":"m 711 0 l 811 0 l 811 340 l 931 340 l 931 407 l 811 407 l 811 563 l 931 563 l 931 629 l 811 629 l 811 969 l 731 969 l 731 628 l 439 628 l 239 969 l 142 969 l 142 629 l 22 629 l 22 563 l 142 563 l 142 407 l 22 407 l 22 340 l 142 340 l 142 0 l 222 0 l 222 342 l 510 342 z m 222 404 l 222 843 l 226 843 l 478 404 z m 471 565 l 731 565 l 731 117 l 726 117 z "},"₨":{"ha":993,"x_min":0,"x_max":0,"o":"m 946 158 b 840 340 946 232 921 267 l 806 369 b 718 510 743 425 718 457 b 808 596 718 561 749 596 b 907 560 847 596 879 582 l 942 617 b 804 660 901 649 854 660 b 643 508 697 660 643 590 b 753 318 643 440 672 390 l 790 286 b 871 158 857 226 871 207 b 749 51 871 92 822 51 b 589 163 671 51 628 88 l 435 467 b 592 713 542 496 592 583 b 346 969 592 875 513 969 l 138 969 l 138 0 l 217 0 l 217 453 l 328 453 b 356 454 338 453 343 453 l 518 122 b 743 -17 567 22 639 -17 b 946 158 874 -17 946 56 z m 217 896 l 339 896 b 508 742 446 896 508 843 l 508 679 b 339 522 508 578 446 522 l 217 522 z "},"₩":{"ha":1294,"x_min":0,"x_max":0,"o":"m 879 0 l 974 0 l 1061 338 l 1240 338 l 1240 404 l 1079 404 l 1119 561 l 1240 561 l 1240 628 l 1136 628 l 1225 969 l 1142 969 l 1057 625 l 786 625 l 696 969 l 597 969 l 504 625 l 238 625 l 154 969 l 71 969 l 157 628 l 54 628 l 54 561 l 174 561 l 213 404 l 54 404 l 54 338 l 228 338 l 313 0 l 406 0 l 499 340 l 788 340 z m 363 101 l 251 563 l 486 563 l 365 101 z m 924 103 l 803 563 l 1042 563 l 928 103 z m 643 883 l 646 883 l 772 403 l 515 403 z "},"₪":{"ha":1067,"x_min":0,"x_max":0,"o":"m 375 0 l 701 0 b 929 253 838 0 929 82 l 929 969 l 850 969 l 850 239 b 701 69 850 108 778 69 l 454 69 l 454 767 l 375 767 z m 217 0 l 217 900 l 460 900 b 613 731 536 900 613 861 l 613 203 l 692 203 l 692 717 b 460 969 692 888 596 969 l 138 969 l 138 0 z "},"₫":{"ha":796,"x_min":0,"x_max":0,"o":"m 564 178 l 640 178 l 640 874 l 738 874 l 738 936 l 640 936 l 640 1028 l 564 1028 l 564 936 l 349 936 l 349 874 l 564 874 l 564 658 l 560 658 b 356 772 525 724 457 772 b 97 468 196 772 97 665 b 356 164 97 271 196 164 b 560 276 457 164 525 211 l 564 276 z m 379 229 b 179 426 256 229 179 307 l 179 511 b 379 707 179 631 256 707 b 564 557 482 707 564 647 l 564 378 b 379 229 564 289 482 229 z m 685 0 l 685 68 l 97 68 l 97 0 z "},"₭":{"ha":832,"x_min":0,"x_max":0,"o":"m 225 471 l 344 471 l 693 0 l 792 0 l 438 471 l 749 471 l 749 540 l 432 540 l 769 969 l 676 969 l 343 540 l 225 540 l 225 969 l 142 969 l 142 540 l 18 540 l 18 471 l 142 471 l 142 0 l 225 0 z "},"₮":{"ha":819,"x_min":0,"x_max":0,"o":"m 649 417 l 649 488 l 451 390 l 451 538 l 649 633 l 649 703 l 451 607 l 451 896 l 776 896 l 776 969 l 43 969 l 43 896 l 368 896 l 368 568 l 171 472 l 171 403 l 368 497 l 368 351 l 171 256 l 171 186 l 368 282 l 368 0 l 451 0 l 451 321 z "},"₱":{"ha":850,"x_min":0,"x_max":0,"o":"m 225 304 l 460 304 b 701 494 593 304 672 376 l 826 494 l 826 561 l 713 561 b 714 636 714 574 714 622 b 713 711 714 650 714 697 l 826 711 l 826 778 l 701 778 b 460 969 672 896 592 969 l 142 969 l 142 778 l 24 778 l 24 711 l 142 711 l 142 561 l 24 561 l 24 494 l 142 494 l 142 0 l 225 0 z m 225 897 l 460 897 b 625 775 549 897 606 843 l 225 775 z m 225 558 l 225 714 l 632 714 l 632 558 z m 225 376 l 225 497 l 626 497 b 460 376 608 426 550 376 z "},"₲":{"ha":924,"x_min":0,"x_max":0,"o":"m 396 -114 l 415 0 b 469 -3 432 -1 450 -3 b 819 332 640 -3 819 89 l 819 483 l 494 483 l 561 886 b 731 731 639 864 699 808 l 797 769 b 575 960 754 867 676 933 l 596 1083 l 524 1083 l 504 969 b 469 972 493 971 482 972 b 89 488 228 972 89 810 b 347 13 89 219 183 61 l 324 -114 z m 178 426 l 178 544 b 469 899 178 772 286 899 b 493 897 478 899 488 899 l 361 92 b 178 426 244 133 178 249 z m 739 408 l 739 315 b 479 71 739 160 635 71 b 426 74 461 71 444 72 l 482 408 z "},"₴":{"ha":863,"x_min":0,"x_max":0,"o":"m 438 -17 b 729 118 547 -17 650 28 l 678 174 b 442 57 599 90 524 57 b 239 240 317 57 239 121 b 276 357 239 289 253 324 l 796 357 l 796 424 l 360 424 l 624 579 l 796 579 l 796 646 l 674 646 b 699 751 689 672 699 707 b 432 986 699 897 589 986 b 163 867 335 986 239 951 l 215 813 b 426 913 279 885 350 913 b 615 746 543 913 615 854 b 589 646 615 706 608 674 l 67 646 l 67 579 l 506 579 l 240 424 l 67 424 l 67 357 l 189 357 b 156 235 171 324 156 286 b 438 -17 156 83 267 -17 z "},"₵":{"ha":858,"x_min":0,"x_max":0,"o":"m 390 -114 l 411 1 b 465 -3 428 -1 446 -3 b 794 214 635 -3 738 88 l 726 254 b 465 72 685 143 596 72 b 422 75 450 72 436 72 l 556 885 b 719 728 632 860 688 804 l 788 767 b 569 958 743 864 669 932 l 590 1083 l 518 1083 l 500 971 b 465 972 485 972 476 972 b 89 485 231 972 89 813 b 342 14 89 219 182 63 l 319 -114 z m 178 426 l 178 544 b 465 899 178 772 285 899 b 489 897 471 899 478 899 l 356 92 b 178 426 243 133 178 247 z "},"₸":{"ha":842,"x_min":0,"x_max":0,"o":"m 788 900 l 788 969 l 54 969 l 54 900 z m 788 683 l 788 753 l 54 753 l 54 683 l 379 683 l 379 0 l 463 0 l 463 683 z "},"₹":{"ha":811,"x_min":0,"x_max":0,"o":"m 667 0 l 344 426 l 358 426 b 621 665 518 426 621 531 l 621 669 l 767 669 l 767 739 l 621 739 b 514 894 611 844 558 881 l 514 900 l 767 900 l 767 969 l 51 969 l 51 900 l 361 900 b 540 739 469 900 538 836 l 51 739 l 51 669 l 540 669 l 540 663 b 360 496 540 561 472 496 l 51 496 l 51 426 l 249 426 l 567 0 z "},"₺":{"ha":844,"x_min":0,"x_max":0,"o":"m 176 0 l 431 0 b 776 424 657 0 776 186 l 694 424 b 425 72 694 217 594 72 l 260 72 l 260 414 l 556 557 l 556 626 l 260 483 l 260 629 l 556 772 l 556 843 l 260 700 l 260 969 l 176 969 l 176 661 l 24 588 l 24 517 l 176 592 l 176 444 l 24 371 l 24 301 l 176 375 z "},"₽":{"ha":839,"x_min":0,"x_max":0,"o":"m 592 204 l 592 274 l 225 274 l 225 428 l 522 428 b 782 699 690 428 782 533 b 522 969 782 864 690 969 l 142 969 l 142 497 l 24 497 l 24 428 l 142 428 l 142 274 l 24 274 l 24 204 l 142 204 l 142 0 l 225 0 l 225 204 z m 225 894 l 522 894 b 693 731 635 894 693 826 l 693 661 b 522 497 693 567 635 497 l 225 497 z "},"₿":{"ha":874,"x_min":0,"x_max":0,"o":"m 471 -114 l 540 -114 l 540 29 b 785 286 689 29 785 136 b 594 506 785 429 697 490 l 594 513 b 746 710 682 532 746 590 b 540 939 746 843 669 926 l 540 1083 l 471 1083 l 471 940 l 361 940 l 361 1083 l 292 1083 l 292 940 l 138 940 l 138 29 l 292 29 l 292 -114 l 361 -114 l 361 29 l 471 29 z m 219 865 l 506 865 b 660 725 613 865 660 810 l 660 678 b 506 538 660 594 613 538 l 219 538 z m 219 467 l 518 467 b 699 311 635 467 699 403 l 699 260 b 518 104 699 168 635 104 l 219 104 z "},"ﬁ":{"ha":758,"x_min":0,"x_max":0,"o":"m 163 0 l 242 0 l 242 642 l 549 642 l 549 0 l 628 0 l 628 711 l 242 711 l 242 958 l 399 958 l 399 1028 l 274 1028 b 163 910 199 1028 163 982 l 163 711 l 40 711 l 40 642 l 163 642 z m 589 904 b 643 954 626 904 643 925 l 643 968 b 589 1018 643 997 626 1018 b 535 968 550 1018 535 997 l 535 954 b 589 904 535 925 550 904 z "},"ﬂ":{"ha":796,"x_min":0,"x_max":0,"o":"m 747 0 l 747 69 l 638 69 l 638 1028 l 558 1028 l 558 86 b 646 0 558 35 589 0 z m 163 0 l 242 0 l 242 642 l 399 642 l 399 711 l 242 711 l 242 958 l 399 958 l 399 1028 l 274 1028 b 163 910 199 1028 163 982 l 163 711 l 40 711 l 40 642 l 163 642 z "},"á":{"ha":733,"x_min":0,"x_max":0,"o":"m 497 1031 l 425 1067 l 293 839 l 344 814 z m 699 0 l 699 69 l 603 69 l 603 490 b 344 728 603 640 510 728 b 97 585 215 728 136 667 l 147 543 b 342 658 186 617 247 658 b 524 482 463 658 524 599 l 524 399 l 360 399 b 71 193 154 399 71 319 b 306 -17 71 61 157 -17 b 521 113 417 -17 489 33 l 528 113 l 528 88 b 618 0 532 35 557 0 z m 317 51 b 154 178 219 51 154 96 l 154 211 b 357 339 154 290 215 339 l 524 339 l 524 207 b 317 51 524 111 432 51 z "},"ă":{"ha":733,"x_min":0,"x_max":0,"o":"m 349 833 b 549 1003 476 833 514 917 l 503 1025 l 476 982 b 349 897 442 924 415 897 b 221 982 282 897 256 924 l 194 1025 l 149 1003 b 349 833 183 917 221 833 z m 699 0 l 699 69 l 603 69 l 603 490 b 344 728 603 640 510 728 b 97 585 215 728 136 667 l 147 543 b 342 658 186 617 247 658 b 524 482 463 658 524 599 l 524 399 l 360 399 b 71 193 154 399 71 319 b 306 -17 71 61 157 -17 b 521 113 417 -17 489 33 l 528 113 l 528 88 b 618 0 532 35 557 0 z m 317 51 b 154 178 219 51 154 96 l 154 211 b 357 339 154 290 215 339 l 524 339 l 524 207 b 317 51 524 111 432 51 z "},"â":{"ha":733,"x_min":0,"x_max":0,"o":"m 300 1050 l 136 857 l 181 825 l 349 993 l 517 825 l 561 857 l 397 1050 z m 699 0 l 699 69 l 603 69 l 603 490 b 344 728 603 640 510 728 b 97 585 215 728 136 667 l 147 543 b 342 658 186 617 247 658 b 524 482 463 658 524 599 l 524 399 l 360 399 b 71 193 154 399 71 319 b 306 -17 71 61 157 -17 b 521 113 417 -17 489 33 l 528 113 l 528 88 b 618 0 532 35 557 0 z m 317 51 b 154 178 219 51 154 96 l 154 211 b 357 339 154 290 215 339 l 524 339 l 524 207 b 317 51 524 111 432 51 z "},"ä":{"ha":733,"x_min":0,"x_max":0,"o":"m 221 871 b 275 921 258 871 275 892 l 275 935 b 221 985 275 964 258 985 b 167 935 182 985 167 964 l 167 921 b 221 871 167 892 182 871 z m 476 871 b 531 921 515 871 531 892 l 531 935 b 476 985 531 964 515 985 b 422 935 439 985 422 964 l 422 921 b 476 871 422 892 439 871 z m 699 0 l 699 69 l 603 69 l 603 490 b 344 728 603 640 510 728 b 97 585 215 728 136 667 l 147 543 b 342 658 186 617 247 658 b 524 482 463 658 524 599 l 524 399 l 360 399 b 71 193 154 399 71 319 b 306 -17 71 61 157 -17 b 521 113 417 -17 489 33 l 528 113 l 528 88 b 618 0 532 35 557 0 z m 317 51 b 154 178 219 51 154 96 l 154 211 b 357 339 154 290 215 339 l 524 339 l 524 207 b 317 51 524 111 432 51 z "},"ạ":{"ha":733,"x_min":0,"x_max":0,"o":"m 329 -215 b 385 -164 367 -215 385 -194 l 385 -153 b 329 -101 385 -122 367 -101 b 274 -153 292 -101 274 -122 l 274 -164 b 329 -215 274 -194 292 -215 z m 699 0 l 699 69 l 603 69 l 603 490 b 344 728 603 640 510 728 b 97 585 215 728 136 667 l 147 543 b 342 658 186 617 247 658 b 524 482 463 658 524 599 l 524 399 l 360 399 b 71 193 154 399 71 319 b 306 -17 71 61 157 -17 b 521 113 417 -17 489 33 l 528 113 l 528 88 b 618 0 532 35 557 0 z m 317 51 b 154 178 219 51 154 96 l 154 211 b 357 339 154 290 215 339 l 524 339 l 524 207 b 317 51 524 111 432 51 z "},"à":{"ha":733,"x_min":0,"x_max":0,"o":"m 351 814 l 404 839 l 272 1067 l 200 1031 z m 699 0 l 699 69 l 603 69 l 603 490 b 344 728 603 640 510 728 b 97 585 215 728 136 667 l 147 543 b 342 658 186 617 247 658 b 524 482 463 658 524 599 l 524 399 l 360 399 b 71 193 154 399 71 319 b 306 -17 71 61 157 -17 b 521 113 417 -17 489 33 l 528 113 l 528 88 b 618 0 532 35 557 0 z m 317 51 b 154 178 219 51 154 96 l 154 211 b 357 339 154 290 215 339 l 524 339 l 524 207 b 317 51 524 111 432 51 z "},"ả":{"ha":733,"x_min":0,"x_max":0,"o":"m 238 986 l 414 986 l 322 829 l 371 806 l 418 872 b 475 992 458 926 475 963 b 404 1047 475 1022 456 1047 l 238 1047 z m 699 0 l 699 69 l 603 69 l 603 490 b 344 728 603 640 510 728 b 97 585 215 728 136 667 l 147 543 b 342 658 186 617 247 658 b 524 482 463 658 524 599 l 524 399 l 360 399 b 71 193 154 399 71 319 b 306 -17 71 61 157 -17 b 521 113 417 -17 489 33 l 528 113 l 528 88 b 618 0 532 35 557 0 z m 317 51 b 154 178 219 51 154 96 l 154 211 b 357 339 154 290 215 339 l 524 339 l 524 207 b 317 51 524 111 432 51 z "},"ā":{"ha":733,"x_min":0,"x_max":0,"o":"m 160 896 l 538 896 l 538 964 l 160 964 z m 699 0 l 699 69 l 603 69 l 603 490 b 344 728 603 640 510 728 b 97 585 215 728 136 667 l 147 543 b 342 658 186 617 247 658 b 524 482 463 658 524 599 l 524 399 l 360 399 b 71 193 154 399 71 319 b 306 -17 71 61 157 -17 b 521 113 417 -17 489 33 l 528 113 l 528 88 b 618 0 532 35 557 0 z m 317 51 b 154 178 219 51 154 96 l 154 211 b 357 339 154 290 215 339 l 524 339 l 524 207 b 317 51 524 111 432 51 z "},"ą":{"ha":732,"x_min":0,"x_max":0,"o":"m 724 -235 l 682 -196 b 608 -229 667 -215 642 -229 b 550 -176 575 -229 550 -214 b 699 0 550 -131 583 -93 l 699 69 l 603 69 l 603 490 b 344 728 603 640 510 728 b 97 585 215 728 136 667 l 147 543 b 342 657 186 617 247 657 b 524 482 463 657 524 599 l 524 399 l 360 399 b 71 193 154 399 71 319 b 306 -17 71 61 157 -17 b 521 113 417 -17 489 33 l 528 113 l 528 92 b 615 0 528 39 561 0 l 632 0 l 633 -3 b 485 -186 538 -65 485 -122 b 608 -285 485 -254 540 -285 b 724 -235 667 -285 707 -262 z m 317 51 b 154 178 219 51 154 96 l 154 211 b 357 339 154 290 215 339 l 524 339 l 524 207 b 317 51 524 111 432 51 z "},"å":{"ha":733,"x_min":0,"x_max":0,"o":"m 349 807 b 496 954 433 807 496 868 b 349 1100 496 1039 433 1100 b 201 954 264 1100 201 1039 b 349 807 201 868 264 807 z m 349 858 b 261 942 294 858 261 890 l 261 965 b 349 1049 261 1018 294 1049 b 436 965 403 1049 436 1018 l 436 942 b 349 858 436 890 403 858 z m 699 0 l 699 69 l 603 69 l 603 490 b 344 728 603 640 510 728 b 97 585 215 728 136 667 l 147 543 b 342 658 186 617 247 658 b 524 482 463 658 524 599 l 524 399 l 360 399 b 71 193 154 399 71 319 b 306 -17 71 61 157 -17 b 521 113 417 -17 489 33 l 528 113 l 528 88 b 618 0 532 35 557 0 z m 317 51 b 154 178 219 51 154 96 l 154 211 b 357 339 154 290 215 339 l 524 339 l 524 207 b 317 51 524 111 432 51 z "},"ǻ":{"ha":733,"x_min":0,"x_max":0,"o":"m 483 1265 l 422 1303 l 315 1150 l 358 1122 z m 349 799 b 496 946 433 799 496 860 b 349 1092 496 1031 433 1092 b 201 946 264 1092 201 1031 b 349 799 201 860 264 799 z m 349 850 b 261 933 294 850 261 882 l 261 957 b 349 1040 261 1010 294 1040 b 436 957 403 1040 436 1010 l 436 933 b 349 850 436 882 403 850 z m 699 0 l 699 69 l 603 69 l 603 490 b 344 728 603 640 510 728 b 97 585 215 728 136 667 l 147 543 b 342 658 186 617 247 658 b 524 482 463 658 524 599 l 524 399 l 360 399 b 71 193 154 399 71 319 b 306 -17 71 61 157 -17 b 521 113 417 -17 489 33 l 528 113 l 528 88 b 618 0 532 35 557 0 z m 317 51 b 154 178 219 51 154 96 l 154 211 b 357 339 154 290 215 339 l 524 339 l 524 207 b 317 51 524 111 432 51 z "},"ã":{"ha":733,"x_min":0,"x_max":0,"o":"m 449 858 b 572 925 503 858 543 888 l 538 965 b 453 924 508 939 485 924 b 358 958 428 924 400 933 b 249 997 322 981 290 997 b 125 931 194 997 154 968 l 160 890 b 244 932 189 917 213 932 b 339 897 269 932 297 922 b 449 858 375 875 407 858 z m 699 0 l 699 69 l 603 69 l 603 490 b 344 728 603 640 510 728 b 97 585 215 728 136 667 l 147 543 b 342 658 186 617 247 658 b 524 482 463 658 524 599 l 524 399 l 360 399 b 71 193 154 399 71 319 b 306 -17 71 61 157 -17 b 521 113 417 -17 489 33 l 528 113 l 528 88 b 618 0 532 35 557 0 z m 317 51 b 154 178 219 51 154 96 l 154 211 b 357 339 154 290 215 339 l 524 339 l 524 207 b 317 51 524 111 432 51 z "},"ắ":{"ha":733,"x_min":0,"x_max":0,"o":"m 349 818 b 550 982 476 818 517 899 l 504 1004 l 478 963 b 349 878 444 907 415 878 b 219 963 282 878 253 907 l 193 1004 l 147 982 b 349 818 181 899 221 818 z m 499 1186 l 429 1221 l 297 994 l 347 969 z m 699 0 l 699 69 l 603 69 l 603 490 b 344 728 603 640 510 728 b 97 585 215 728 136 667 l 147 543 b 342 658 186 617 247 658 b 524 482 463 658 524 599 l 524 399 l 360 399 b 71 193 154 399 71 319 b 306 -17 71 61 157 -17 b 521 113 417 -17 489 33 l 528 113 l 528 88 b 618 0 532 35 557 0 z m 317 51 b 154 178 219 51 154 96 l 154 211 b 357 339 154 290 215 339 l 524 339 l 524 207 b 317 51 524 111 432 51 z "},"ặ":{"ha":733,"x_min":0,"x_max":0,"o":"m 329 -215 b 385 -164 367 -215 385 -194 l 385 -153 b 329 -101 385 -122 367 -101 b 274 -153 292 -101 274 -122 l 274 -164 b 329 -215 274 -194 292 -215 z m 349 833 b 549 1003 476 833 514 917 l 503 1025 l 476 982 b 349 897 442 924 415 897 b 221 982 282 897 256 924 l 194 1025 l 149 1003 b 349 833 183 917 221 833 z m 699 0 l 699 69 l 603 69 l 603 490 b 344 728 603 640 510 728 b 97 585 215 728 136 667 l 147 543 b 342 658 186 617 247 658 b 524 482 463 658 524 599 l 524 399 l 360 399 b 71 193 154 399 71 319 b 306 -17 71 61 157 -17 b 521 113 417 -17 489 33 l 528 113 l 528 88 b 618 0 532 35 557 0 z m 317 51 b 154 178 219 51 154 96 l 154 211 b 357 339 154 290 215 339 l 524 339 l 524 207 b 317 51 524 111 432 51 z "},"ằ":{"ha":733,"x_min":0,"x_max":0,"o":"m 349 818 b 550 982 476 818 517 899 l 504 1004 l 478 963 b 349 878 444 907 415 878 b 219 963 282 878 253 907 l 193 1004 l 147 982 b 349 818 181 899 221 818 z m 350 969 l 400 994 l 268 1221 l 199 1186 z m 699 0 l 699 69 l 603 69 l 603 490 b 344 728 603 640 510 728 b 97 585 215 728 136 667 l 147 543 b 342 658 186 617 247 658 b 524 482 463 658 524 599 l 524 399 l 360 399 b 71 193 154 399 71 319 b 306 -17 71 61 157 -17 b 521 113 417 -17 489 33 l 528 113 l 528 88 b 618 0 532 35 557 0 z m 317 51 b 154 178 219 51 154 96 l 154 211 b 357 339 154 290 215 339 l 524 339 l 524 207 b 317 51 524 111 432 51 z "},"ẳ":{"ha":733,"x_min":0,"x_max":0,"o":"m 349 818 b 550 982 476 818 517 899 l 504 1004 l 478 963 b 349 878 444 907 415 878 b 219 963 282 878 253 907 l 193 1004 l 147 982 b 349 818 181 899 221 818 z m 233 1146 l 400 1146 l 307 986 l 354 963 l 400 1029 b 458 1149 440 1085 458 1119 b 388 1204 458 1179 439 1204 l 233 1204 z m 699 0 l 699 69 l 603 69 l 603 490 b 344 728 603 640 510 728 b 97 585 215 728 136 667 l 147 543 b 342 658 186 617 247 658 b 524 482 463 658 524 599 l 524 399 l 360 399 b 71 193 154 399 71 319 b 306 -17 71 61 157 -17 b 521 113 417 -17 489 33 l 528 113 l 528 88 b 618 0 532 35 557 0 z m 317 51 b 154 178 219 51 154 96 l 154 211 b 357 339 154 290 215 339 l 524 339 l 524 207 b 317 51 524 111 432 51 z "},"ẵ":{"ha":733,"x_min":0,"x_max":0,"o":"m 349 818 b 550 982 476 818 517 899 l 504 1004 l 478 963 b 349 878 444 907 415 878 b 219 963 282 878 253 907 l 193 1004 l 147 982 b 349 818 181 899 221 818 z m 449 1067 b 571 1133 503 1067 543 1096 l 538 1171 b 454 1129 510 1144 485 1129 b 358 1164 429 1129 401 1139 b 249 1203 322 1185 292 1203 b 126 1136 194 1203 154 1174 l 160 1099 b 243 1140 188 1125 213 1140 b 339 1106 268 1140 296 1131 b 449 1067 375 1085 406 1067 z m 699 0 l 699 69 l 603 69 l 603 490 b 344 728 603 640 510 728 b 97 585 215 728 136 667 l 147 543 b 342 658 186 617 247 658 b 524 482 463 658 524 599 l 524 399 l 360 399 b 71 193 154 399 71 319 b 306 -17 71 61 157 -17 b 521 113 417 -17 489 33 l 528 113 l 528 88 b 618 0 532 35 557 0 z m 317 51 b 154 178 219 51 154 96 l 154 211 b 357 339 154 290 215 339 l 524 339 l 524 207 b 317 51 524 111 432 51 z "},"ấ":{"ha":733,"x_min":0,"x_max":0,"o":"m 693 1186 l 624 1221 l 492 994 l 540 969 z m 300 1029 l 138 843 l 179 813 l 349 976 l 518 813 l 560 843 l 397 1029 z m 699 0 l 699 69 l 603 69 l 603 490 b 344 728 603 640 510 728 b 97 585 215 728 136 667 l 147 543 b 342 658 186 617 247 658 b 524 482 463 658 524 599 l 524 399 l 360 399 b 71 193 154 399 71 319 b 306 -17 71 61 157 -17 b 521 113 417 -17 489 33 l 528 113 l 528 88 b 618 0 532 35 557 0 z m 317 51 b 154 178 219 51 154 96 l 154 211 b 357 339 154 290 215 339 l 524 339 l 524 207 b 317 51 524 111 432 51 z "},"ậ":{"ha":733,"x_min":0,"x_max":0,"o":"m 329 -215 b 385 -164 367 -215 385 -194 l 385 -153 b 329 -101 385 -122 367 -101 b 274 -153 292 -101 274 -122 l 274 -164 b 329 -215 274 -194 292 -215 z m 300 1050 l 136 857 l 181 825 l 349 993 l 517 825 l 561 857 l 397 1050 z m 699 0 l 699 69 l 603 69 l 603 490 b 344 728 603 640 510 728 b 97 585 215 728 136 667 l 147 543 b 342 658 186 617 247 658 b 524 482 463 658 524 599 l 524 399 l 360 399 b 71 193 154 399 71 319 b 306 -17 71 61 157 -17 b 521 113 417 -17 489 33 l 528 113 l 528 88 b 618 0 532 35 557 0 z m 317 51 b 154 178 219 51 154 96 l 154 211 b 357 339 154 290 215 339 l 524 339 l 524 207 b 317 51 524 111 432 51 z "},"ầ":{"ha":733,"x_min":0,"x_max":0,"o":"m 157 969 l 206 994 l 74 1221 l 4 1186 z m 300 1029 l 138 843 l 179 813 l 349 976 l 518 813 l 560 843 l 397 1029 z m 699 0 l 699 69 l 603 69 l 603 490 b 344 728 603 640 510 728 b 97 585 215 728 136 667 l 147 543 b 342 658 186 617 247 658 b 524 482 463 658 524 599 l 524 399 l 360 399 b 71 193 154 399 71 319 b 306 -17 71 61 157 -17 b 521 113 417 -17 489 33 l 528 113 l 528 88 b 618 0 532 35 557 0 z m 317 51 b 154 178 219 51 154 96 l 154 211 b 357 339 154 290 215 339 l 524 339 l 524 207 b 317 51 524 111 432 51 z "},"ẩ":{"ha":733,"x_min":0,"x_max":0,"o":"m 413 1146 l 592 1146 l 499 986 l 546 963 l 592 1029 b 650 1149 632 1085 650 1119 b 579 1204 650 1179 631 1204 l 413 1204 z m 300 1029 l 138 843 l 179 813 l 349 976 l 518 813 l 560 843 l 397 1029 z m 699 0 l 699 69 l 603 69 l 603 490 b 344 728 603 640 510 728 b 97 585 215 728 136 667 l 147 543 b 342 658 186 617 247 658 b 524 482 463 658 524 599 l 524 399 l 360 399 b 71 193 154 399 71 319 b 306 -17 71 61 157 -17 b 521 113 417 -17 489 33 l 528 113 l 528 88 b 618 0 532 35 557 0 z m 317 51 b 154 178 219 51 154 96 l 154 211 b 357 339 154 290 215 339 l 524 339 l 524 207 b 317 51 524 111 432 51 z "},"ẫ":{"ha":733,"x_min":0,"x_max":0,"o":"m 249 1208 b 126 1142 194 1208 154 1179 l 160 1104 b 243 1146 188 1131 213 1146 b 339 1111 268 1146 296 1136 b 449 1072 375 1090 406 1072 b 571 1139 503 1072 543 1101 l 538 1176 b 454 1135 510 1150 485 1135 b 358 1169 429 1135 401 1144 b 249 1208 322 1190 292 1208 z m 300 1029 l 138 843 l 179 813 l 349 976 l 518 813 l 560 843 l 397 1029 z m 699 0 l 699 69 l 603 69 l 603 490 b 344 728 603 640 510 728 b 97 585 215 728 136 667 l 147 543 b 342 658 186 617 247 658 b 524 482 463 658 524 599 l 524 399 l 360 399 b 71 193 154 399 71 319 b 306 -17 71 61 157 -17 b 521 113 417 -17 489 33 l 528 113 l 528 88 b 618 0 532 35 557 0 z m 317 51 b 154 178 219 51 154 96 l 154 211 b 357 339 154 290 215 339 l 524 339 l 524 207 b 317 51 524 111 432 51 z "},"æ":{"ha":1199,"x_min":0,"x_max":0,"o":"m 521 340 l 521 207 b 314 51 521 111 428 51 b 151 178 215 51 151 96 l 151 211 b 354 340 151 290 213 339 z m 600 401 l 600 408 b 826 661 600 558 689 661 b 1040 413 954 661 1040 563 l 1040 401 z m 832 53 b 600 306 686 53 600 157 l 600 340 l 1126 340 l 1126 378 b 833 728 1126 586 1011 728 b 574 557 696 728 601 643 l 568 557 b 343 728 554 638 496 728 b 94 585 213 728 133 665 l 144 543 b 342 660 185 619 244 660 b 521 482 458 660 521 600 l 521 401 l 357 401 b 68 190 154 401 68 319 b 301 -17 68 61 157 -17 b 564 154 449 -17 546 68 l 569 154 b 836 -17 596 67 693 -17 b 1106 157 964 -17 1061 51 l 1047 194 b 832 53 1007 101 935 53 z "},"ǽ":{"ha":1199,"x_min":0,"x_max":0,"o":"m 731 1031 l 658 1067 l 526 839 l 578 814 z m 521 340 l 521 207 b 314 51 521 111 428 51 b 151 178 215 51 151 96 l 151 211 b 354 340 151 290 213 339 z m 600 401 l 600 408 b 826 661 600 558 689 661 b 1040 413 954 661 1040 563 l 1040 401 z m 832 53 b 600 306 686 53 600 157 l 600 340 l 1126 340 l 1126 378 b 833 728 1126 586 1011 728 b 574 557 696 728 601 643 l 568 557 b 343 728 554 638 496 728 b 94 585 213 728 133 665 l 144 543 b 342 660 185 619 244 660 b 521 482 458 660 521 600 l 521 401 l 357 401 b 68 190 154 401 68 319 b 301 -17 68 61 157 -17 b 564 154 449 -17 546 68 l 569 154 b 836 -17 596 67 693 -17 b 1106 157 964 -17 1061 51 l 1047 194 b 832 53 1007 101 935 53 z "},"ć":{"ha":690,"x_min":0,"x_max":0,"o":"m 529 1031 l 457 1067 l 325 839 l 376 814 z m 379 -17 b 642 139 510 -17 596 44 l 583 178 b 379 54 543 99 476 54 b 157 306 235 54 157 156 l 157 406 b 379 657 157 556 235 657 b 565 538 472 657 532 614 l 632 571 b 379 728 590 664 510 728 b 72 356 185 728 72 590 b 379 -17 72 121 185 -17 z "},"č":{"ha":690,"x_min":0,"x_max":0,"o":"m 429 835 l 593 1028 l 549 1060 l 381 892 l 213 1060 l 168 1028 l 332 835 z m 379 -17 b 642 139 510 -17 596 44 l 583 178 b 379 54 543 99 476 54 b 157 306 235 54 157 156 l 157 406 b 379 657 157 556 235 657 b 565 538 472 657 532 614 l 632 571 b 379 728 590 664 510 728 b 72 356 185 728 72 590 b 379 -17 72 121 185 -17 z "},"ç":{"ha":689,"x_min":0,"x_max":0,"o":"m 379 728 b 72 356 185 728 72 590 b 350 -15 72 133 172 -3 l 331 -111 l 374 -115 b 465 -175 446 -124 465 -146 b 394 -229 465 -211 435 -229 b 306 -190 353 -229 324 -212 l 267 -233 b 394 -285 285 -258 328 -285 b 533 -176 472 -285 533 -244 b 439 -87 533 -119 493 -87 b 389 -94 424 -87 406 -90 l 386 -92 l 403 -15 b 642 139 521 -10 599 51 l 583 178 b 379 54 543 99 476 54 b 157 306 235 54 157 156 l 157 406 b 379 657 157 556 235 657 b 565 538 472 657 532 614 l 632 572 b 379 728 590 664 510 728 z "},"ĉ":{"ha":690,"x_min":0,"x_max":0,"o":"m 332 1050 l 168 857 l 213 825 l 381 993 l 549 825 l 593 857 l 429 1050 z m 379 -17 b 642 139 510 -17 596 44 l 583 178 b 379 54 543 99 476 54 b 157 306 235 54 157 156 l 157 406 b 379 657 157 556 235 657 b 565 538 472 657 532 614 l 632 571 b 379 728 590 664 510 728 b 72 356 185 728 72 590 b 379 -17 72 121 185 -17 z "},"ċ":{"ha":690,"x_min":0,"x_max":0,"o":"m 381 869 b 436 919 418 869 436 890 l 436 933 b 381 983 436 963 418 983 b 325 933 343 983 325 963 l 325 919 b 381 869 325 890 343 869 z m 379 -17 b 642 139 510 -17 596 44 l 583 178 b 379 54 543 99 476 54 b 157 306 235 54 157 156 l 157 406 b 379 657 157 556 235 657 b 565 538 472 657 532 614 l 632 571 b 379 728 590 664 510 728 b 72 356 185 728 72 590 b 379 -17 72 121 185 -17 z "},"ď":{"ha":797,"x_min":0,"x_max":0,"o":"m 878 1028 l 786 1028 l 767 776 l 821 776 z m 589 0 l 668 0 l 668 1028 l 589 1028 l 589 597 l 585 597 b 368 728 550 676 476 728 b 75 356 186 728 75 590 b 368 -17 75 121 186 -17 b 585 114 476 -17 547 35 l 589 114 z m 386 54 b 160 306 244 54 160 153 l 160 406 b 386 657 160 558 244 657 b 589 499 496 657 589 592 l 589 217 b 386 54 589 117 496 54 z "},"đ":{"ha":797,"x_min":0,"x_max":0,"o":"m 589 0 l 668 0 l 668 856 l 758 856 l 758 918 l 668 918 l 668 1028 l 589 1028 l 589 918 l 374 918 l 374 856 l 589 856 l 589 597 l 585 597 b 368 728 550 676 476 728 b 75 356 186 728 75 590 b 368 -17 75 121 186 -17 b 585 114 476 -17 547 35 l 589 114 z m 386 54 b 160 306 244 54 160 153 l 160 406 b 386 657 160 558 244 657 b 589 499 496 657 589 592 l 589 217 b 386 54 589 117 496 54 z "},"ð":{"ha":765,"x_min":0,"x_max":0,"o":"m 540 1046 l 407 950 b 303 1028 369 983 336 1008 l 179 1028 b 351 910 239 994 300 951 l 235 826 l 267 783 l 392 874 b 585 578 478 790 553 693 l 579 575 b 381 697 543 656 472 697 b 72 343 193 697 72 558 b 381 -17 72 125 193 -17 b 688 364 561 -17 688 117 b 449 914 688 606 571 794 l 574 1003 z m 381 51 b 158 299 249 51 158 147 l 158 382 b 381 629 158 535 249 629 b 603 382 513 629 603 533 l 603 299 b 381 51 603 147 513 51 z "},"é":{"ha":754,"x_min":0,"x_max":0,"o":"m 531 1031 l 458 1067 l 326 839 l 378 814 z m 383 -17 b 661 157 518 -17 617 53 l 603 196 b 388 53 564 103 489 53 b 156 306 242 53 156 157 l 156 340 l 682 340 l 682 378 b 382 728 682 586 564 728 b 72 356 193 728 72 589 b 383 -17 72 122 193 -17 z m 382 661 b 596 413 510 661 596 563 l 596 401 l 156 401 l 156 408 b 382 661 156 558 244 661 z "},"ĕ":{"ha":754,"x_min":0,"x_max":0,"o":"m 382 833 b 582 1003 510 833 547 917 l 536 1025 l 510 982 b 382 897 475 924 449 897 b 254 982 315 897 289 924 l 228 1025 l 182 1003 b 382 833 217 917 254 833 z m 383 -17 b 661 157 518 -17 617 53 l 603 196 b 388 53 564 103 489 53 b 156 306 242 53 156 157 l 156 340 l 682 340 l 682 378 b 382 728 682 586 564 728 b 72 356 193 728 72 589 b 383 -17 72 122 193 -17 z m 382 661 b 596 413 510 661 596 563 l 596 401 l 156 401 l 156 408 b 382 661 156 558 244 661 z "},"ě":{"ha":754,"x_min":0,"x_max":0,"o":"m 431 835 l 594 1028 l 550 1060 l 382 892 l 214 1060 l 169 1028 l 333 835 z m 383 -17 b 661 157 518 -17 617 53 l 603 196 b 388 53 564 103 489 53 b 156 306 242 53 156 157 l 156 340 l 682 340 l 682 378 b 382 728 682 586 564 728 b 72 356 193 728 72 589 b 383 -17 72 122 193 -17 z m 382 661 b 596 413 510 661 596 563 l 596 401 l 156 401 l 156 408 b 382 661 156 558 244 661 z "},"ê":{"ha":754,"x_min":0,"x_max":0,"o":"m 333 1050 l 169 857 l 214 825 l 382 993 l 550 825 l 594 857 l 431 1050 z m 383 -17 b 661 157 518 -17 617 53 l 603 196 b 388 53 564 103 489 53 b 156 306 242 53 156 157 l 156 340 l 682 340 l 682 378 b 382 728 682 586 564 728 b 72 356 193 728 72 589 b 383 -17 72 122 193 -17 z m 382 661 b 596 413 510 661 596 563 l 596 401 l 156 401 l 156 408 b 382 661 156 558 244 661 z "},"ë":{"ha":754,"x_min":0,"x_max":0,"o":"m 254 871 b 308 921 292 871 308 892 l 308 935 b 254 985 308 964 292 985 b 200 935 215 985 200 964 l 200 921 b 254 871 200 892 215 871 z m 510 871 b 564 921 549 871 564 892 l 564 935 b 510 985 564 964 549 985 b 456 935 472 985 456 964 l 456 921 b 510 871 456 892 472 871 z m 383 -17 b 661 157 518 -17 617 53 l 603 196 b 388 53 564 103 489 53 b 156 306 242 53 156 157 l 156 340 l 682 340 l 682 378 b 382 728 682 586 564 728 b 72 356 193 728 72 589 b 383 -17 72 122 193 -17 z m 382 661 b 596 413 510 661 596 563 l 596 401 l 156 401 l 156 408 b 382 661 156 558 244 661 z "},"ė":{"ha":754,"x_min":0,"x_max":0,"o":"m 382 869 b 438 919 419 869 438 890 l 438 933 b 382 983 438 963 419 983 b 326 933 344 983 326 963 l 326 919 b 382 869 326 890 344 869 z m 383 -17 b 661 157 518 -17 617 53 l 603 196 b 388 53 564 103 489 53 b 156 306 242 53 156 157 l 156 340 l 682 340 l 682 378 b 382 728 682 586 564 728 b 72 356 193 728 72 589 b 383 -17 72 122 193 -17 z m 382 661 b 596 413 510 661 596 563 l 596 401 l 156 401 l 156 408 b 382 661 156 558 244 661 z "},"ẹ":{"ha":754,"x_min":0,"x_max":0,"o":"m 388 -215 b 443 -164 425 -215 443 -194 l 443 -153 b 388 -101 443 -122 425 -101 b 332 -153 350 -101 332 -122 l 332 -164 b 388 -215 332 -194 350 -215 z m 383 -17 b 661 157 518 -17 617 53 l 603 196 b 388 53 564 103 489 53 b 156 306 242 53 156 157 l 156 340 l 682 340 l 682 378 b 382 728 682 586 564 728 b 72 356 193 728 72 589 b 383 -17 72 122 193 -17 z m 382 661 b 596 413 510 661 596 563 l 596 401 l 156 401 l 156 408 b 382 661 156 558 244 661 z "},"è":{"ha":754,"x_min":0,"x_max":0,"o":"m 385 814 l 438 839 l 306 1067 l 233 1031 z m 383 -17 b 661 157 518 -17 617 53 l 603 196 b 388 53 564 103 489 53 b 156 306 242 53 156 157 l 156 340 l 682 340 l 682 378 b 382 728 682 586 564 728 b 72 356 193 728 72 589 b 383 -17 72 122 193 -17 z m 382 661 b 596 413 510 661 596 563 l 596 401 l 156 401 l 156 408 b 382 661 156 558 244 661 z "},"ẻ":{"ha":754,"x_min":0,"x_max":0,"o":"m 271 986 l 447 986 l 356 829 l 404 806 l 451 872 b 508 992 492 926 508 963 b 438 1047 508 1022 489 1047 l 271 1047 z m 383 -17 b 661 157 518 -17 617 53 l 603 196 b 388 53 564 103 489 53 b 156 306 242 53 156 157 l 156 340 l 682 340 l 682 378 b 382 728 682 586 564 728 b 72 356 193 728 72 589 b 383 -17 72 122 193 -17 z m 382 661 b 596 413 510 661 596 563 l 596 401 l 156 401 l 156 408 b 382 661 156 558 244 661 z "},"ē":{"ha":754,"x_min":0,"x_max":0,"o":"m 193 896 l 571 896 l 571 964 l 193 964 z m 383 -17 b 661 157 518 -17 617 53 l 603 196 b 388 53 564 103 489 53 b 156 306 242 53 156 157 l 156 340 l 682 340 l 682 378 b 382 728 682 586 564 728 b 72 356 193 728 72 589 b 383 -17 72 122 193 -17 z m 382 661 b 596 413 510 661 596 563 l 596 401 l 156 401 l 156 408 b 382 661 156 558 244 661 z "},"ę":{"ha":754,"x_min":0,"x_max":0,"o":"m 471 -285 b 586 -235 531 -285 569 -262 l 546 -196 b 472 -229 531 -215 506 -229 b 414 -174 438 -229 414 -214 b 585 53 414 -93 507 -18 b 661 157 618 81 642 113 l 603 196 b 388 53 564 103 489 53 b 156 306 242 53 156 157 l 156 340 l 682 340 l 682 378 b 382 728 682 586 564 728 b 72 356 193 728 72 589 b 383 -17 72 122 193 -17 b 481 1 426 -17 457 -8 l 485 -4 b 349 -182 403 -56 349 -112 b 471 -285 349 -253 403 -285 z m 156 401 l 156 408 b 382 661 156 558 244 661 b 596 413 510 661 596 563 l 596 401 z "},"ẽ":{"ha":754,"x_min":0,"x_max":0,"o":"m 482 858 b 606 925 536 858 576 888 l 571 965 b 486 924 542 939 518 924 b 392 958 461 924 433 933 b 282 997 356 981 324 997 b 158 931 228 997 188 968 l 193 890 b 278 932 222 917 246 932 b 372 897 303 932 331 922 b 482 858 408 875 440 858 z m 383 -17 b 661 157 518 -17 617 53 l 603 196 b 388 53 564 103 489 53 b 156 306 242 53 156 157 l 156 340 l 682 340 l 682 378 b 382 728 682 586 564 728 b 72 356 193 728 72 589 b 383 -17 72 122 193 -17 z m 382 661 b 596 413 510 661 596 563 l 596 401 l 156 401 l 156 408 b 382 661 156 558 244 661 z "},"ế":{"ha":754,"x_min":0,"x_max":0,"o":"m 726 1186 l 657 1221 l 525 994 l 574 969 z m 333 1029 l 171 843 l 213 813 l 382 976 l 551 813 l 593 843 l 431 1029 z m 383 -17 b 661 157 518 -17 617 53 l 603 196 b 388 53 564 103 489 53 b 156 306 242 53 156 157 l 156 340 l 682 340 l 682 378 b 382 728 682 586 564 728 b 72 356 193 728 72 589 b 383 -17 72 122 193 -17 z m 382 661 b 596 413 510 661 596 563 l 596 401 l 156 401 l 156 408 b 382 661 156 558 244 661 z "},"ệ":{"ha":754,"x_min":0,"x_max":0,"o":"m 388 -215 b 443 -164 425 -215 443 -194 l 443 -153 b 388 -101 443 -122 425 -101 b 332 -153 350 -101 332 -122 l 332 -164 b 388 -215 332 -194 350 -215 z m 333 1050 l 169 857 l 214 825 l 382 993 l 550 825 l 594 857 l 431 1050 z m 383 -17 b 661 157 518 -17 617 53 l 603 196 b 388 53 564 103 489 53 b 156 306 242 53 156 157 l 156 340 l 682 340 l 682 378 b 382 728 682 586 564 728 b 72 356 193 728 72 589 b 383 -17 72 122 193 -17 z m 382 661 b 596 413 510 661 596 563 l 596 401 l 156 401 l 156 408 b 382 661 156 558 244 661 z "},"ề":{"ha":754,"x_min":0,"x_max":0,"o":"m 190 969 l 239 994 l 107 1221 l 38 1186 z m 333 1029 l 171 843 l 213 813 l 382 976 l 551 813 l 593 843 l 431 1029 z m 383 -17 b 661 157 518 -17 617 53 l 603 196 b 388 53 564 103 489 53 b 156 306 242 53 156 157 l 156 340 l 682 340 l 682 378 b 382 728 682 586 564 728 b 72 356 193 728 72 589 b 383 -17 72 122 193 -17 z m 382 661 b 596 413 510 661 596 563 l 596 401 l 156 401 l 156 408 b 382 661 156 558 244 661 z "},"ể":{"ha":754,"x_min":0,"x_max":0,"o":"m 446 1146 l 625 1146 l 532 986 l 579 963 l 625 1029 b 683 1149 665 1085 683 1119 b 613 1204 683 1179 664 1204 l 446 1204 z m 333 1029 l 171 843 l 213 813 l 382 976 l 551 813 l 593 843 l 431 1029 z m 383 -17 b 661 157 518 -17 617 53 l 603 196 b 388 53 564 103 489 53 b 156 306 242 53 156 157 l 156 340 l 682 340 l 682 378 b 382 728 682 586 564 728 b 72 356 193 728 72 589 b 383 -17 72 122 193 -17 z m 382 661 b 596 413 510 661 596 563 l 596 401 l 156 401 l 156 408 b 382 661 156 558 244 661 z "},"ễ":{"ha":754,"x_min":0,"x_max":0,"o":"m 282 1208 b 160 1142 228 1208 188 1179 l 193 1104 b 276 1146 221 1131 246 1146 b 372 1111 301 1146 329 1136 b 482 1072 408 1090 439 1072 b 604 1139 536 1072 576 1101 l 571 1176 b 488 1135 543 1150 518 1135 b 392 1169 463 1135 435 1144 b 282 1208 356 1190 325 1208 z m 333 1029 l 171 843 l 213 813 l 382 976 l 551 813 l 593 843 l 431 1029 z m 383 -17 b 661 157 518 -17 617 53 l 603 196 b 388 53 564 103 489 53 b 156 306 242 53 156 157 l 156 340 l 682 340 l 682 378 b 382 728 682 586 564 728 b 72 356 193 728 72 589 b 383 -17 72 122 193 -17 z m 382 661 b 596 413 510 661 596 563 l 596 401 l 156 401 l 156 408 b 382 661 156 558 244 661 z "},"ə":{"ha":754,"x_min":0,"x_max":0,"o":"m 72 376 l 72 339 b 372 -11 72 131 189 -11 b 682 361 561 -11 682 128 b 369 733 682 594 560 733 b 93 560 235 733 138 664 l 150 521 b 365 664 190 614 265 664 b 597 411 513 664 597 560 l 597 376 z m 158 315 l 597 315 l 597 308 b 372 56 597 158 510 56 b 158 304 244 56 158 154 z "},"ğ":{"ha":735,"x_min":0,"x_max":0,"o":"m 368 833 b 568 1003 496 833 533 917 l 522 1025 l 496 982 b 368 897 461 924 435 897 b 240 982 301 897 275 924 l 214 1025 l 168 1003 b 368 833 203 917 240 833 z m 713 -83 b 468 96 713 28 639 96 l 303 96 b 189 160 225 96 189 118 b 294 251 189 207 233 235 b 368 243 318 247 343 243 b 628 486 525 243 628 342 b 560 647 628 554 601 610 l 699 647 l 699 711 l 472 711 b 367 728 442 722 406 728 b 108 486 210 728 108 629 b 240 269 108 383 158 307 l 240 264 b 119 142 172 246 119 211 b 186 44 119 94 142 63 l 186 33 b 64 -117 110 11 64 -36 b 371 -294 64 -228 154 -294 b 713 -83 593 -294 713 -228 z m 368 307 b 193 464 260 307 193 364 l 193 508 b 368 664 193 606 258 664 b 543 508 476 664 543 606 l 543 464 b 368 307 543 364 476 307 z m 636 -89 b 413 -229 636 -185 550 -229 l 324 -229 b 139 -100 200 -229 139 -174 b 238 22 139 -39 176 1 l 468 22 b 636 -89 594 22 636 -21 z "},"ĝ":{"ha":735,"x_min":0,"x_max":0,"o":"m 713 -83 b 468 96 713 28 639 96 l 303 96 b 189 160 225 96 189 118 b 294 251 189 207 233 235 b 368 243 318 247 343 243 b 628 486 525 243 628 342 b 560 647 628 554 601 610 l 699 647 l 699 711 l 472 711 b 367 728 442 722 406 728 b 108 486 210 728 108 629 b 240 269 108 383 158 307 l 240 264 b 119 142 172 246 119 211 b 186 44 119 94 142 63 l 186 33 b 64 -117 110 11 64 -36 b 371 -294 64 -228 154 -294 b 713 -83 593 -294 713 -228 z m 368 307 b 193 464 260 307 193 364 l 193 508 b 368 664 193 606 258 664 b 543 508 476 664 543 606 l 543 464 b 368 307 543 364 476 307 z m 636 -89 b 413 -229 636 -185 550 -229 l 324 -229 b 139 -100 200 -229 139 -174 b 238 22 139 -39 176 1 l 468 22 b 636 -89 594 22 636 -21 z m 319 1050 l 156 857 l 200 825 l 368 993 l 536 825 l 581 857 l 417 1050 z "},"ģ":{"ha":733,"x_min":0,"x_max":0,"o":"m 368 829 b 425 881 406 829 425 849 l 425 893 b 379 942 425 918 411 938 b 447 1060 389 979 408 1018 l 389 1060 b 314 896 347 1018 314 954 l 314 881 b 368 829 314 849 332 829 z m 713 -83 b 468 96 713 28 639 96 l 303 96 b 189 160 225 96 189 118 b 294 251 189 207 233 235 b 368 243 318 247 343 243 b 628 486 525 243 628 342 b 553 663 628 558 600 619 l 553 731 l 697 731 l 697 800 l 575 800 b 510 728 529 800 510 771 l 510 693 b 367 728 471 715 422 728 b 108 486 210 728 108 629 b 240 269 108 383 158 307 l 240 264 b 119 142 172 246 119 211 b 186 44 119 94 142 63 l 186 33 b 64 -117 110 11 64 -36 b 371 -294 64 -228 154 -294 b 713 -83 593 -294 713 -228 z m 636 -89 b 413 -229 636 -185 550 -229 l 324 -229 b 139 -100 200 -229 139 -174 b 238 22 139 -39 176 1 l 468 22 b 636 -89 594 22 636 -21 z m 368 307 b 193 464 260 307 193 364 l 193 508 b 368 664 193 606 258 664 b 543 508 476 664 543 606 l 543 464 b 368 307 543 364 476 307 z "},"ġ":{"ha":733,"x_min":0,"x_max":0,"o":"m 368 869 b 424 919 406 869 424 890 l 424 933 b 368 983 424 963 406 983 b 313 933 331 983 313 963 l 313 919 b 368 869 313 890 331 869 z m 713 -83 b 468 96 713 28 639 96 l 303 96 b 189 160 225 96 189 118 b 294 251 189 207 233 235 b 368 243 318 247 343 243 b 628 486 525 243 628 342 b 553 663 628 558 600 619 l 553 731 l 697 731 l 697 800 l 575 800 b 510 728 529 800 510 771 l 510 693 b 367 728 471 715 422 728 b 108 486 210 728 108 629 b 240 269 108 383 158 307 l 240 264 b 119 142 172 246 119 211 b 186 44 119 94 142 63 l 186 33 b 64 -117 110 11 64 -36 b 371 -294 64 -228 154 -294 b 713 -83 593 -294 713 -228 z m 636 -89 b 413 -229 636 -185 550 -229 l 324 -229 b 139 -100 200 -229 139 -174 b 238 22 139 -39 176 1 l 468 22 b 636 -89 594 22 636 -21 z m 368 307 b 193 464 260 307 193 364 l 193 508 b 368 664 193 606 258 664 b 543 508 476 664 543 606 l 543 464 b 368 307 543 364 476 307 z "},"ħ":{"ha":782,"x_min":0,"x_max":0,"o":"m 208 0 l 208 500 b 400 657 208 606 301 657 b 583 443 518 657 583 588 l 583 0 l 663 0 l 663 457 b 421 728 663 631 572 728 b 213 599 307 728 243 672 l 208 599 l 208 856 l 424 856 l 424 918 l 208 918 l 208 1028 l 129 1028 l 129 918 l 39 918 l 39 856 l 129 856 l 129 0 z "},"ĥ":{"ha":782,"x_min":0,"x_max":0,"o":"m 121 1269 l -43 1076 l 1 1044 l 169 1213 l 338 1044 l 382 1076 l 218 1269 z m 129 0 l 208 0 l 208 500 b 401 657 208 606 301 657 b 583 443 519 657 583 588 l 583 0 l 663 0 l 663 457 b 422 728 663 631 574 728 b 213 599 308 728 244 672 l 208 599 l 208 1028 l 129 1028 z "},"ı":{"ha":338,"x_min":0,"x_max":0,"o":"m 208 0 l 208 711 l 129 711 l 129 0 z "},"í":{"ha":338,"x_min":0,"x_max":0,"o":"m 317 1031 l 244 1067 l 113 839 l 164 814 z m 208 0 l 208 711 l 129 711 l 129 0 z "},"ĭ":{"ha":338,"x_min":0,"x_max":0,"o":"m 168 833 b 368 1003 296 833 333 917 l 322 1025 l 296 982 b 168 897 261 924 235 897 b 40 982 101 897 75 924 l 14 1025 l -32 1003 b 168 833 3 917 40 833 z m 208 0 l 208 711 l 129 711 l 129 0 z "},"î":{"ha":338,"x_min":0,"x_max":0,"o":"m 119 1050 l -44 857 l 0 825 l 168 993 l 336 825 l 381 857 l 217 1050 z m 208 0 l 208 711 l 129 711 l 129 0 z "},"ï":{"ha":338,"x_min":0,"x_max":0,"o":"m 40 871 b 94 921 78 871 94 892 l 94 935 b 40 985 94 964 78 985 b -14 935 1 985 -14 964 l -14 921 b 40 871 -14 892 1 871 z m 296 871 b 350 921 335 871 350 892 l 350 935 b 296 985 350 964 335 985 b 242 935 258 985 242 964 l 242 921 b 296 871 242 892 258 871 z m 208 0 l 208 711 l 129 711 l 129 0 z "},"ị":{"ha":338,"x_min":0,"x_max":0,"o":"m 168 -215 b 224 -164 206 -215 224 -194 l 224 -153 b 168 -101 224 -122 206 -101 b 113 -153 131 -101 113 -122 l 113 -164 b 168 -215 113 -194 131 -215 z m 168 904 b 222 954 206 904 222 925 l 222 968 b 168 1018 222 997 206 1018 b 114 968 131 1018 114 997 l 114 954 b 168 904 114 925 131 904 z m 129 0 l 208 0 l 208 711 l 129 711 z "},"ì":{"ha":338,"x_min":0,"x_max":0,"o":"m 171 814 l 224 839 l 92 1067 l 19 1031 z m 208 0 l 208 711 l 129 711 l 129 0 z "},"ỉ":{"ha":338,"x_min":0,"x_max":0,"o":"m 57 986 l 233 986 l 142 829 l 190 806 l 238 872 b 294 992 278 926 294 963 b 224 1047 294 1022 275 1047 l 57 1047 z m 208 0 l 208 711 l 129 711 l 129 0 z "},"ī":{"ha":338,"x_min":0,"x_max":0,"o":"m -21 896 l 357 896 l 357 964 l -21 964 z m 208 0 l 208 711 l 129 711 l 129 0 z "},"į":{"ha":338,"x_min":0,"x_max":0,"o":"m 129 0 l 144 0 l 146 -3 b 11 -183 67 -64 11 -115 b 135 -285 11 -251 65 -285 b 250 -235 193 -285 232 -262 l 208 -196 b 135 -229 193 -215 168 -229 b 76 -175 100 -229 76 -214 b 208 0 76 -131 104 -96 l 208 711 l 129 711 z m 168 904 b 222 954 207 904 222 925 l 222 968 b 168 1018 222 997 207 1018 b 115 968 131 1018 115 997 l 115 954 b 168 904 115 925 131 904 z "},"ĩ":{"ha":338,"x_min":0,"x_max":0,"o":"m 268 858 b 392 925 322 858 363 888 l 357 965 b 272 924 328 939 304 924 b 178 958 247 924 219 933 b 68 997 142 981 110 997 b -56 931 14 997 -26 968 l -21 890 b 64 932 8 917 32 932 b 158 897 89 932 117 922 b 268 858 194 875 226 858 z m 208 0 l 208 711 l 129 711 l 129 0 z "},"ĳ":{"ha":675,"x_min":0,"x_max":0,"o":"m 467 -208 l 349 -208 l 349 -278 l 435 -278 b 546 -160 511 -278 546 -232 l 546 711 l 467 711 z m 506 904 b 560 954 543 904 560 925 l 560 968 b 506 1018 560 997 543 1018 b 451 968 468 1018 451 997 l 451 954 b 506 904 451 925 468 904 z m 168 904 b 222 954 206 904 222 925 l 222 968 b 168 1018 222 997 206 1018 b 114 968 131 1018 114 997 l 114 954 b 168 904 114 925 131 904 z m 129 0 l 208 0 l 208 711 l 129 711 z "},"ȷ":{"ha":338,"x_min":0,"x_max":0,"o":"m 11 -278 l 97 -278 b 208 -160 174 -278 208 -232 l 208 711 l 129 711 l 129 -208 l 11 -208 z "},"ĵ":{"ha":338,"x_min":0,"x_max":0,"o":"m 119 1050 l -44 857 l 0 825 l 168 993 l 336 825 l 381 857 l 217 1050 z m 11 -278 l 97 -278 b 208 -160 174 -278 208 -232 l 208 711 l 129 711 l 129 -208 l 11 -208 z "},"ķ":{"ha":713,"x_min":0,"x_max":0,"o":"m 393 -92 b 338 -143 356 -92 338 -111 l 338 -156 b 382 -204 338 -181 351 -200 b 315 -322 374 -243 353 -282 l 374 -322 b 449 -158 415 -282 449 -217 l 449 -143 b 393 -92 449 -111 431 -92 z m 129 0 l 208 0 l 208 258 l 321 372 l 590 0 l 688 0 l 378 422 l 657 711 l 560 711 l 324 467 l 213 349 l 208 349 l 208 1028 l 129 1028 z "},"ĸ":{"ha":713,"x_min":0,"x_max":0,"o":"m 590 0 l 688 0 l 379 419 l 664 711 l 567 711 l 325 463 l 213 344 l 208 344 l 208 711 l 129 711 l 129 0 l 208 0 l 208 253 l 321 368 z "},"ĺ":{"ha":367,"x_min":0,"x_max":0,"o":"m 317 1308 l 244 1344 l 113 1117 l 164 1092 z m 318 0 l 318 69 l 208 69 l 208 1028 l 129 1028 l 129 86 b 217 0 129 35 160 0 z "},"ľ":{"ha":367,"x_min":0,"x_max":0,"o":"m 419 1028 l 328 1028 l 308 776 l 363 776 z m 318 0 l 318 69 l 208 69 l 208 1028 l 129 1028 l 129 86 b 217 0 129 35 160 0 z "},"ļ":{"ha":367,"x_min":0,"x_max":0,"o":"m 226 -92 b 171 -143 189 -92 171 -111 l 171 -156 b 215 -204 171 -181 185 -200 b 149 -322 207 -243 186 -282 l 207 -322 b 282 -158 249 -282 282 -217 l 282 -143 b 226 -92 282 -111 264 -92 z m 318 0 l 318 69 l 208 69 l 208 1028 l 129 1028 l 129 86 b 217 0 129 35 160 0 z "},"ŀ":{"ha":453,"x_min":0,"x_max":0,"o":"m 393 343 b 449 393 431 343 449 364 l 449 407 b 393 457 449 436 431 457 b 338 407 356 457 338 436 l 338 393 b 393 343 338 364 356 343 z m 318 0 l 318 69 l 208 69 l 208 1028 l 129 1028 l 129 86 b 217 0 129 35 160 0 z "},"ł":{"ha":375,"x_min":0,"x_max":0,"o":"m 322 69 l 213 69 l 213 492 l 350 538 l 350 606 l 213 561 l 213 1028 l 133 1028 l 133 533 l 33 501 l 33 433 l 133 465 l 133 86 b 221 0 133 35 164 0 l 322 0 z "},"ń":{"ha":782,"x_min":0,"x_max":0,"o":"m 546 1031 l 474 1067 l 342 839 l 393 814 z m 208 0 l 208 500 b 401 657 208 606 301 657 b 583 443 519 657 583 588 l 583 0 l 663 0 l 663 457 b 422 728 663 631 574 728 b 213 599 308 728 244 672 l 208 599 l 208 711 l 129 711 l 129 0 z "},"ň":{"ha":782,"x_min":0,"x_max":0,"o":"m 446 835 l 610 1028 l 565 1060 l 397 892 l 229 1060 l 185 1028 l 349 835 z m 208 0 l 208 500 b 401 657 208 606 301 657 b 583 443 519 657 583 588 l 583 0 l 663 0 l 663 457 b 422 728 663 631 574 728 b 213 599 308 728 244 672 l 208 599 l 208 711 l 129 711 l 129 0 z "},"ņ":{"ha":782,"x_min":0,"x_max":0,"o":"m 396 -92 b 340 -143 358 -92 340 -111 l 340 -156 b 385 -204 340 -181 354 -200 b 318 -322 376 -243 356 -282 l 376 -322 b 451 -158 418 -282 451 -217 l 451 -143 b 396 -92 451 -111 433 -92 z m 208 0 l 208 500 b 401 657 208 606 301 657 b 583 443 519 657 583 588 l 583 0 l 663 0 l 663 457 b 422 728 663 631 574 728 b 213 599 308 728 244 672 l 208 599 l 208 711 l 129 711 l 129 0 z "},"ñ":{"ha":782,"x_min":0,"x_max":0,"o":"m 497 858 b 621 925 551 858 592 888 l 586 965 b 501 924 557 939 533 924 b 407 958 476 924 449 933 b 297 997 371 981 339 997 b 174 931 243 997 203 968 l 208 890 b 293 932 238 917 261 932 b 388 897 318 932 346 922 b 497 858 424 875 456 858 z m 208 0 l 208 500 b 401 657 208 606 301 657 b 583 443 519 657 583 588 l 583 0 l 663 0 l 663 457 b 422 728 663 631 574 728 b 213 599 308 728 244 672 l 208 599 l 208 711 l 129 711 l 129 0 z "},"ŉ":{"ha":1143,"x_min":0,"x_max":0,"o":"m 569 0 l 569 500 b 763 657 569 606 663 657 b 944 443 881 657 944 588 l 944 0 l 1024 0 l 1024 457 b 783 728 1024 631 935 728 b 574 599 669 728 606 672 l 569 599 l 569 711 l 490 711 l 490 0 z m 186 1042 b 119 978 140 1042 119 1015 l 119 961 b 169 904 119 932 135 908 b 67 722 158 843 128 785 l 133 722 b 253 960 206 785 253 883 l 253 978 b 186 1042 253 1015 232 1042 z "},"ŋ":{"ha":782,"x_min":0,"x_max":0,"o":"m 467 -278 l 553 -278 b 663 -162 629 -278 663 -233 l 663 457 b 422 728 663 631 574 728 b 213 599 308 728 244 672 l 208 599 l 208 711 l 129 711 l 129 0 l 208 0 l 208 500 b 401 657 208 606 301 657 b 583 443 519 657 583 588 l 583 -208 l 467 -208 z "},"ó":{"ha":764,"x_min":0,"x_max":0,"o":"m 531 1031 l 458 1067 l 326 839 l 378 814 z m 382 -17 b 692 356 569 -17 692 122 b 382 728 692 589 569 728 b 72 356 194 728 72 589 b 382 -17 72 122 194 -17 z m 382 54 b 157 311 244 54 157 146 l 157 400 b 382 657 157 567 244 657 b 607 400 519 657 607 565 l 607 311 b 382 54 607 144 519 54 z "},"ŏ":{"ha":764,"x_min":0,"x_max":0,"o":"m 382 833 b 582 1003 510 833 547 917 l 536 1025 l 510 982 b 382 897 475 924 449 897 b 254 982 315 897 289 924 l 228 1025 l 182 1003 b 382 833 217 917 254 833 z m 382 -17 b 692 356 569 -17 692 122 b 382 728 692 589 569 728 b 72 356 194 728 72 589 b 382 -17 72 122 194 -17 z m 382 54 b 157 311 244 54 157 146 l 157 400 b 382 657 157 567 244 657 b 607 400 519 657 607 565 l 607 311 b 382 54 607 144 519 54 z "},"ô":{"ha":764,"x_min":0,"x_max":0,"o":"m 333 1050 l 169 857 l 214 825 l 382 993 l 550 825 l 594 857 l 431 1050 z m 382 -17 b 692 356 569 -17 692 122 b 382 728 692 589 569 728 b 72 356 194 728 72 589 b 382 -17 72 122 194 -17 z m 382 54 b 157 311 244 54 157 146 l 157 400 b 382 657 157 567 244 657 b 607 400 519 657 607 565 l 607 311 b 382 54 607 144 519 54 z "},"ö":{"ha":764,"x_min":0,"x_max":0,"o":"m 254 871 b 308 921 292 871 308 892 l 308 935 b 254 985 308 964 292 985 b 200 935 215 985 200 964 l 200 921 b 254 871 200 892 215 871 z m 510 871 b 564 921 549 871 564 892 l 564 935 b 510 985 564 964 549 985 b 456 935 472 985 456 964 l 456 921 b 510 871 456 892 472 871 z m 382 -17 b 692 356 569 -17 692 122 b 382 728 692 589 569 728 b 72 356 194 728 72 589 b 382 -17 72 122 194 -17 z m 382 54 b 157 311 244 54 157 146 l 157 400 b 382 657 157 567 244 657 b 607 400 519 657 607 565 l 607 311 b 382 54 607 144 519 54 z "},"ọ":{"ha":764,"x_min":0,"x_max":0,"o":"m 382 -215 b 438 -164 419 -215 438 -194 l 438 -153 b 382 -101 438 -122 419 -101 b 326 -153 344 -101 326 -122 l 326 -164 b 382 -215 326 -194 344 -215 z m 382 -17 b 692 356 569 -17 692 122 b 382 728 692 589 569 728 b 72 356 194 728 72 589 b 382 -17 72 122 194 -17 z m 382 54 b 157 311 244 54 157 146 l 157 400 b 382 657 157 567 244 657 b 607 400 519 657 607 565 l 607 311 b 382 54 607 144 519 54 z "},"ò":{"ha":764,"x_min":0,"x_max":0,"o":"m 385 814 l 438 839 l 306 1067 l 233 1031 z m 382 -17 b 692 356 569 -17 692 122 b 382 728 692 589 569 728 b 72 356 194 728 72 589 b 382 -17 72 122 194 -17 z m 382 54 b 157 311 244 54 157 146 l 157 400 b 382 657 157 567 244 657 b 607 400 519 657 607 565 l 607 311 b 382 54 607 144 519 54 z "},"ỏ":{"ha":764,"x_min":0,"x_max":0,"o":"m 271 986 l 447 986 l 356 829 l 404 806 l 451 872 b 508 992 492 926 508 963 b 438 1047 508 1022 489 1047 l 271 1047 z m 382 -17 b 692 356 569 -17 692 122 b 382 728 692 589 569 728 b 72 356 194 728 72 589 b 382 -17 72 122 194 -17 z m 382 54 b 157 311 244 54 157 146 l 157 400 b 382 657 157 567 244 657 b 607 400 519 657 607 565 l 607 311 b 382 54 607 144 519 54 z "},"ő":{"ha":764,"x_min":0,"x_max":0,"o":"m 429 1032 l 360 1065 l 228 839 l 276 814 z m 651 1032 l 582 1065 l 450 839 l 499 814 z m 382 -17 b 692 356 569 -17 692 122 b 382 728 692 589 569 728 b 72 356 194 728 72 589 b 382 -17 72 122 194 -17 z m 382 54 b 157 311 244 54 157 146 l 157 400 b 382 657 157 567 244 657 b 607 400 519 657 607 565 l 607 311 b 382 54 607 144 519 54 z "},"ō":{"ha":764,"x_min":0,"x_max":0,"o":"m 193 896 l 571 896 l 571 964 l 193 964 z m 382 -17 b 692 356 569 -17 692 122 b 382 728 692 589 569 728 b 72 356 194 728 72 589 b 382 -17 72 122 194 -17 z m 382 54 b 157 311 244 54 157 146 l 157 400 b 382 657 157 567 244 657 b 607 400 519 657 607 565 l 607 311 b 382 54 607 144 519 54 z "},"ø":{"ha":772,"x_min":0,"x_max":0,"o":"m 96 -49 l 182 60 b 386 -17 235 10 304 -17 b 696 356 574 -17 696 122 b 626 610 696 461 671 547 l 724 731 l 679 765 l 589 653 b 386 728 536 701 468 728 b 76 356 199 728 76 589 b 144 103 76 251 101 165 l 50 -14 z m 386 54 b 228 115 321 54 267 75 l 578 550 b 611 400 600 511 611 460 l 611 311 b 386 54 611 144 524 54 z m 161 311 l 161 400 b 386 657 161 567 249 657 b 543 597 451 657 506 636 l 193 163 b 161 311 172 203 161 253 z "},"ǿ":{"ha":776,"x_min":0,"x_max":0,"o":"m 538 1031 l 465 1067 l 333 839 l 385 814 z m 96 -49 l 182 60 b 386 -17 235 10 304 -17 b 696 356 574 -17 696 122 b 626 610 696 461 671 547 l 724 731 l 679 765 l 589 653 b 386 728 536 701 468 728 b 76 356 199 728 76 589 b 144 103 76 251 101 165 l 50 -14 z m 386 54 b 228 115 321 54 267 75 l 578 550 b 611 400 600 511 611 460 l 611 311 b 386 54 611 144 524 54 z m 161 311 l 161 400 b 386 657 161 567 249 657 b 543 597 451 657 506 636 l 193 163 b 161 311 172 203 161 253 z "},"õ":{"ha":764,"x_min":0,"x_max":0,"o":"m 482 858 b 606 925 536 858 576 888 l 571 965 b 486 924 542 939 518 924 b 392 958 461 924 433 933 b 282 997 356 981 324 997 b 158 931 228 997 188 968 l 193 890 b 278 932 222 917 246 932 b 372 897 303 932 331 922 b 482 858 408 875 440 858 z m 382 -17 b 692 356 569 -17 692 122 b 382 728 692 589 569 728 b 72 356 194 728 72 589 b 382 -17 72 122 194 -17 z m 382 54 b 157 311 244 54 157 146 l 157 400 b 382 657 157 567 244 657 b 607 400 519 657 607 565 l 607 311 b 382 54 607 144 519 54 z "},"ơ":{"ha":764,"x_min":0,"x_max":0,"o":"m 619 861 l 619 711 l 488 711 b 382 728 457 722 418 728 b 72 356 194 728 72 589 b 382 -17 72 122 194 -17 b 692 356 569 -17 692 122 b 576 660 692 497 649 597 l 622 660 b 690 729 675 660 690 688 l 690 861 z m 382 54 b 157 311 244 54 157 146 l 157 400 b 382 657 157 567 244 657 b 607 400 519 657 607 565 l 607 311 b 382 54 607 144 519 54 z "},"ớ":{"ha":764,"x_min":0,"x_max":0,"o":"m 532 1031 l 460 1067 l 328 839 l 379 814 z m 619 861 l 619 711 l 488 711 b 382 728 457 722 418 728 b 72 356 194 728 72 589 b 382 -17 72 122 194 -17 b 692 356 569 -17 692 122 b 576 660 692 497 649 597 l 622 660 b 690 729 675 660 690 688 l 690 861 z m 382 54 b 157 311 244 54 157 146 l 157 400 b 382 657 157 567 244 657 b 607 400 519 657 607 565 l 607 311 b 382 54 607 144 519 54 z "},"ợ":{"ha":764,"x_min":0,"x_max":0,"o":"m 383 -215 b 439 -164 421 -215 439 -194 l 439 -153 b 383 -101 439 -122 421 -101 b 328 -153 346 -101 328 -122 l 328 -164 b 383 -215 328 -194 346 -215 z m 619 861 l 619 711 l 488 711 b 382 728 457 722 418 728 b 72 356 194 728 72 589 b 382 -17 72 122 194 -17 b 692 356 569 -17 692 122 b 576 660 692 497 649 597 l 622 660 b 690 729 675 660 690 688 l 690 861 z m 382 54 b 157 311 244 54 157 146 l 157 400 b 382 657 157 567 244 657 b 607 400 519 657 607 565 l 607 311 b 382 54 607 144 519 54 z "},"ờ":{"ha":764,"x_min":0,"x_max":0,"o":"m 386 814 l 439 839 l 307 1067 l 235 1031 z m 619 861 l 619 711 l 488 711 b 382 728 457 722 418 728 b 72 356 194 728 72 589 b 382 -17 72 122 194 -17 b 692 356 569 -17 692 122 b 576 660 692 497 649 597 l 622 660 b 690 729 675 660 690 688 l 690 861 z m 382 54 b 157 311 244 54 157 146 l 157 400 b 382 657 157 567 244 657 b 607 400 519 657 607 565 l 607 311 b 382 54 607 144 519 54 z "},"ở":{"ha":764,"x_min":0,"x_max":0,"o":"m 272 986 l 449 986 l 357 829 l 406 806 l 453 872 b 510 992 493 926 510 963 b 439 1047 510 1022 490 1047 l 272 1047 z m 619 861 l 619 711 l 488 711 b 382 728 457 722 418 728 b 72 356 194 728 72 589 b 382 -17 72 122 194 -17 b 692 356 569 -17 692 122 b 576 660 692 497 649 597 l 622 660 b 690 729 675 660 690 688 l 690 861 z m 382 54 b 157 311 244 54 157 146 l 157 400 b 382 657 157 567 244 657 b 607 400 519 657 607 565 l 607 311 b 382 54 607 144 519 54 z "},"ỡ":{"ha":764,"x_min":0,"x_max":0,"o":"m 453 863 b 572 928 504 863 544 890 l 538 968 b 454 928 510 942 485 928 b 371 958 429 928 407 938 b 269 993 336 978 308 993 b 150 928 218 993 178 965 l 185 888 b 268 928 213 914 238 928 b 351 897 293 928 315 918 b 453 863 386 878 414 863 z m 619 861 l 619 711 l 488 711 b 382 728 457 722 418 728 b 72 356 194 728 72 589 b 382 -17 72 122 194 -17 b 692 356 569 -17 692 122 b 576 660 692 497 649 597 l 622 660 b 690 729 675 660 690 688 l 690 861 z m 382 54 b 157 311 244 54 157 146 l 157 400 b 382 657 157 567 244 657 b 607 400 519 657 607 565 l 607 311 b 382 54 607 144 519 54 z "},"ố":{"ha":764,"x_min":0,"x_max":0,"o":"m 726 1186 l 657 1221 l 525 994 l 574 969 z m 333 1029 l 171 843 l 213 813 l 382 976 l 551 813 l 593 843 l 431 1029 z m 382 -17 b 692 356 569 -17 692 122 b 382 728 692 589 569 728 b 72 356 194 728 72 589 b 382 -17 72 122 194 -17 z m 382 54 b 157 311 244 54 157 146 l 157 400 b 382 657 157 567 244 657 b 607 400 519 657 607 565 l 607 311 b 382 54 607 144 519 54 z "},"ộ":{"ha":764,"x_min":0,"x_max":0,"o":"m 382 -215 b 438 -164 419 -215 438 -194 l 438 -153 b 382 -101 438 -122 419 -101 b 326 -153 344 -101 326 -122 l 326 -164 b 382 -215 326 -194 344 -215 z m 333 1050 l 169 857 l 214 825 l 382 993 l 550 825 l 594 857 l 431 1050 z m 382 -17 b 692 356 569 -17 692 122 b 382 728 692 589 569 728 b 72 356 194 728 72 589 b 382 -17 72 122 194 -17 z m 382 54 b 157 311 244 54 157 146 l 157 400 b 382 657 157 567 244 657 b 607 400 519 657 607 565 l 607 311 b 382 54 607 144 519 54 z "},"ồ":{"ha":764,"x_min":0,"x_max":0,"o":"m 190 969 l 239 994 l 107 1221 l 38 1186 z m 333 1029 l 171 843 l 213 813 l 382 976 l 551 813 l 593 843 l 431 1029 z m 382 -17 b 692 356 569 -17 692 122 b 382 728 692 589 569 728 b 72 356 194 728 72 589 b 382 -17 72 122 194 -17 z m 382 54 b 157 311 244 54 157 146 l 157 400 b 382 657 157 567 244 657 b 607 400 519 657 607 565 l 607 311 b 382 54 607 144 519 54 z "},"ổ":{"ha":764,"x_min":0,"x_max":0,"o":"m 446 1146 l 625 1146 l 532 986 l 579 963 l 625 1029 b 683 1149 665 1085 683 1119 b 613 1204 683 1179 664 1204 l 446 1204 z m 333 1029 l 171 843 l 213 813 l 382 976 l 551 813 l 593 843 l 431 1029 z m 382 -17 b 692 356 569 -17 692 122 b 382 728 692 589 569 728 b 72 356 194 728 72 589 b 382 -17 72 122 194 -17 z m 382 54 b 157 311 244 54 157 146 l 157 400 b 382 657 157 567 244 657 b 607 400 519 657 607 565 l 607 311 b 382 54 607 144 519 54 z "},"ỗ":{"ha":764,"x_min":0,"x_max":0,"o":"m 282 1208 b 160 1142 228 1208 188 1179 l 193 1104 b 276 1146 221 1131 246 1146 b 372 1111 301 1146 329 1136 b 482 1072 408 1090 439 1072 b 604 1139 536 1072 576 1101 l 571 1176 b 488 1135 543 1150 518 1135 b 392 1169 463 1135 435 1144 b 282 1208 356 1190 325 1208 z m 333 1029 l 171 843 l 213 813 l 382 976 l 551 813 l 593 843 l 431 1029 z m 382 -17 b 692 356 569 -17 692 122 b 382 728 692 589 569 728 b 72 356 194 728 72 589 b 382 -17 72 122 194 -17 z m 382 54 b 157 311 244 54 157 146 l 157 400 b 382 657 157 567 244 657 b 607 400 519 657 607 565 l 607 311 b 382 54 607 144 519 54 z "},"œ":{"ha":1290,"x_min":0,"x_max":0,"o":"m 383 54 b 157 311 244 54 157 146 l 157 400 b 383 657 157 567 244 657 b 608 400 519 657 608 567 l 608 311 b 383 54 608 146 519 54 z m 692 401 l 692 408 b 919 661 692 558 781 661 b 1132 413 1047 661 1132 563 l 1132 401 z m 926 -17 b 1197 157 1058 -17 1157 60 l 1139 196 b 926 53 1099 103 1026 53 b 692 306 776 53 692 154 l 692 340 l 1218 340 l 1218 378 b 919 728 1218 586 1100 728 b 656 546 789 728 696 660 l 650 546 b 383 728 608 664 513 728 b 72 356 194 728 72 589 b 383 -17 72 122 194 -17 b 649 167 511 -17 610 54 l 654 167 b 926 -17 694 53 788 -17 z "},"ŕ":{"ha":496,"x_min":0,"x_max":0,"o":"m 454 1031 l 382 1067 l 250 839 l 301 814 z m 208 0 l 208 486 b 411 633 208 578 293 633 l 474 633 l 474 711 l 426 711 b 214 583 304 711 242 650 l 208 583 l 208 711 l 129 711 l 129 0 z "},"ř":{"ha":496,"x_min":0,"x_max":0,"o":"m 354 835 l 518 1028 l 474 1060 l 306 892 l 138 1060 l 93 1028 l 257 835 z m 208 0 l 208 486 b 411 633 208 578 293 633 l 474 633 l 474 711 l 426 711 b 214 583 304 711 242 650 l 208 583 l 208 711 l 129 711 l 129 0 z "},"ŗ":{"ha":496,"x_min":0,"x_max":0,"o":"m 171 -92 b 115 -143 133 -92 115 -111 l 115 -156 b 160 -204 115 -181 129 -200 b 93 -322 151 -243 131 -282 l 151 -322 b 226 -158 193 -282 226 -217 l 226 -143 b 171 -92 226 -111 208 -92 z m 208 0 l 208 486 b 411 633 208 578 293 633 l 474 633 l 474 711 l 426 711 b 214 583 304 711 242 650 l 208 583 l 208 711 l 129 711 l 129 0 z "},"ś":{"ha":663,"x_min":0,"x_max":0,"o":"m 471 1031 l 399 1067 l 267 839 l 318 814 z m 331 -17 b 583 194 488 -17 583 63 b 371 393 583 308 515 371 l 314 401 b 161 532 213 418 161 450 b 322 660 161 613 221 660 b 517 569 421 660 479 614 l 569 618 b 326 728 517 682 444 728 b 85 528 189 728 85 661 b 303 329 85 400 174 349 l 361 319 b 507 186 464 304 507 261 b 336 51 507 100 444 51 b 115 165 242 51 174 89 l 57 119 b 331 -17 121 32 207 -17 z "},"š":{"ha":663,"x_min":0,"x_max":0,"o":"m 371 835 l 535 1028 l 490 1060 l 322 892 l 154 1060 l 110 1028 l 274 835 z m 331 -17 b 583 194 488 -17 583 63 b 371 393 583 308 515 371 l 314 401 b 161 532 213 418 161 450 b 322 660 161 613 221 660 b 517 569 421 660 479 614 l 569 618 b 326 728 517 682 444 728 b 85 528 189 728 85 661 b 303 329 85 400 174 349 l 361 319 b 507 186 464 304 507 261 b 336 51 507 100 444 51 b 115 165 242 51 174 89 l 57 119 b 331 -17 121 32 207 -17 z "},"ş":{"ha":663,"x_min":0,"x_max":0,"o":"m 485 -176 b 392 -87 485 -119 446 -87 b 342 -94 376 -87 358 -90 l 339 -92 l 356 -15 b 583 194 496 -8 583 69 b 371 393 583 308 515 371 l 314 401 b 161 532 213 417 161 450 b 322 660 161 613 221 660 b 517 569 421 660 479 614 l 569 618 b 326 728 517 682 444 728 b 85 528 189 728 85 661 b 303 329 85 400 174 349 l 361 319 b 507 186 464 304 507 261 b 336 51 507 100 444 51 b 115 165 242 51 174 89 l 57 119 b 303 -15 117 39 194 -8 l 283 -111 l 326 -115 b 417 -175 399 -124 417 -146 b 347 -229 417 -211 388 -229 b 258 -190 306 -229 276 -212 l 219 -233 b 347 -285 238 -258 281 -285 b 485 -176 425 -285 485 -244 z "},"ŝ":{"ha":663,"x_min":0,"x_max":0,"o":"m 274 1050 l 110 857 l 154 825 l 322 993 l 490 825 l 535 857 l 371 1050 z m 331 -17 b 583 194 488 -17 583 63 b 371 393 583 308 515 371 l 314 401 b 161 532 213 418 161 450 b 322 660 161 613 221 660 b 517 569 421 660 479 614 l 569 618 b 326 728 517 682 444 728 b 85 528 189 728 85 661 b 303 329 85 400 174 349 l 361 319 b 507 186 464 304 507 261 b 336 51 507 100 444 51 b 115 165 242 51 174 89 l 57 119 b 331 -17 121 32 207 -17 z "},"ș":{"ha":663,"x_min":0,"x_max":0,"o":"m 332 -92 b 276 -143 294 -92 276 -111 l 276 -156 b 321 -204 276 -181 290 -200 b 254 -322 313 -243 292 -282 l 313 -322 b 388 -158 354 -282 388 -217 l 388 -143 b 332 -92 388 -111 369 -92 z m 331 -17 b 583 194 488 -17 583 63 b 371 393 583 308 515 371 l 314 401 b 161 532 213 418 161 450 b 322 660 161 613 221 660 b 517 569 421 660 479 614 l 569 618 b 326 728 517 682 444 728 b 85 528 189 728 85 661 b 303 329 85 400 174 349 l 361 319 b 507 186 464 304 507 261 b 336 51 507 100 444 51 b 115 165 242 51 174 89 l 57 119 b 331 -17 121 32 207 -17 z "},"ß":{"ha":892,"x_min":0,"x_max":0,"o":"m 842 194 b 657 389 842 306 781 358 l 608 400 b 483 526 526 421 483 449 b 697 654 483 617 568 654 l 746 654 l 746 724 b 457 1044 746 918 640 1044 b 168 724 272 1044 168 918 l 168 711 l 46 711 l 46 642 l 168 642 l 168 0 l 247 0 l 247 729 b 457 976 247 890 317 976 b 668 729 597 976 668 890 l 668 717 b 407 522 511 715 407 649 b 597 329 407 399 488 356 l 647 318 b 765 186 732 299 765 260 b 606 51 765 100 708 51 b 403 151 519 51 458 81 l 347 106 b 601 -17 407 24 488 -17 b 842 194 750 -17 842 63 z "},"ŧ":{"ha":474,"x_min":0,"x_max":0,"o":"m 397 69 l 247 69 l 247 361 l 379 361 l 379 424 l 247 424 l 247 642 l 408 642 l 408 711 l 247 711 l 247 910 l 175 910 l 175 765 b 125 711 175 725 164 711 l 44 711 l 44 642 l 168 642 l 168 424 l 76 424 l 76 361 l 168 361 l 168 88 b 256 0 168 33 199 0 l 397 0 z "},"ť":{"ha":465,"x_min":0,"x_max":0,"o":"m 467 1038 l 375 1038 l 356 786 l 410 786 z m 393 0 l 393 69 l 243 69 l 243 642 l 404 642 l 404 711 l 243 711 l 243 910 l 171 910 l 171 765 b 121 711 171 725 160 711 l 40 711 l 40 642 l 164 642 l 164 88 b 251 0 164 35 194 0 z "},"ţ":{"ha":465,"x_min":0,"x_max":0,"o":"m 283 -92 b 228 -143 246 -92 228 -111 l 228 -156 b 272 -204 228 -181 242 -200 b 206 -322 264 -243 243 -282 l 264 -322 b 339 -158 306 -282 339 -217 l 339 -143 b 283 -92 339 -111 321 -92 z m 393 0 l 393 69 l 243 69 l 243 642 l 404 642 l 404 711 l 243 711 l 243 910 l 171 910 l 171 765 b 121 711 171 725 160 711 l 40 711 l 40 642 l 164 642 l 164 88 b 251 0 164 35 194 0 z "},"ț":{"ha":465,"x_min":0,"x_max":0,"o":"m 283 -92 b 228 -143 246 -92 228 -111 l 228 -156 b 272 -204 228 -181 242 -200 b 206 -322 264 -243 243 -282 l 264 -322 b 339 -158 306 -282 339 -217 l 339 -143 b 283 -92 339 -111 321 -92 z m 393 0 l 393 69 l 243 69 l 243 642 l 404 642 l 404 711 l 243 711 l 243 910 l 171 910 l 171 765 b 121 711 171 725 160 711 l 40 711 l 40 642 l 164 642 l 164 88 b 251 0 164 35 194 0 z "},"þ":{"ha":797,"x_min":0,"x_max":0,"o":"m 129 -278 l 208 -278 l 208 114 l 213 114 b 429 -17 251 35 321 -17 b 722 356 611 -17 722 121 b 429 728 722 590 611 728 b 213 597 321 728 247 676 l 208 597 l 208 1028 l 129 1028 z m 411 54 b 208 217 301 54 208 117 l 208 499 b 411 657 208 592 301 657 b 638 406 553 657 638 558 l 638 306 b 411 54 638 153 553 54 z "},"ú":{"ha":782,"x_min":0,"x_max":0,"o":"m 535 1031 l 463 1067 l 331 839 l 382 814 z m 574 0 l 653 0 l 653 711 l 574 711 l 574 213 b 382 54 574 106 481 54 b 199 269 264 54 199 124 l 199 711 l 119 711 l 119 254 b 361 -17 119 81 210 -17 b 568 113 483 -17 542 46 l 574 113 z "},"ŭ":{"ha":782,"x_min":0,"x_max":0,"o":"m 386 833 b 586 1003 514 833 551 917 l 540 1025 l 514 982 b 386 897 479 924 453 897 b 258 982 319 897 293 924 l 232 1025 l 186 1003 b 386 833 221 917 258 833 z m 574 0 l 653 0 l 653 711 l 574 711 l 574 213 b 382 54 574 106 481 54 b 199 269 264 54 199 124 l 199 711 l 119 711 l 119 254 b 361 -17 119 81 210 -17 b 568 113 483 -17 542 46 l 574 113 z "},"û":{"ha":782,"x_min":0,"x_max":0,"o":"m 338 1050 l 174 857 l 218 825 l 386 993 l 554 825 l 599 857 l 435 1050 z m 574 0 l 653 0 l 653 711 l 574 711 l 574 213 b 382 54 574 106 481 54 b 199 269 264 54 199 124 l 199 711 l 119 711 l 119 254 b 361 -17 119 81 210 -17 b 568 113 483 -17 542 46 l 574 113 z "},"ü":{"ha":782,"x_min":0,"x_max":0,"o":"m 258 871 b 313 921 296 871 313 892 l 313 935 b 258 985 313 964 296 985 b 204 935 219 985 204 964 l 204 921 b 258 871 204 892 219 871 z m 514 871 b 568 921 553 871 568 892 l 568 935 b 514 985 568 964 553 985 b 460 935 476 985 460 964 l 460 921 b 514 871 460 892 476 871 z m 574 0 l 653 0 l 653 711 l 574 711 l 574 213 b 382 54 574 106 481 54 b 199 269 264 54 199 124 l 199 711 l 119 711 l 119 254 b 361 -17 119 81 210 -17 b 568 113 483 -17 542 46 l 574 113 z "},"ụ":{"ha":782,"x_min":0,"x_max":0,"o":"m 381 -215 b 436 -164 418 -215 436 -194 l 436 -153 b 381 -101 436 -122 418 -101 b 325 -153 343 -101 325 -122 l 325 -164 b 381 -215 325 -194 343 -215 z m 574 0 l 653 0 l 653 711 l 574 711 l 574 213 b 382 54 574 106 481 54 b 199 269 264 54 199 124 l 199 711 l 119 711 l 119 254 b 361 -17 119 81 210 -17 b 568 113 483 -17 542 46 l 574 113 z "},"ù":{"ha":782,"x_min":0,"x_max":0,"o":"m 389 814 l 442 839 l 310 1067 l 238 1031 z m 574 0 l 653 0 l 653 711 l 574 711 l 574 213 b 382 54 574 106 481 54 b 199 269 264 54 199 124 l 199 711 l 119 711 l 119 254 b 361 -17 119 81 210 -17 b 568 113 483 -17 542 46 l 574 113 z "},"ủ":{"ha":782,"x_min":0,"x_max":0,"o":"m 275 986 l 451 986 l 360 829 l 408 806 l 456 872 b 513 992 496 926 513 963 b 442 1047 513 1022 493 1047 l 275 1047 z m 574 0 l 653 0 l 653 711 l 574 711 l 574 213 b 382 54 574 106 481 54 b 199 269 264 54 199 124 l 199 711 l 119 711 l 119 254 b 361 -17 119 81 210 -17 b 568 113 483 -17 542 46 l 574 113 z "},"ű":{"ha":782,"x_min":0,"x_max":0,"o":"m 433 1032 l 364 1065 l 232 839 l 281 814 z m 656 1032 l 586 1065 l 454 839 l 503 814 z m 574 0 l 653 0 l 653 711 l 574 711 l 574 213 b 382 54 574 106 481 54 b 199 269 264 54 199 124 l 199 711 l 119 711 l 119 254 b 361 -17 119 81 210 -17 b 568 113 483 -17 542 46 l 574 113 z "},"ū":{"ha":782,"x_min":0,"x_max":0,"o":"m 197 896 l 575 896 l 575 964 l 197 964 z m 574 0 l 653 0 l 653 711 l 574 711 l 574 213 b 382 54 574 106 481 54 b 199 269 264 54 199 124 l 199 711 l 119 711 l 119 254 b 361 -17 119 81 210 -17 b 568 113 483 -17 542 46 l 574 113 z "},"ų":{"ha":782,"x_min":0,"x_max":0,"o":"m 653 0 l 653 711 l 574 711 l 574 213 b 382 54 574 106 481 54 b 199 269 264 54 199 124 l 199 711 l 119 711 l 119 254 b 361 -17 119 81 210 -17 b 568 113 483 -17 542 46 l 574 113 l 574 0 l 589 0 l 590 -3 b 450 -182 501 -65 450 -118 b 574 -285 450 -251 504 -285 b 689 -235 632 -285 671 -262 l 647 -196 b 574 -229 631 -215 607 -229 b 515 -174 539 -229 515 -212 b 653 0 515 -128 544 -94 z "},"ů":{"ha":782,"x_min":0,"x_max":0,"o":"m 386 807 b 533 954 471 807 533 868 b 386 1100 533 1039 471 1100 b 239 954 301 1100 239 1039 b 386 807 239 868 301 807 z m 386 858 b 299 942 332 858 299 890 l 299 965 b 386 1049 299 1018 332 1049 b 474 965 440 1049 474 1018 l 474 942 b 386 858 474 890 440 858 z m 574 0 l 653 0 l 653 711 l 574 711 l 574 213 b 382 54 574 106 481 54 b 199 269 264 54 199 124 l 199 711 l 119 711 l 119 254 b 361 -17 119 81 210 -17 b 568 113 483 -17 542 46 l 574 113 z "},"ũ":{"ha":782,"x_min":0,"x_max":0,"o":"m 486 858 b 610 925 540 858 581 888 l 575 965 b 490 924 546 939 522 924 b 396 958 465 924 438 933 b 286 997 360 981 328 997 b 163 931 232 997 192 968 l 197 890 b 282 932 226 917 250 932 b 376 897 307 932 335 922 b 486 858 413 875 444 858 z m 574 0 l 653 0 l 653 711 l 574 711 l 574 213 b 382 54 574 106 481 54 b 199 269 264 54 199 124 l 199 711 l 119 711 l 119 254 b 361 -17 119 81 210 -17 b 568 113 483 -17 542 46 l 574 113 z "},"ư":{"ha":783,"x_min":0,"x_max":0,"o":"m 767 867 l 696 867 l 696 711 l 575 711 l 575 213 b 382 54 575 106 481 54 b 199 269 264 54 199 124 l 199 711 l 119 711 l 119 254 b 361 -17 119 81 210 -17 b 569 113 483 -17 543 46 l 575 113 l 575 0 l 654 0 l 654 657 l 697 657 b 767 725 751 657 767 685 z "},"ứ":{"ha":783,"x_min":0,"x_max":0,"o":"m 535 1031 l 463 1067 l 331 839 l 382 814 z m 767 867 l 696 867 l 696 711 l 575 711 l 575 213 b 382 54 575 106 481 54 b 199 269 264 54 199 124 l 199 711 l 119 711 l 119 254 b 361 -17 119 81 210 -17 b 569 113 483 -17 543 46 l 575 113 l 575 0 l 654 0 l 654 657 l 697 657 b 767 725 751 657 767 685 z "},"ự":{"ha":783,"x_min":0,"x_max":0,"o":"m 379 -215 b 435 -164 417 -215 435 -194 l 435 -153 b 379 -101 435 -122 417 -101 b 324 -153 342 -101 324 -122 l 324 -164 b 379 -215 324 -194 342 -215 z m 767 867 l 696 867 l 696 711 l 575 711 l 575 213 b 382 54 575 106 481 54 b 199 269 264 54 199 124 l 199 711 l 119 711 l 119 254 b 361 -17 119 81 210 -17 b 569 113 483 -17 543 46 l 575 113 l 575 0 l 654 0 l 654 657 l 697 657 b 767 725 751 657 767 685 z "},"ừ":{"ha":783,"x_min":0,"x_max":0,"o":"m 389 814 l 442 839 l 310 1067 l 238 1031 z m 767 867 l 696 867 l 696 711 l 575 711 l 575 213 b 382 54 575 106 481 54 b 199 269 264 54 199 124 l 199 711 l 119 711 l 119 254 b 361 -17 119 81 210 -17 b 569 113 483 -17 543 46 l 575 113 l 575 0 l 654 0 l 654 657 l 697 657 b 767 725 751 657 767 685 z "},"ử":{"ha":783,"x_min":0,"x_max":0,"o":"m 275 986 l 451 986 l 360 829 l 408 806 l 456 872 b 513 992 496 926 513 963 b 442 1047 513 1022 493 1047 l 275 1047 z m 767 867 l 696 867 l 696 711 l 575 711 l 575 213 b 382 54 575 106 481 54 b 199 269 264 54 199 124 l 199 711 l 119 711 l 119 254 b 361 -17 119 81 210 -17 b 569 113 483 -17 543 46 l 575 113 l 575 0 l 654 0 l 654 657 l 697 657 b 767 725 751 657 767 685 z "},"ữ":{"ha":783,"x_min":0,"x_max":0,"o":"m 494 863 b 614 928 546 863 586 890 l 579 968 b 496 928 551 942 526 928 b 413 958 471 928 449 938 b 311 993 378 978 350 993 b 192 928 260 993 219 965 l 226 888 b 310 928 254 914 279 928 b 393 897 335 928 357 918 b 494 863 428 878 456 863 z m 767 867 l 696 867 l 696 711 l 575 711 l 575 213 b 382 54 575 106 481 54 b 199 269 264 54 199 124 l 199 711 l 119 711 l 119 254 b 361 -17 119 81 210 -17 b 569 113 483 -17 543 46 l 575 113 l 575 0 l 654 0 l 654 657 l 697 657 b 767 725 751 657 767 685 z "},"ẃ":{"ha":1043,"x_min":0,"x_max":0,"o":"m 671 1031 l 599 1067 l 467 839 l 518 814 z m 246 0 l 342 0 l 519 599 l 522 599 l 701 0 l 799 0 l 999 711 l 922 711 l 753 71 l 750 71 l 560 711 l 486 711 l 297 71 l 294 71 l 124 711 l 46 711 z "},"ŵ":{"ha":1043,"x_min":0,"x_max":0,"o":"m 474 1050 l 310 857 l 354 825 l 522 993 l 690 825 l 735 857 l 571 1050 z m 246 0 l 342 0 l 519 599 l 522 599 l 701 0 l 799 0 l 999 711 l 922 711 l 753 71 l 750 71 l 560 711 l 486 711 l 297 71 l 294 71 l 124 711 l 46 711 z "},"ẅ":{"ha":1043,"x_min":0,"x_max":0,"o":"m 394 871 b 449 921 432 871 449 892 l 449 935 b 394 985 449 964 432 985 b 340 935 356 985 340 964 l 340 921 b 394 871 340 892 356 871 z m 650 871 b 704 921 689 871 704 892 l 704 935 b 650 985 704 964 689 985 b 596 935 613 985 596 964 l 596 921 b 650 871 596 892 613 871 z m 246 0 l 342 0 l 519 599 l 522 599 l 701 0 l 799 0 l 999 711 l 922 711 l 753 71 l 750 71 l 560 711 l 486 711 l 297 71 l 294 71 l 124 711 l 46 711 z "},"ẁ":{"ha":1043,"x_min":0,"x_max":0,"o":"m 525 814 l 578 839 l 446 1067 l 374 1031 z m 246 0 l 342 0 l 519 599 l 522 599 l 701 0 l 799 0 l 999 711 l 922 711 l 753 71 l 750 71 l 560 711 l 486 711 l 297 71 l 294 71 l 124 711 l 46 711 z "},"ý":{"ha":668,"x_min":0,"x_max":0,"o":"m 483 1031 l 411 1067 l 279 839 l 331 814 z m 338 85 l 332 85 l 114 711 l 31 711 l 294 -21 l 226 -208 l 107 -208 l 107 -278 l 188 -278 b 306 -200 260 -278 283 -260 l 635 711 l 554 711 z "},"ŷ":{"ha":668,"x_min":0,"x_max":0,"o":"m 286 1050 l 122 857 l 167 825 l 335 993 l 503 825 l 547 857 l 383 1050 z m 338 85 l 332 85 l 114 711 l 31 711 l 294 -21 l 226 -208 l 107 -208 l 107 -278 l 188 -278 b 306 -200 260 -278 283 -260 l 635 711 l 554 711 z "},"ÿ":{"ha":668,"x_min":0,"x_max":0,"o":"m 207 871 b 261 921 244 871 261 892 l 261 935 b 207 985 261 964 244 985 b 153 935 168 985 153 964 l 153 921 b 207 871 153 892 168 871 z m 463 871 b 517 921 501 871 517 892 l 517 935 b 463 985 517 964 501 985 b 408 935 425 985 408 964 l 408 921 b 463 871 408 892 425 871 z m 338 85 l 332 85 l 114 711 l 31 711 l 294 -21 l 226 -208 l 107 -208 l 107 -278 l 188 -278 b 306 -200 260 -278 283 -260 l 635 711 l 554 711 z "},"ỵ":{"ha":668,"x_min":0,"x_max":0,"o":"m 525 -215 b 581 -164 563 -215 581 -194 l 581 -153 b 525 -101 581 -122 563 -101 b 469 -153 488 -101 469 -122 l 469 -164 b 525 -215 469 -194 488 -215 z m 338 85 l 332 85 l 114 711 l 31 711 l 294 -21 l 226 -208 l 107 -208 l 107 -278 l 188 -278 b 306 -200 260 -278 283 -260 l 635 711 l 554 711 z "},"ỳ":{"ha":668,"x_min":0,"x_max":0,"o":"m 338 814 l 390 839 l 258 1067 l 186 1031 z m 338 85 l 332 85 l 114 711 l 31 711 l 294 -21 l 226 -208 l 107 -208 l 107 -278 l 188 -278 b 306 -200 260 -278 283 -260 l 635 711 l 554 711 z "},"ỷ":{"ha":668,"x_min":0,"x_max":0,"o":"m 224 986 l 400 986 l 308 829 l 357 806 l 404 872 b 461 992 444 926 461 963 b 390 1047 461 1022 442 1047 l 224 1047 z m 338 85 l 332 85 l 114 711 l 31 711 l 294 -21 l 226 -208 l 107 -208 l 107 -278 l 188 -278 b 306 -200 260 -278 283 -260 l 635 711 l 554 711 z "},"ỹ":{"ha":668,"x_min":0,"x_max":0,"o":"m 435 858 b 558 925 489 858 529 888 l 524 965 b 439 924 494 939 471 924 b 344 958 414 924 386 933 b 235 997 308 981 276 997 b 111 931 181 997 140 968 l 146 890 b 231 932 175 917 199 932 b 325 897 256 932 283 922 b 435 858 361 875 393 858 z m 338 85 l 332 85 l 114 711 l 31 711 l 294 -21 l 226 -208 l 107 -208 l 107 -278 l 188 -278 b 306 -200 260 -278 283 -260 l 635 711 l 554 711 z "},"ź":{"ha":619,"x_min":0,"x_max":0,"o":"m 458 1031 l 386 1067 l 254 839 l 306 814 z m 579 0 l 579 69 l 132 69 l 568 649 l 568 711 l 56 711 l 56 642 l 474 642 l 43 68 l 43 0 z "},"ž":{"ha":619,"x_min":0,"x_max":0,"o":"m 358 835 l 522 1028 l 478 1060 l 310 892 l 142 1060 l 97 1028 l 261 835 z m 579 0 l 579 69 l 132 69 l 568 649 l 568 711 l 56 711 l 56 642 l 474 642 l 43 68 l 43 0 z "},"ż":{"ha":619,"x_min":0,"x_max":0,"o":"m 310 869 b 365 919 347 869 365 890 l 365 933 b 310 983 365 963 347 983 b 254 933 272 983 254 963 l 254 919 b 310 869 254 890 272 869 z m 579 0 l 579 69 l 132 69 l 568 649 l 568 711 l 56 711 l 56 642 l 474 642 l 43 68 l 43 0 z "},"Á":{"ha":868,"x_min":0,"x_max":0,"o":"m 583 1272 l 511 1308 l 379 1081 l 431 1056 z m 832 0 l 488 969 l 381 969 l 38 0 l 121 0 l 226 301 l 639 301 l 744 0 z m 617 374 l 247 374 l 429 890 l 435 890 z "},"Ă":{"ha":868,"x_min":0,"x_max":0,"o":"m 435 1075 b 635 1244 563 1075 600 1158 l 589 1267 l 563 1224 b 435 1139 528 1165 501 1139 b 307 1224 368 1139 342 1165 l 281 1267 l 235 1244 b 435 1075 269 1158 307 1075 z m 832 0 l 488 969 l 381 969 l 38 0 l 121 0 l 226 301 l 639 301 l 744 0 z m 617 374 l 247 374 l 429 890 l 435 890 z "},"Â":{"ha":868,"x_min":0,"x_max":0,"o":"m 386 1292 l 222 1099 l 267 1067 l 435 1233 l 603 1067 l 647 1099 l 483 1292 z m 832 0 l 488 969 l 381 969 l 38 0 l 121 0 l 226 301 l 639 301 l 744 0 z m 617 374 l 247 374 l 429 890 l 435 890 z "},"Ä":{"ha":868,"x_min":0,"x_max":0,"o":"m 307 1111 b 361 1163 344 1111 361 1133 l 361 1176 b 307 1228 361 1206 344 1228 b 251 1176 268 1228 251 1206 l 251 1163 b 307 1111 251 1133 268 1111 z m 563 1111 b 618 1163 601 1111 618 1133 l 618 1176 b 563 1228 618 1206 601 1228 b 508 1176 525 1228 508 1206 l 508 1163 b 563 1111 508 1133 525 1111 z m 832 0 l 488 969 l 381 969 l 38 0 l 121 0 l 226 301 l 639 301 l 744 0 z m 617 374 l 247 374 l 429 890 l 435 890 z "},"Ạ":{"ha":868,"x_min":0,"x_max":0,"o":"m 439 -215 b 494 -164 476 -215 494 -194 l 494 -153 b 439 -101 494 -122 476 -101 b 383 -153 401 -101 383 -122 l 383 -164 b 439 -215 383 -194 401 -215 z m 832 0 l 488 969 l 381 969 l 38 0 l 121 0 l 226 301 l 639 301 l 744 0 z m 617 374 l 247 374 l 429 890 l 435 890 z "},"À":{"ha":868,"x_min":0,"x_max":0,"o":"m 438 1056 l 490 1081 l 358 1308 l 286 1272 z m 832 0 l 488 969 l 381 969 l 38 0 l 121 0 l 226 301 l 639 301 l 744 0 z m 617 374 l 247 374 l 429 890 l 435 890 z "},"Ả":{"ha":868,"x_min":0,"x_max":0,"o":"m 324 1228 l 500 1228 l 408 1071 l 457 1047 l 504 1114 b 561 1232 544 1168 561 1204 b 490 1289 561 1264 542 1289 l 324 1289 z m 832 0 l 488 969 l 381 969 l 38 0 l 121 0 l 226 301 l 639 301 l 744 0 z m 617 374 l 247 374 l 429 890 l 435 890 z "},"Ā":{"ha":868,"x_min":0,"x_max":0,"o":"m 246 1138 l 624 1138 l 624 1206 l 246 1206 z m 832 0 l 488 969 l 381 969 l 38 0 l 121 0 l 226 301 l 639 301 l 744 0 z m 617 374 l 247 374 l 429 890 l 435 890 z "},"Ą":{"ha":868,"x_min":0,"x_max":0,"o":"m 38 0 l 121 0 l 226 301 l 639 301 l 744 0 l 767 0 l 768 -3 b 624 -183 676 -62 624 -118 b 747 -285 624 -251 678 -285 b 863 -235 806 -285 844 -262 l 821 -196 b 747 -229 806 -215 781 -229 b 689 -176 713 -229 689 -214 b 832 0 689 -131 721 -92 l 488 969 l 381 969 z m 618 374 l 247 374 l 429 890 l 435 890 z "},"Å":{"ha":868,"x_min":0,"x_max":0,"o":"m 435 1049 b 582 1196 519 1049 582 1110 b 435 1342 582 1281 519 1342 b 288 1196 350 1342 288 1281 b 435 1049 288 1110 350 1049 z m 435 1100 b 347 1183 381 1100 347 1132 l 347 1207 b 435 1290 347 1260 381 1290 b 522 1207 489 1290 522 1260 l 522 1183 b 435 1100 522 1132 489 1100 z m 832 0 l 488 969 l 381 969 l 38 0 l 121 0 l 226 301 l 639 301 l 744 0 z m 617 374 l 247 374 l 429 890 l 435 890 z "},"Ǻ":{"ha":868,"x_min":0,"x_max":0,"o":"m 574 1511 l 504 1539 l 399 1388 l 447 1367 z m 435 1040 b 582 1188 519 1040 582 1101 b 435 1333 582 1272 519 1333 b 288 1188 350 1333 288 1272 b 435 1040 288 1101 350 1040 z m 435 1092 b 347 1175 381 1092 347 1124 l 347 1199 b 435 1282 347 1251 381 1282 b 522 1199 489 1282 522 1251 l 522 1175 b 435 1092 522 1124 489 1092 z m 832 0 l 488 969 l 381 969 l 38 0 l 121 0 l 226 301 l 639 301 l 744 0 z m 617 374 l 247 374 l 429 890 l 435 890 z "},"Ã":{"ha":868,"x_min":0,"x_max":0,"o":"m 535 1100 b 658 1167 589 1100 629 1129 l 624 1207 b 539 1167 594 1181 571 1167 b 444 1200 514 1167 486 1176 b 335 1239 408 1221 376 1239 b 211 1172 281 1239 240 1210 l 246 1132 b 331 1172 275 1158 299 1172 b 425 1139 356 1172 383 1163 b 535 1100 461 1118 493 1100 z m 832 0 l 488 969 l 381 969 l 38 0 l 121 0 l 226 301 l 639 301 l 744 0 z m 617 374 l 247 374 l 429 890 l 435 890 z "},"Ắ":{"ha":868,"x_min":0,"x_max":0,"o":"m 435 1060 b 635 1224 563 1060 601 1140 l 589 1246 l 561 1199 b 435 1119 531 1144 501 1119 b 308 1199 368 1119 339 1144 l 281 1246 l 235 1224 b 435 1060 268 1140 307 1060 z m 585 1428 l 515 1463 l 383 1235 l 433 1211 z m 832 0 l 488 969 l 381 969 l 38 0 l 121 0 l 226 301 l 639 301 l 744 0 z m 617 374 l 247 374 l 429 890 l 435 890 z "},"Ặ":{"ha":868,"x_min":0,"x_max":0,"o":"m 439 -215 b 494 -164 476 -215 494 -194 l 494 -153 b 439 -101 494 -122 476 -101 b 383 -153 401 -101 383 -122 l 383 -164 b 439 -215 383 -194 401 -215 z m 435 1075 b 635 1244 563 1075 600 1158 l 589 1267 l 563 1224 b 435 1139 528 1165 501 1139 b 307 1224 368 1139 342 1165 l 281 1267 l 235 1244 b 435 1075 269 1158 307 1075 z m 832 0 l 488 969 l 381 969 l 38 0 l 121 0 l 226 301 l 639 301 l 744 0 z m 617 374 l 247 374 l 429 890 l 435 890 z "},"Ằ":{"ha":868,"x_min":0,"x_max":0,"o":"m 435 1060 b 635 1224 563 1060 601 1140 l 589 1246 l 561 1199 b 435 1119 531 1144 501 1119 b 308 1199 368 1119 339 1144 l 281 1246 l 235 1224 b 435 1060 268 1140 307 1060 z m 436 1211 l 486 1235 l 354 1463 l 285 1428 z m 832 0 l 488 969 l 381 969 l 38 0 l 121 0 l 226 301 l 639 301 l 744 0 z m 617 374 l 247 374 l 429 890 l 435 890 z "},"Ẳ":{"ha":868,"x_min":0,"x_max":0,"o":"m 319 1388 l 486 1388 l 393 1228 l 440 1204 l 486 1271 b 544 1389 526 1325 544 1361 b 474 1446 544 1421 525 1446 l 319 1446 z m 435 1060 b 635 1224 563 1060 601 1140 l 589 1246 l 561 1199 b 435 1119 531 1144 501 1119 b 308 1199 368 1119 339 1144 l 281 1246 l 235 1224 b 435 1060 268 1140 307 1060 z m 832 0 l 488 969 l 381 969 l 38 0 l 121 0 l 226 301 l 639 301 l 744 0 z m 617 374 l 247 374 l 429 890 l 435 890 z "},"Ẵ":{"ha":868,"x_min":0,"x_max":0,"o":"m 535 1308 b 657 1375 589 1308 629 1338 l 624 1413 b 540 1371 596 1386 571 1371 b 444 1406 515 1371 488 1381 b 335 1444 408 1426 378 1444 b 213 1378 281 1444 240 1415 l 246 1340 b 329 1382 274 1367 299 1382 b 425 1347 354 1382 382 1372 b 535 1308 461 1326 492 1308 z m 435 1060 b 635 1224 563 1060 601 1140 l 589 1246 l 561 1199 b 435 1119 531 1144 501 1119 b 308 1199 368 1119 339 1144 l 281 1246 l 235 1224 b 435 1060 268 1140 307 1060 z m 832 0 l 488 969 l 381 969 l 38 0 l 121 0 l 226 301 l 639 301 l 744 0 z m 617 374 l 247 374 l 429 890 l 435 890 z "},"Ấ":{"ha":868,"x_min":0,"x_max":0,"o":"m 779 1428 l 710 1463 l 578 1235 l 626 1211 z m 386 1271 l 224 1085 l 265 1054 l 435 1218 l 604 1054 l 646 1085 l 483 1271 z m 832 0 l 488 969 l 381 969 l 38 0 l 121 0 l 226 301 l 639 301 l 744 0 z m 617 374 l 247 374 l 429 890 l 435 890 z "},"Ậ":{"ha":868,"x_min":0,"x_max":0,"o":"m 439 -215 b 494 -164 476 -215 494 -194 l 494 -153 b 439 -101 494 -122 476 -101 b 383 -153 401 -101 383 -122 l 383 -164 b 439 -215 383 -194 401 -215 z m 386 1292 l 222 1099 l 267 1067 l 435 1233 l 603 1067 l 647 1099 l 483 1292 z m 832 0 l 488 969 l 381 969 l 38 0 l 121 0 l 226 301 l 639 301 l 744 0 z m 617 374 l 247 374 l 429 890 l 435 890 z "},"Ầ":{"ha":868,"x_min":0,"x_max":0,"o":"m 243 1211 l 292 1235 l 160 1463 l 90 1428 z m 386 1271 l 224 1085 l 265 1054 l 435 1218 l 604 1054 l 646 1085 l 483 1271 z m 832 0 l 488 969 l 381 969 l 38 0 l 121 0 l 226 301 l 639 301 l 744 0 z m 617 374 l 247 374 l 429 890 l 435 890 z "},"Ẩ":{"ha":868,"x_min":0,"x_max":0,"o":"m 499 1388 l 678 1388 l 585 1228 l 632 1204 l 678 1271 b 736 1389 718 1325 736 1361 b 665 1446 736 1421 717 1446 l 499 1446 z m 386 1271 l 224 1085 l 265 1054 l 435 1218 l 604 1054 l 646 1085 l 483 1271 z m 832 0 l 488 969 l 381 969 l 38 0 l 121 0 l 226 301 l 639 301 l 744 0 z m 617 374 l 247 374 l 429 890 l 435 890 z "},"Ẫ":{"ha":868,"x_min":0,"x_max":0,"o":"m 335 1449 b 213 1383 281 1449 240 1421 l 246 1346 b 329 1388 274 1372 299 1388 b 425 1353 354 1388 382 1378 b 535 1315 461 1332 492 1315 b 657 1381 589 1315 629 1343 l 624 1418 b 540 1376 596 1392 571 1376 b 444 1411 515 1376 488 1386 b 335 1449 408 1432 378 1449 z m 386 1271 l 224 1085 l 265 1054 l 435 1218 l 604 1054 l 646 1085 l 483 1271 z m 832 0 l 488 969 l 381 969 l 38 0 l 121 0 l 226 301 l 639 301 l 744 0 z m 617 374 l 247 374 l 429 890 l 435 890 z "},"Æ":{"ha":1233,"x_min":0,"x_max":0,"o":"m 574 0 l 1142 0 l 1142 74 l 657 74 l 657 456 l 1118 456 l 1118 529 l 657 529 l 657 896 l 1142 896 l 1142 969 l 514 969 l 4 0 l 90 0 l 247 300 l 574 300 z m 574 896 l 574 374 l 282 374 l 557 896 z "},"Ǽ":{"ha":1235,"x_min":0,"x_max":0,"o":"m 975 1272 l 903 1308 l 771 1081 l 822 1056 z m 574 0 l 1142 0 l 1142 74 l 657 74 l 657 456 l 1118 456 l 1118 529 l 657 529 l 657 896 l 1142 896 l 1142 969 l 514 969 l 4 0 l 90 0 l 247 300 l 574 300 z m 574 896 l 574 374 l 282 374 l 557 896 z "},"Ć":{"ha":857,"x_min":0,"x_max":0,"o":"m 613 1272 l 540 1308 l 408 1081 l 460 1056 z m 465 -17 b 793 200 622 -17 736 68 l 725 240 b 465 58 683 129 594 58 b 176 426 285 58 176 189 l 176 536 b 465 911 176 775 285 911 b 718 739 588 911 675 844 l 786 779 b 465 986 728 907 619 986 b 88 482 226 986 88 808 b 465 -17 88 154 226 -17 z "},"Č":{"ha":857,"x_min":0,"x_max":0,"o":"m 513 1075 l 676 1269 l 632 1301 l 464 1133 l 296 1301 l 251 1269 l 415 1075 z m 465 -17 b 793 200 622 -17 736 68 l 725 240 b 465 58 683 129 594 58 b 176 426 285 58 176 189 l 176 536 b 465 911 176 775 285 911 b 718 739 588 911 675 844 l 786 779 b 465 986 728 907 619 986 b 88 482 226 986 88 808 b 465 -17 88 154 226 -17 z "},"Ç":{"ha":857,"x_min":0,"x_max":0,"o":"m 465 911 b 718 739 588 911 675 844 l 786 779 b 465 986 728 907 619 986 b 88 482 226 986 88 808 b 438 -15 88 165 217 -4 l 418 -111 l 461 -115 b 553 -175 533 -124 553 -146 b 482 -229 553 -211 522 -229 b 393 -190 440 -229 411 -212 l 354 -233 b 482 -285 372 -258 415 -285 b 621 -176 560 -285 621 -244 b 526 -87 621 -119 581 -87 b 476 -94 511 -87 493 -90 l 474 -92 l 490 -15 b 793 200 633 -8 739 75 l 725 240 b 465 58 683 129 594 58 b 176 426 285 58 176 189 l 176 536 b 465 911 176 775 285 911 z "},"Ĉ":{"ha":857,"x_min":0,"x_max":0,"o":"m 415 1292 l 251 1099 l 296 1067 l 464 1233 l 632 1067 l 676 1099 l 513 1292 z m 465 -17 b 793 200 622 -17 736 68 l 725 240 b 465 58 683 129 594 58 b 176 426 285 58 176 189 l 176 536 b 465 911 176 775 285 911 b 718 739 588 911 675 844 l 786 779 b 465 986 728 907 619 986 b 88 482 226 986 88 808 b 465 -17 88 154 226 -17 z "},"Ċ":{"ha":857,"x_min":0,"x_max":0,"o":"m 464 1106 b 524 1163 506 1106 524 1129 l 524 1178 b 464 1235 524 1211 506 1235 b 404 1178 422 1235 404 1211 l 404 1163 b 464 1106 404 1129 422 1106 z m 465 -17 b 793 200 622 -17 736 68 l 725 240 b 465 58 683 129 594 58 b 176 426 285 58 176 189 l 176 536 b 465 911 176 775 285 911 b 718 739 588 911 675 844 l 786 779 b 465 986 728 907 619 986 b 88 482 226 986 88 808 b 465 -17 88 154 226 -17 z "},"Ď":{"ha":925,"x_min":0,"x_max":0,"o":"m 471 1075 l 635 1269 l 590 1301 l 422 1133 l 254 1301 l 210 1269 l 374 1075 z m 138 0 l 446 0 b 838 485 694 0 838 163 b 446 969 838 807 694 969 l 138 969 z m 221 74 l 221 896 l 447 896 b 749 549 638 896 749 764 l 749 421 b 447 74 749 206 638 74 z "},"Đ":{"ha":929,"x_min":0,"x_max":0,"o":"m 142 0 l 450 0 b 842 485 699 0 842 163 b 450 969 842 807 699 969 l 142 969 l 142 544 l 29 544 l 29 481 l 142 481 z m 225 74 l 225 481 l 433 481 l 433 544 l 225 544 l 225 896 l 451 896 b 753 549 642 896 753 764 l 753 421 b 451 74 753 206 642 74 z "},"Ð":{"ha":929,"x_min":0,"x_max":0,"o":"m 142 0 l 450 0 b 842 485 699 0 842 163 b 450 969 842 807 699 969 l 142 969 l 142 544 l 29 544 l 29 481 l 142 481 z m 225 74 l 225 481 l 433 481 l 433 544 l 225 544 l 225 896 l 451 896 b 753 549 642 896 753 764 l 753 421 b 451 74 753 206 642 74 z "},"É":{"ha":797,"x_min":0,"x_max":0,"o":"m 568 1272 l 496 1308 l 364 1081 l 415 1056 z m 704 0 l 704 74 l 221 74 l 221 456 l 681 456 l 681 529 l 221 529 l 221 896 l 704 896 l 704 969 l 138 969 l 138 0 z "},"Ĕ":{"ha":797,"x_min":0,"x_max":0,"o":"m 419 1075 b 619 1244 547 1075 585 1158 l 574 1267 l 547 1224 b 419 1139 513 1165 486 1139 b 292 1224 353 1139 326 1165 l 265 1267 l 219 1244 b 419 1075 254 1158 292 1075 z m 704 0 l 704 74 l 221 74 l 221 456 l 681 456 l 681 529 l 221 529 l 221 896 l 704 896 l 704 969 l 138 969 l 138 0 z "},"Ě":{"ha":797,"x_min":0,"x_max":0,"o":"m 468 1075 l 632 1269 l 588 1301 l 419 1133 l 251 1301 l 207 1269 l 371 1075 z m 704 0 l 704 74 l 221 74 l 221 456 l 681 456 l 681 529 l 221 529 l 221 896 l 704 896 l 704 969 l 138 969 l 138 0 z "},"Ê":{"ha":797,"x_min":0,"x_max":0,"o":"m 371 1292 l 207 1099 l 251 1067 l 419 1233 l 588 1067 l 632 1099 l 468 1292 z m 704 0 l 704 74 l 221 74 l 221 456 l 681 456 l 681 529 l 221 529 l 221 896 l 704 896 l 704 969 l 138 969 l 138 0 z "},"Ë":{"ha":797,"x_min":0,"x_max":0,"o":"m 292 1111 b 346 1163 329 1111 346 1133 l 346 1176 b 292 1228 346 1206 329 1228 b 236 1176 253 1228 236 1206 l 236 1163 b 292 1111 236 1133 253 1111 z m 547 1111 b 603 1163 586 1111 603 1133 l 603 1176 b 547 1228 603 1206 586 1228 b 493 1176 510 1228 493 1206 l 493 1163 b 547 1111 493 1133 510 1111 z m 704 0 l 704 74 l 221 74 l 221 456 l 681 456 l 681 529 l 221 529 l 221 896 l 704 896 l 704 969 l 138 969 l 138 0 z "},"Ė":{"ha":797,"x_min":0,"x_max":0,"o":"m 419 1106 b 479 1163 461 1106 479 1129 l 479 1178 b 419 1235 479 1211 461 1235 b 360 1178 378 1235 360 1211 l 360 1163 b 419 1106 360 1129 378 1106 z m 704 0 l 704 74 l 221 74 l 221 456 l 681 456 l 681 529 l 221 529 l 221 896 l 704 896 l 704 969 l 138 969 l 138 0 z "},"Ẹ":{"ha":797,"x_min":0,"x_max":0,"o":"m 419 -215 b 475 -164 457 -215 475 -194 l 475 -153 b 419 -101 475 -122 457 -101 b 364 -153 382 -101 364 -122 l 364 -164 b 419 -215 364 -194 382 -215 z m 704 0 l 704 74 l 221 74 l 221 456 l 681 456 l 681 529 l 221 529 l 221 896 l 704 896 l 704 969 l 138 969 l 138 0 z "},"È":{"ha":797,"x_min":0,"x_max":0,"o":"m 422 1056 l 475 1081 l 343 1308 l 271 1272 z m 704 0 l 704 74 l 221 74 l 221 456 l 681 456 l 681 529 l 221 529 l 221 896 l 704 896 l 704 969 l 138 969 l 138 0 z "},"Ẻ":{"ha":797,"x_min":0,"x_max":0,"o":"m 308 1228 l 485 1228 l 393 1071 l 442 1047 l 489 1114 b 546 1232 529 1168 546 1204 b 475 1289 546 1264 526 1289 l 308 1289 z m 704 0 l 704 74 l 221 74 l 221 456 l 681 456 l 681 529 l 221 529 l 221 896 l 704 896 l 704 969 l 138 969 l 138 0 z "},"Ē":{"ha":797,"x_min":0,"x_max":0,"o":"m 231 1138 l 608 1138 l 608 1206 l 231 1206 z m 704 0 l 704 74 l 221 74 l 221 456 l 681 456 l 681 529 l 221 529 l 221 896 l 704 896 l 704 969 l 138 969 l 138 0 z "},"Ę":{"ha":797,"x_min":0,"x_max":0,"o":"m 138 0 l 636 0 l 638 -3 b 492 -185 543 -62 492 -121 b 615 -285 492 -253 546 -285 b 731 -235 674 -285 713 -262 l 689 -196 b 615 -229 672 -215 649 -229 b 557 -176 581 -229 557 -214 b 704 0 557 -131 590 -93 l 704 74 l 221 74 l 221 456 l 681 456 l 681 529 l 221 529 l 221 896 l 704 896 l 704 969 l 138 969 z "},"Ẽ":{"ha":797,"x_min":0,"x_max":0,"o":"m 519 1100 b 643 1167 574 1100 614 1129 l 608 1207 b 524 1167 579 1181 556 1167 b 429 1200 499 1167 471 1176 b 319 1239 393 1221 361 1239 b 196 1172 265 1239 225 1210 l 231 1132 b 315 1172 260 1158 283 1172 b 410 1139 340 1172 368 1163 b 519 1100 446 1118 478 1100 z m 704 0 l 704 74 l 221 74 l 221 456 l 681 456 l 681 529 l 221 529 l 221 896 l 704 896 l 704 969 l 138 969 l 138 0 z "},"Ế":{"ha":797,"x_min":0,"x_max":0,"o":"m 764 1428 l 694 1463 l 563 1235 l 611 1211 z m 371 1271 l 208 1085 l 250 1054 l 419 1218 l 589 1054 l 631 1085 l 468 1271 z m 704 0 l 704 74 l 221 74 l 221 456 l 681 456 l 681 529 l 221 529 l 221 896 l 704 896 l 704 969 l 138 969 l 138 0 z "},"Ệ":{"ha":797,"x_min":0,"x_max":0,"o":"m 419 -215 b 475 -164 457 -215 475 -194 l 475 -153 b 419 -101 475 -122 457 -101 b 364 -153 382 -101 364 -122 l 364 -164 b 419 -215 364 -194 382 -215 z m 371 1292 l 207 1099 l 251 1067 l 419 1233 l 588 1067 l 632 1099 l 468 1292 z m 704 0 l 704 74 l 221 74 l 221 456 l 681 456 l 681 529 l 221 529 l 221 896 l 704 896 l 704 969 l 138 969 l 138 0 z "},"Ề":{"ha":797,"x_min":0,"x_max":0,"o":"m 228 1211 l 276 1235 l 144 1463 l 75 1428 z m 371 1271 l 208 1085 l 250 1054 l 419 1218 l 589 1054 l 631 1085 l 468 1271 z m 704 0 l 704 74 l 221 74 l 221 456 l 681 456 l 681 529 l 221 529 l 221 896 l 704 896 l 704 969 l 138 969 l 138 0 z "},"Ể":{"ha":797,"x_min":0,"x_max":0,"o":"m 483 1388 l 663 1388 l 569 1228 l 617 1204 l 663 1271 b 721 1389 703 1325 721 1361 b 650 1446 721 1421 701 1446 l 483 1446 z m 371 1271 l 208 1085 l 250 1054 l 419 1218 l 589 1054 l 631 1085 l 468 1271 z m 704 0 l 704 74 l 221 74 l 221 456 l 681 456 l 681 529 l 221 529 l 221 896 l 704 896 l 704 969 l 138 969 l 138 0 z "},"Ễ":{"ha":797,"x_min":0,"x_max":0,"o":"m 319 1449 b 197 1383 265 1449 225 1421 l 231 1346 b 314 1388 258 1372 283 1388 b 410 1353 339 1388 367 1378 b 519 1315 446 1332 476 1315 b 642 1381 574 1315 614 1343 l 608 1418 b 525 1376 581 1392 556 1376 b 429 1411 500 1376 472 1386 b 319 1449 393 1432 363 1449 z m 371 1271 l 208 1085 l 250 1054 l 419 1218 l 589 1054 l 631 1085 l 468 1271 z m 704 0 l 704 74 l 221 74 l 221 456 l 681 456 l 681 529 l 221 529 l 221 896 l 704 896 l 704 969 l 138 969 l 138 0 z "},"Ə":{"ha":968,"x_min":0,"x_max":0,"o":"m 88 485 b 483 -17 88 151 233 -17 b 881 485 733 -17 881 164 b 489 986 881 806 739 986 b 126 735 313 986 181 888 l 196 700 b 489 911 244 835 351 911 b 793 540 675 911 793 778 l 793 504 l 88 504 z m 483 58 b 174 429 303 58 174 196 l 174 435 l 793 435 l 793 429 b 483 58 793 196 664 58 z "},"Ğ":{"ha":950,"x_min":0,"x_max":0,"o":"m 485 1075 b 685 1244 613 1075 650 1158 l 639 1267 l 613 1224 b 485 1139 578 1165 551 1139 b 357 1224 418 1139 392 1165 l 331 1267 l 285 1244 b 485 1075 319 1158 357 1075 z m 768 0 l 846 0 l 846 483 l 538 483 l 538 411 l 764 411 l 764 294 b 492 58 764 136 639 58 b 176 426 296 58 176 194 l 176 544 b 485 911 176 775 297 911 b 756 739 613 911 708 846 l 824 779 b 485 986 765 903 650 986 b 88 485 239 986 88 811 b 479 -17 88 157 240 -17 b 764 149 629 -17 729 50 l 768 149 z "},"Ĝ":{"ha":950,"x_min":0,"x_max":0,"o":"m 436 1292 l 272 1099 l 317 1067 l 485 1233 l 653 1067 l 697 1099 l 533 1292 z m 768 0 l 846 0 l 846 483 l 538 483 l 538 411 l 764 411 l 764 294 b 492 58 764 136 639 58 b 176 426 296 58 176 194 l 176 544 b 485 911 176 775 297 911 b 756 739 613 911 708 846 l 824 779 b 485 986 765 903 650 986 b 88 485 239 986 88 811 b 479 -17 88 157 240 -17 b 764 149 629 -17 729 50 l 768 149 z "},"Ģ":{"ha":950,"x_min":0,"x_max":0,"o":"m 479 -92 b 424 -143 442 -92 424 -111 l 424 -156 b 468 -204 424 -181 438 -200 b 401 -322 460 -243 439 -282 l 460 -322 b 535 -158 501 -282 535 -217 l 535 -143 b 479 -92 535 -111 517 -92 z m 768 0 l 846 0 l 846 483 l 538 483 l 538 411 l 764 411 l 764 294 b 492 58 764 136 639 58 b 176 426 296 58 176 194 l 176 544 b 485 911 176 775 297 911 b 756 739 613 911 708 846 l 824 779 b 485 986 765 903 650 986 b 88 485 239 986 88 811 b 479 -17 88 157 240 -17 b 764 149 629 -17 729 50 l 768 149 z "},"Ġ":{"ha":950,"x_min":0,"x_max":0,"o":"m 485 1106 b 544 1163 526 1106 544 1129 l 544 1178 b 485 1235 544 1211 526 1235 b 425 1178 443 1235 425 1211 l 425 1163 b 485 1106 425 1129 443 1106 z m 768 0 l 846 0 l 846 483 l 538 483 l 538 411 l 764 411 l 764 294 b 492 58 764 136 639 58 b 176 426 296 58 176 194 l 176 544 b 485 911 176 775 297 911 b 756 739 613 911 708 846 l 824 779 b 485 986 765 903 650 986 b 88 485 239 986 88 811 b 479 -17 88 157 240 -17 b 764 149 629 -17 729 50 l 768 149 z "},"Ħ":{"ha":982,"x_min":0,"x_max":0,"o":"m 757 0 l 840 0 l 840 731 l 944 731 l 944 794 l 840 794 l 840 969 l 757 969 l 757 794 l 225 794 l 225 969 l 142 969 l 142 794 l 38 794 l 38 731 l 142 731 l 142 0 l 225 0 l 225 456 l 757 456 z m 225 529 l 225 731 l 757 731 l 757 529 z "},"Ĥ":{"ha":974,"x_min":0,"x_max":0,"o":"m 439 1292 l 275 1099 l 319 1067 l 488 1233 l 656 1067 l 700 1099 l 536 1292 z m 753 0 l 836 0 l 836 969 l 753 969 l 753 529 l 221 529 l 221 969 l 138 969 l 138 0 l 221 0 l 221 456 l 753 456 z "},"Í":{"ha":542,"x_min":0,"x_max":0,"o":"m 418 1272 l 346 1308 l 214 1081 l 265 1056 z m 454 0 l 454 69 l 313 69 l 313 900 l 454 900 l 454 969 l 88 969 l 88 900 l 229 900 l 229 69 l 88 69 l 88 0 z "},"Ĭ":{"ha":542,"x_min":0,"x_max":0,"o":"m 269 1075 b 469 1244 397 1075 435 1158 l 424 1267 l 397 1224 b 269 1139 363 1165 336 1139 b 142 1224 203 1139 176 1165 l 115 1267 l 69 1244 b 269 1075 104 1158 142 1075 z m 454 0 l 454 69 l 313 69 l 313 900 l 454 900 l 454 969 l 88 969 l 88 900 l 229 900 l 229 69 l 88 69 l 88 0 z "},"Î":{"ha":542,"x_min":0,"x_max":0,"o":"m 221 1292 l 57 1099 l 101 1067 l 269 1233 l 438 1067 l 482 1099 l 318 1292 z m 454 0 l 454 69 l 313 69 l 313 900 l 454 900 l 454 969 l 88 969 l 88 900 l 229 900 l 229 69 l 88 69 l 88 0 z "},"Ï":{"ha":542,"x_min":0,"x_max":0,"o":"m 142 1111 b 196 1163 179 1111 196 1133 l 196 1176 b 142 1228 196 1206 179 1228 b 86 1176 103 1228 86 1206 l 86 1163 b 142 1111 86 1133 103 1111 z m 397 1111 b 453 1163 436 1111 453 1133 l 453 1176 b 397 1228 453 1206 436 1228 b 343 1176 360 1228 343 1206 l 343 1163 b 397 1111 343 1133 360 1111 z m 454 0 l 454 69 l 313 69 l 313 900 l 454 900 l 454 969 l 88 969 l 88 900 l 229 900 l 229 69 l 88 69 l 88 0 z "},"İ":{"ha":542,"x_min":0,"x_max":0,"o":"m 269 1106 b 329 1163 311 1106 329 1129 l 329 1178 b 269 1235 329 1211 311 1235 b 210 1178 228 1235 210 1211 l 210 1163 b 269 1106 210 1129 228 1106 z m 454 0 l 454 69 l 313 69 l 313 900 l 454 900 l 454 969 l 88 969 l 88 900 l 229 900 l 229 69 l 88 69 l 88 0 z "},"Ị":{"ha":542,"x_min":0,"x_max":0,"o":"m 269 -215 b 325 -164 307 -215 325 -194 l 325 -153 b 269 -101 325 -122 307 -101 b 214 -153 232 -101 214 -122 l 214 -164 b 269 -215 214 -194 232 -215 z m 454 0 l 454 69 l 313 69 l 313 900 l 454 900 l 454 969 l 88 969 l 88 900 l 229 900 l 229 69 l 88 69 l 88 0 z "},"Ì":{"ha":542,"x_min":0,"x_max":0,"o":"m 272 1056 l 325 1081 l 193 1308 l 121 1272 z m 454 0 l 454 69 l 313 69 l 313 900 l 454 900 l 454 969 l 88 969 l 88 900 l 229 900 l 229 69 l 88 69 l 88 0 z "},"Ỉ":{"ha":542,"x_min":0,"x_max":0,"o":"m 158 1228 l 335 1228 l 243 1071 l 292 1047 l 339 1114 b 396 1232 379 1168 396 1204 b 325 1289 396 1264 376 1289 l 158 1289 z m 454 0 l 454 69 l 313 69 l 313 900 l 454 900 l 454 969 l 88 969 l 88 900 l 229 900 l 229 69 l 88 69 l 88 0 z "},"Ī":{"ha":542,"x_min":0,"x_max":0,"o":"m 81 1138 l 458 1138 l 458 1206 l 81 1206 z m 454 0 l 454 69 l 313 69 l 313 900 l 454 900 l 454 969 l 88 969 l 88 900 l 229 900 l 229 69 l 88 69 l 88 0 z "},"Į":{"ha":540,"x_min":0,"x_max":0,"o":"m 88 0 l 385 0 l 386 -3 b 240 -185 285 -67 240 -121 b 363 -285 240 -253 294 -285 b 478 -235 421 -285 461 -262 l 436 -196 b 364 -229 421 -215 397 -229 b 306 -176 329 -229 306 -214 b 453 0 306 -131 338 -93 l 453 69 l 311 69 l 311 900 l 453 900 l 453 969 l 88 969 l 88 900 l 229 900 l 229 69 l 88 69 z "},"Ĩ":{"ha":542,"x_min":0,"x_max":0,"o":"m 369 1100 b 493 1167 424 1100 464 1129 l 458 1207 b 374 1167 429 1181 406 1167 b 279 1200 349 1167 321 1176 b 169 1239 243 1221 211 1239 b 46 1172 115 1239 75 1210 l 81 1132 b 165 1172 110 1158 133 1172 b 260 1139 190 1172 218 1163 b 369 1100 296 1118 328 1100 z m 454 0 l 454 69 l 313 69 l 313 900 l 454 900 l 454 969 l 88 969 l 88 900 l 229 900 l 229 69 l 88 69 l 88 0 z "},"Ĳ":{"ha":889,"x_min":0,"x_max":0,"o":"m 442 969 l 442 894 l 676 894 l 676 286 b 442 58 676 133 590 58 b 208 221 303 58 235 118 l 133 203 b 439 -17 163 67 260 -17 b 760 300 642 -17 760 100 l 760 969 z m 129 403 l 213 403 l 213 969 l 129 969 z "},"Ĵ":{"ha":683,"x_min":0,"x_max":0,"o":"m 300 1292 l 136 1099 l 181 1067 l 349 1233 l 517 1067 l 561 1099 l 397 1292 z m 135 969 l 135 896 l 471 896 l 471 265 b 294 57 471 129 410 57 b 110 204 192 57 132 119 l 36 186 b 292 -17 61 65 156 -17 b 554 253 450 -17 554 82 l 554 969 z "},"Ķ":{"ha":847,"x_min":0,"x_max":0,"o":"m 454 -92 b 399 -143 417 -92 399 -111 l 399 -156 b 443 -204 399 -181 413 -200 b 376 -322 435 -243 414 -282 l 435 -322 b 510 -158 476 -282 510 -217 l 510 -143 b 454 -92 510 -111 492 -92 z m 715 0 l 818 0 l 435 557 l 800 969 l 699 969 l 379 603 l 224 424 l 221 424 l 221 969 l 138 969 l 138 0 l 221 0 l 221 326 l 378 500 z "},"Ĺ":{"ha":682,"x_min":0,"x_max":0,"o":"m 328 1272 l 256 1308 l 124 1081 l 175 1056 z m 649 0 l 649 74 l 221 74 l 221 969 l 138 969 l 138 0 z "},"Ľ":{"ha":682,"x_min":0,"x_max":0,"o":"m 451 1028 l 360 1028 l 340 776 l 394 776 z m 649 0 l 649 74 l 221 74 l 221 969 l 138 969 l 138 0 z "},"Ļ":{"ha":682,"x_min":0,"x_max":0,"o":"m 411 -92 b 356 -143 374 -92 356 -111 l 356 -156 b 400 -204 356 -181 369 -200 b 333 -322 392 -243 371 -282 l 392 -322 b 467 -158 433 -282 467 -217 l 467 -143 b 411 -92 467 -111 449 -92 z m 649 0 l 649 74 l 221 74 l 221 969 l 138 969 l 138 0 z "},"Ŀ":{"ha":682,"x_min":0,"x_max":0,"o":"m 521 393 b 576 443 558 393 576 414 l 576 457 b 521 507 576 486 558 507 b 465 457 483 507 465 486 l 465 443 b 521 393 465 414 483 393 z m 649 0 l 649 74 l 221 74 l 221 969 l 138 969 l 138 0 z "},"Ł":{"ha":686,"x_min":0,"x_max":0,"o":"m 653 75 l 225 75 l 225 421 l 489 506 l 489 576 l 225 490 l 225 969 l 142 969 l 142 463 l 1 415 l 1 349 l 142 393 l 142 0 l 653 0 z "},"Ń":{"ha":974,"x_min":0,"x_max":0,"o":"m 635 1272 l 563 1308 l 431 1081 l 482 1056 z m 732 0 l 836 0 l 836 969 l 756 969 l 756 114 l 751 114 l 242 969 l 138 969 l 138 0 l 218 0 l 218 856 l 222 856 z "},"Ň":{"ha":974,"x_min":0,"x_max":0,"o":"m 535 1075 l 699 1269 l 654 1301 l 486 1133 l 318 1301 l 274 1269 l 438 1075 z m 732 0 l 836 0 l 836 969 l 756 969 l 756 114 l 751 114 l 242 969 l 138 969 l 138 0 l 218 0 l 218 856 l 222 856 z "},"Ņ":{"ha":974,"x_min":0,"x_max":0,"o":"m 486 -92 b 431 -143 449 -92 431 -111 l 431 -156 b 475 -204 431 -181 444 -200 b 408 -322 467 -243 446 -282 l 467 -322 b 542 -158 508 -282 542 -217 l 542 -143 b 486 -92 542 -111 524 -92 z m 732 0 l 836 0 l 836 969 l 756 969 l 756 114 l 751 114 l 242 969 l 138 969 l 138 0 l 218 0 l 218 856 l 222 856 z "},"Ñ":{"ha":974,"x_min":0,"x_max":0,"o":"m 586 1100 b 710 1167 640 1100 681 1129 l 675 1207 b 590 1167 646 1181 622 1167 b 496 1200 565 1167 538 1176 b 386 1239 460 1221 428 1239 b 263 1172 332 1239 292 1210 l 297 1132 b 382 1172 326 1158 350 1172 b 476 1139 407 1172 435 1163 b 586 1100 513 1118 544 1100 z m 732 0 l 836 0 l 836 969 l 756 969 l 756 114 l 751 114 l 242 969 l 138 969 l 138 0 l 218 0 l 218 856 l 222 856 z "},"Ŋ":{"ha":974,"x_min":0,"x_max":0,"o":"m 218 0 l 218 856 l 222 856 l 732 0 l 756 0 l 756 -204 l 636 -204 l 636 -278 l 724 -278 b 836 -156 800 -278 836 -229 l 836 969 l 756 969 l 756 114 l 751 114 l 242 969 l 138 969 l 138 0 z "},"Ó":{"ha":968,"x_min":0,"x_max":0,"o":"m 633 1272 l 561 1308 l 429 1081 l 481 1056 z m 485 -17 b 881 485 731 -17 881 157 b 485 986 881 813 731 986 b 88 485 238 986 88 813 b 485 -17 88 157 238 -17 z m 485 58 b 176 424 299 58 176 193 l 176 546 b 485 911 176 776 299 911 b 792 546 669 911 792 776 l 792 424 b 485 58 792 193 669 58 z "},"Ŏ":{"ha":968,"x_min":0,"x_max":0,"o":"m 485 1075 b 685 1244 613 1075 650 1158 l 639 1267 l 613 1224 b 485 1139 578 1165 551 1139 b 357 1224 418 1139 392 1165 l 331 1267 l 285 1244 b 485 1075 319 1158 357 1075 z m 485 -17 b 881 485 731 -17 881 157 b 485 986 881 813 731 986 b 88 485 238 986 88 813 b 485 -17 88 157 238 -17 z m 485 58 b 176 424 299 58 176 193 l 176 546 b 485 911 176 776 299 911 b 792 546 669 911 792 776 l 792 424 b 485 58 792 193 669 58 z "},"Ô":{"ha":968,"x_min":0,"x_max":0,"o":"m 436 1292 l 272 1099 l 317 1067 l 485 1233 l 653 1067 l 697 1099 l 533 1292 z m 485 -17 b 881 485 731 -17 881 157 b 485 986 881 813 731 986 b 88 485 238 986 88 813 b 485 -17 88 157 238 -17 z m 485 58 b 176 424 299 58 176 193 l 176 546 b 485 911 176 776 299 911 b 792 546 669 911 792 776 l 792 424 b 485 58 792 193 669 58 z "},"Ö":{"ha":968,"x_min":0,"x_max":0,"o":"m 357 1111 b 411 1163 394 1111 411 1133 l 411 1176 b 357 1228 411 1206 394 1228 b 301 1176 318 1228 301 1206 l 301 1163 b 357 1111 301 1133 318 1111 z m 613 1111 b 668 1163 651 1111 668 1133 l 668 1176 b 613 1228 668 1206 651 1228 b 558 1176 575 1228 558 1206 l 558 1163 b 613 1111 558 1133 575 1111 z m 485 -17 b 881 485 731 -17 881 157 b 485 986 881 813 731 986 b 88 485 238 986 88 813 b 485 -17 88 157 238 -17 z m 485 58 b 176 424 299 58 176 193 l 176 546 b 485 911 176 776 299 911 b 792 546 669 911 792 776 l 792 424 b 485 58 792 193 669 58 z "},"Ọ":{"ha":968,"x_min":0,"x_max":0,"o":"m 485 -215 b 540 -164 522 -215 540 -194 l 540 -153 b 485 -101 540 -122 522 -101 b 429 -153 447 -101 429 -122 l 429 -164 b 485 -215 429 -194 447 -215 z m 485 -17 b 881 485 731 -17 881 157 b 485 986 881 813 731 986 b 88 485 238 986 88 813 b 485 -17 88 157 238 -17 z m 485 58 b 176 424 299 58 176 193 l 176 546 b 485 911 176 776 299 911 b 792 546 669 911 792 776 l 792 424 b 485 58 792 193 669 58 z "},"Ò":{"ha":968,"x_min":0,"x_max":0,"o":"m 488 1056 l 540 1081 l 408 1308 l 336 1272 z m 485 -17 b 881 485 731 -17 881 157 b 485 986 881 813 731 986 b 88 485 238 986 88 813 b 485 -17 88 157 238 -17 z m 485 58 b 176 424 299 58 176 193 l 176 546 b 485 911 176 776 299 911 b 792 546 669 911 792 776 l 792 424 b 485 58 792 193 669 58 z "},"Ỏ":{"ha":968,"x_min":0,"x_max":0,"o":"m 374 1228 l 550 1228 l 458 1071 l 507 1047 l 554 1114 b 611 1232 594 1168 611 1204 b 540 1289 611 1264 592 1289 l 374 1289 z m 485 -17 b 881 485 731 -17 881 157 b 485 986 881 813 731 986 b 88 485 238 986 88 813 b 485 -17 88 157 238 -17 z m 485 58 b 176 424 299 58 176 193 l 176 546 b 485 911 176 776 299 911 b 792 546 669 911 792 776 l 792 424 b 485 58 792 193 669 58 z "},"Ő":{"ha":968,"x_min":0,"x_max":0,"o":"m 532 1274 l 463 1307 l 331 1081 l 379 1056 z m 754 1274 l 685 1307 l 553 1081 l 601 1056 z m 485 -17 b 881 485 731 -17 881 157 b 485 986 881 813 731 986 b 88 485 238 986 88 813 b 485 -17 88 157 238 -17 z m 485 58 b 176 424 299 58 176 193 l 176 546 b 485 911 176 776 299 911 b 792 546 669 911 792 776 l 792 424 b 485 58 792 193 669 58 z "},"Ō":{"ha":968,"x_min":0,"x_max":0,"o":"m 296 1138 l 674 1138 l 674 1206 l 296 1206 z m 485 -17 b 881 485 731 -17 881 157 b 485 986 881 813 731 986 b 88 485 238 986 88 813 b 485 -17 88 157 238 -17 z m 485 58 b 176 424 299 58 176 193 l 176 546 b 485 911 176 776 299 911 b 792 546 669 911 792 776 l 792 424 b 485 58 792 193 669 58 z "},"Ø":{"ha":968,"x_min":0,"x_max":0,"o":"m 485 -17 b 881 485 731 -17 881 157 b 781 851 881 644 846 767 l 876 988 l 818 1025 l 732 901 b 485 986 667 957 583 986 b 88 485 238 986 88 813 b 188 118 88 325 122 203 l 92 -18 l 150 -56 l 236 69 b 485 -17 300 13 383 -17 z m 176 424 l 176 546 b 485 911 176 776 299 911 b 686 836 567 911 635 886 l 235 189 b 176 424 197 249 176 328 z m 792 546 l 792 424 b 485 58 792 193 669 58 b 282 133 403 58 333 83 l 733 781 b 792 546 771 722 792 643 z "},"Ǿ":{"ha":968,"x_min":0,"x_max":0,"o":"m 633 1272 l 561 1308 l 429 1081 l 481 1056 z m 485 -17 b 881 485 731 -17 881 157 b 781 851 881 644 846 767 l 876 988 l 818 1025 l 732 901 b 485 986 667 957 583 986 b 88 485 238 986 88 813 b 188 118 88 325 122 203 l 92 -18 l 150 -56 l 236 69 b 485 -17 300 13 383 -17 z m 176 424 l 176 546 b 485 911 176 776 299 911 b 686 836 567 911 635 886 l 235 189 b 176 424 197 249 176 328 z m 792 546 l 792 424 b 485 58 792 193 669 58 b 282 133 403 58 333 83 l 733 781 b 792 546 771 722 792 643 z "},"Õ":{"ha":968,"x_min":0,"x_max":0,"o":"m 585 1100 b 708 1167 639 1100 679 1129 l 674 1207 b 589 1167 644 1181 621 1167 b 494 1200 564 1167 536 1176 b 385 1239 458 1221 426 1239 b 261 1172 331 1239 290 1210 l 296 1132 b 381 1172 325 1158 349 1172 b 475 1139 406 1172 433 1163 b 585 1100 511 1118 543 1100 z m 485 -17 b 881 485 731 -17 881 157 b 485 986 881 813 731 986 b 88 485 238 986 88 813 b 485 -17 88 157 238 -17 z m 485 58 b 176 424 299 58 176 193 l 176 546 b 485 911 176 776 299 911 b 792 546 669 911 792 776 l 792 424 b 485 58 792 193 669 58 z "},"Ơ":{"ha":968,"x_min":0,"x_max":0,"o":"m 815 1126 l 815 969 l 613 969 b 485 986 572 982 531 986 b 88 485 238 986 88 813 b 485 -17 88 157 238 -17 b 881 485 731 -17 881 157 b 714 917 881 682 828 829 l 817 917 b 886 985 871 917 886 944 l 886 1126 z m 485 58 b 176 424 299 58 176 193 l 176 546 b 485 911 176 776 299 911 b 792 546 669 911 792 776 l 792 424 b 485 58 792 193 669 58 z "},"Ớ":{"ha":968,"x_min":0,"x_max":0,"o":"m 633 1272 l 561 1308 l 429 1081 l 481 1056 z m 815 1126 l 815 969 l 613 969 b 485 986 572 982 531 986 b 88 485 238 986 88 813 b 485 -17 88 157 238 -17 b 881 485 731 -17 881 157 b 714 917 881 682 828 829 l 817 917 b 886 985 871 917 886 944 l 886 1126 z m 485 58 b 176 424 299 58 176 193 l 176 546 b 485 911 176 776 299 911 b 792 546 669 911 792 776 l 792 424 b 485 58 792 193 669 58 z "},"Ợ":{"ha":968,"x_min":0,"x_max":0,"o":"m 488 -215 b 543 -164 525 -215 543 -194 l 543 -153 b 488 -101 543 -122 525 -101 b 432 -153 450 -101 432 -122 l 432 -164 b 488 -215 432 -194 450 -215 z m 815 1126 l 815 969 l 613 969 b 485 986 572 982 531 986 b 88 485 238 986 88 813 b 485 -17 88 157 238 -17 b 881 485 731 -17 881 157 b 714 917 881 682 828 829 l 817 917 b 886 985 871 917 886 944 l 886 1126 z m 485 58 b 176 424 299 58 176 193 l 176 546 b 485 911 176 776 299 911 b 792 546 669 911 792 776 l 792 424 b 485 58 792 193 669 58 z "},"Ờ":{"ha":968,"x_min":0,"x_max":0,"o":"m 488 1056 l 540 1081 l 408 1308 l 336 1272 z m 815 1126 l 815 969 l 613 969 b 485 986 572 982 531 986 b 88 485 238 986 88 813 b 485 -17 88 157 238 -17 b 881 485 731 -17 881 157 b 714 917 881 682 828 829 l 817 917 b 886 985 871 917 886 944 l 886 1126 z m 485 58 b 176 424 299 58 176 193 l 176 546 b 485 911 176 776 299 911 b 792 546 669 911 792 776 l 792 424 b 485 58 792 193 669 58 z "},"Ở":{"ha":968,"x_min":0,"x_max":0,"o":"m 374 1228 l 550 1228 l 458 1071 l 507 1047 l 554 1114 b 611 1232 594 1168 611 1204 b 540 1289 611 1264 592 1289 l 374 1289 z m 815 1126 l 815 969 l 613 969 b 485 986 572 982 531 986 b 88 485 238 986 88 813 b 485 -17 88 157 238 -17 b 881 485 731 -17 881 157 b 714 917 881 682 828 829 l 817 917 b 886 985 871 917 886 944 l 886 1126 z m 485 58 b 176 424 299 58 176 193 l 176 546 b 485 911 176 776 299 911 b 792 546 669 911 792 776 l 792 424 b 485 58 792 193 669 58 z "},"Ỡ":{"ha":968,"x_min":0,"x_max":0,"o":"m 586 1104 b 706 1169 638 1104 678 1132 l 671 1210 b 588 1169 643 1183 618 1169 b 504 1200 563 1169 540 1179 b 403 1235 469 1219 442 1235 b 283 1169 351 1235 311 1207 l 318 1129 b 401 1169 346 1156 371 1169 b 485 1139 426 1169 449 1160 b 586 1104 519 1119 547 1104 z m 815 1126 l 815 969 l 613 969 b 485 986 572 982 531 986 b 88 485 238 986 88 813 b 485 -17 88 157 238 -17 b 881 485 731 -17 881 157 b 714 917 881 682 828 829 l 817 917 b 886 985 871 917 886 944 l 886 1126 z m 485 58 b 176 424 299 58 176 193 l 176 546 b 485 911 176 776 299 911 b 792 546 669 911 792 776 l 792 424 b 485 58 792 193 669 58 z "},"Ố":{"ha":968,"x_min":0,"x_max":0,"o":"m 829 1428 l 760 1463 l 628 1235 l 676 1211 z m 436 1271 l 274 1085 l 315 1054 l 485 1218 l 654 1054 l 696 1085 l 533 1271 z m 485 -17 b 881 485 731 -17 881 157 b 485 986 881 813 731 986 b 88 485 238 986 88 813 b 485 -17 88 157 238 -17 z m 485 58 b 176 424 299 58 176 193 l 176 546 b 485 911 176 776 299 911 b 792 546 669 911 792 776 l 792 424 b 485 58 792 193 669 58 z "},"Ộ":{"ha":968,"x_min":0,"x_max":0,"o":"m 485 -215 b 540 -164 522 -215 540 -194 l 540 -153 b 485 -101 540 -122 522 -101 b 429 -153 447 -101 429 -122 l 429 -164 b 485 -215 429 -194 447 -215 z m 436 1292 l 272 1099 l 317 1067 l 485 1233 l 653 1067 l 697 1099 l 533 1292 z m 485 -17 b 881 485 731 -17 881 157 b 485 986 881 813 731 986 b 88 485 238 986 88 813 b 485 -17 88 157 238 -17 z m 485 58 b 176 424 299 58 176 193 l 176 546 b 485 911 176 776 299 911 b 792 546 669 911 792 776 l 792 424 b 485 58 792 193 669 58 z "},"Ồ":{"ha":968,"x_min":0,"x_max":0,"o":"m 293 1211 l 342 1235 l 210 1463 l 140 1428 z m 436 1271 l 274 1085 l 315 1054 l 485 1218 l 654 1054 l 696 1085 l 533 1271 z m 485 -17 b 881 485 731 -17 881 157 b 485 986 881 813 731 986 b 88 485 238 986 88 813 b 485 -17 88 157 238 -17 z m 485 58 b 176 424 299 58 176 193 l 176 546 b 485 911 176 776 299 911 b 792 546 669 911 792 776 l 792 424 b 485 58 792 193 669 58 z "},"Ổ":{"ha":968,"x_min":0,"x_max":0,"o":"m 549 1388 l 728 1388 l 635 1228 l 682 1204 l 728 1271 b 786 1389 768 1325 786 1361 b 715 1446 786 1421 767 1446 l 549 1446 z m 436 1271 l 274 1085 l 315 1054 l 485 1218 l 654 1054 l 696 1085 l 533 1271 z m 485 -17 b 881 485 731 -17 881 157 b 485 986 881 813 731 986 b 88 485 238 986 88 813 b 485 -17 88 157 238 -17 z m 485 58 b 176 424 299 58 176 193 l 176 546 b 485 911 176 776 299 911 b 792 546 669 911 792 776 l 792 424 b 485 58 792 193 669 58 z "},"Ỗ":{"ha":968,"x_min":0,"x_max":0,"o":"m 385 1449 b 263 1383 331 1449 290 1421 l 296 1346 b 379 1388 324 1372 349 1388 b 475 1353 404 1388 432 1378 b 585 1315 511 1332 542 1315 b 707 1381 639 1315 679 1343 l 674 1418 b 590 1376 646 1392 621 1376 b 494 1411 565 1376 538 1386 b 385 1449 458 1432 428 1449 z m 436 1271 l 274 1085 l 315 1054 l 485 1218 l 654 1054 l 696 1085 l 533 1271 z m 485 -17 b 881 485 731 -17 881 157 b 485 986 881 813 731 986 b 88 485 238 986 88 813 b 485 -17 88 157 238 -17 z m 485 58 b 176 424 299 58 176 193 l 176 546 b 485 911 176 776 299 911 b 792 546 669 911 792 776 l 792 424 b 485 58 792 193 669 58 z "},"Œ":{"ha":1357,"x_min":0,"x_max":0,"o":"m 1265 0 l 1265 74 l 781 74 l 781 456 l 1242 456 l 1242 529 l 781 529 l 781 896 l 1265 896 l 1265 969 l 697 969 b 511 986 649 978 576 986 b 88 485 243 986 88 814 b 511 -17 88 156 243 -17 b 697 0 576 -17 649 -8 z m 519 58 b 176 424 294 58 176 193 l 176 546 b 519 911 176 776 294 911 b 697 889 583 911 649 903 l 697 81 b 519 58 649 67 583 58 z "},"Ŕ":{"ha":883,"x_min":0,"x_max":0,"o":"m 574 1272 l 501 1308 l 369 1081 l 421 1056 z m 221 429 l 478 429 l 710 0 l 803 0 l 564 435 b 778 700 703 453 778 551 b 518 969 778 869 683 969 l 138 969 l 138 0 l 221 0 z m 221 500 l 221 896 l 518 896 b 689 732 629 896 689 826 l 689 665 b 518 500 689 569 629 500 z "},"Ř":{"ha":883,"x_min":0,"x_max":0,"o":"m 474 1075 l 638 1269 l 593 1301 l 425 1133 l 257 1301 l 213 1269 l 376 1075 z m 221 429 l 478 429 l 710 0 l 803 0 l 564 435 b 778 700 703 453 778 551 b 518 969 778 869 683 969 l 138 969 l 138 0 l 221 0 z m 221 500 l 221 896 l 518 896 b 689 732 629 896 689 826 l 689 665 b 518 500 689 569 629 500 z "},"Ŗ":{"ha":883,"x_min":0,"x_max":0,"o":"m 440 -92 b 385 -143 403 -92 385 -111 l 385 -156 b 429 -204 385 -181 399 -200 b 363 -322 421 -243 400 -282 l 421 -322 b 496 -158 463 -282 496 -217 l 496 -143 b 440 -92 496 -111 478 -92 z m 221 429 l 478 429 l 710 0 l 803 0 l 564 435 b 778 700 703 453 778 551 b 518 969 778 869 683 969 l 138 969 l 138 0 l 221 0 z m 221 500 l 221 896 l 518 896 b 689 732 629 896 689 826 l 689 665 b 518 500 689 569 629 500 z "},"Ś":{"ha":789,"x_min":0,"x_max":0,"o":"m 538 1272 l 465 1308 l 333 1081 l 385 1056 z m 394 -17 b 713 264 592 -17 713 88 b 451 529 713 397 644 488 l 365 547 b 167 732 244 572 167 617 b 392 913 167 851 253 913 b 640 792 508 913 586 868 l 703 838 b 396 986 639 931 540 986 b 85 729 210 986 85 899 b 349 469 85 594 165 507 l 435 451 b 631 260 558 425 631 379 b 397 57 631 132 547 57 b 121 200 271 57 189 110 l 58 149 b 394 -17 133 49 236 -17 z "},"Š":{"ha":789,"x_min":0,"x_max":0,"o":"m 438 1075 l 601 1269 l 557 1301 l 389 1133 l 221 1301 l 176 1269 l 340 1075 z m 394 -17 b 713 264 592 -17 713 88 b 451 529 713 397 644 488 l 365 547 b 167 732 244 572 167 617 b 392 913 167 851 253 913 b 640 792 508 913 586 868 l 703 838 b 396 986 639 931 540 986 b 85 729 210 986 85 899 b 349 469 85 594 165 507 l 435 451 b 631 260 558 425 631 379 b 397 57 631 132 547 57 b 121 200 271 57 189 110 l 58 149 b 394 -17 133 49 236 -17 z "},"Ş":{"ha":789,"x_min":0,"x_max":0,"o":"m 392 913 b 640 792 508 913 586 868 l 703 838 b 396 986 639 931 540 986 b 85 729 210 986 85 899 b 349 469 85 594 165 507 l 435 451 b 631 260 558 424 631 379 b 397 57 631 132 547 57 b 121 200 271 57 189 110 l 58 149 b 363 -15 128 56 222 -8 l 343 -111 l 386 -115 b 476 -175 458 -124 476 -146 b 407 -229 476 -211 447 -229 b 318 -190 365 -229 336 -212 l 279 -233 b 407 -285 297 -258 340 -285 b 544 -176 485 -285 544 -244 b 451 -87 544 -119 506 -87 b 401 -94 436 -87 418 -90 l 399 -92 l 415 -15 b 713 264 599 -10 713 93 b 451 529 713 397 644 488 l 365 547 b 167 732 244 572 167 617 b 392 913 167 851 253 913 z "},"Ŝ":{"ha":789,"x_min":0,"x_max":0,"o":"m 340 1292 l 176 1099 l 221 1067 l 389 1233 l 557 1067 l 601 1099 l 438 1292 z m 394 -17 b 713 264 592 -17 713 88 b 451 529 713 397 644 488 l 365 547 b 167 732 244 572 167 617 b 392 913 167 851 253 913 b 640 792 508 913 586 868 l 703 838 b 396 986 639 931 540 986 b 85 729 210 986 85 899 b 349 469 85 594 165 507 l 435 451 b 631 260 558 425 631 379 b 397 57 631 132 547 57 b 121 200 271 57 189 110 l 58 149 b 394 -17 133 49 236 -17 z "},"Ș":{"ha":789,"x_min":0,"x_max":0,"o":"m 392 -92 b 336 -143 354 -92 336 -111 l 336 -156 b 381 -204 336 -181 350 -200 b 314 -322 372 -243 351 -282 l 372 -322 b 447 -158 414 -282 447 -217 l 447 -143 b 392 -92 447 -111 429 -92 z m 394 -17 b 713 264 592 -17 713 88 b 451 529 713 397 644 488 l 365 547 b 167 732 244 572 167 617 b 392 913 167 851 253 913 b 640 792 508 913 586 868 l 703 838 b 396 986 639 931 540 986 b 85 729 210 986 85 899 b 349 469 85 594 165 507 l 435 451 b 631 260 558 425 631 379 b 397 57 631 132 547 57 b 121 200 271 57 189 110 l 58 149 b 394 -17 133 49 236 -17 z "},"ẞ":{"ha":961,"x_min":0,"x_max":0,"o":"m 888 269 b 568 556 888 454 774 554 l 568 561 l 825 888 l 825 969 l 138 969 l 138 0 l 221 0 l 221 896 l 740 896 l 478 563 l 478 486 l 571 486 b 799 293 724 486 799 413 l 799 244 b 594 54 799 124 719 54 b 383 160 500 54 433 94 l 325 111 b 594 -17 385 29 469 -17 b 888 269 772 -17 888 85 z "},"Ŧ":{"ha":797,"x_min":0,"x_max":0,"o":"m 682 485 l 682 549 l 440 549 l 440 896 l 765 896 l 765 969 l 32 969 l 32 896 l 357 896 l 357 549 l 115 549 l 115 485 l 357 485 l 357 0 l 440 0 l 440 485 z "},"Ť":{"ha":789,"x_min":0,"x_max":0,"o":"m 443 1075 l 607 1269 l 563 1301 l 394 1133 l 226 1301 l 182 1269 l 346 1075 z m 761 896 l 761 969 l 28 969 l 28 896 l 353 896 l 353 0 l 436 0 l 436 896 z "},"Ţ":{"ha":789,"x_min":0,"x_max":0,"o":"m 394 -92 b 339 -143 357 -92 339 -111 l 339 -156 b 383 -204 339 -181 353 -200 b 317 -322 375 -243 354 -282 l 375 -322 b 450 -158 417 -282 450 -217 l 450 -143 b 394 -92 450 -111 432 -92 z m 761 896 l 761 969 l 28 969 l 28 896 l 353 896 l 353 0 l 436 0 l 436 896 z "},"Ț":{"ha":789,"x_min":0,"x_max":0,"o":"m 394 -92 b 339 -143 357 -92 339 -111 l 339 -156 b 383 -204 339 -181 353 -200 b 317 -322 375 -243 354 -282 l 375 -322 b 450 -158 417 -282 450 -217 l 450 -143 b 394 -92 450 -111 432 -92 z m 761 896 l 761 969 l 28 969 l 28 896 l 353 896 l 353 0 l 436 0 l 436 896 z "},"Þ":{"ha":835,"x_min":0,"x_max":0,"o":"m 221 0 l 221 221 l 518 221 b 778 492 686 221 778 326 b 518 763 778 657 686 763 l 221 763 l 221 969 l 138 969 l 138 0 z m 221 689 l 518 689 b 689 524 629 689 689 619 l 689 460 b 518 294 689 364 629 294 l 221 294 z "},"Ú":{"ha":928,"x_min":0,"x_max":0,"o":"m 610 1272 l 538 1308 l 406 1081 l 457 1056 z m 129 969 l 129 389 b 461 -17 129 104 213 -17 b 799 389 710 -17 799 104 l 799 969 l 715 969 l 715 371 b 464 58 715 156 653 58 b 213 371 274 58 213 156 l 213 969 z "},"Ŭ":{"ha":928,"x_min":0,"x_max":0,"o":"m 461 1075 b 661 1244 589 1075 626 1158 l 615 1267 l 589 1224 b 461 1139 554 1165 528 1139 b 333 1224 394 1139 368 1165 l 307 1267 l 261 1244 b 461 1075 296 1158 333 1075 z m 129 969 l 129 389 b 461 -17 129 104 213 -17 b 799 389 710 -17 799 104 l 799 969 l 715 969 l 715 371 b 464 58 715 156 653 58 b 213 371 274 58 213 156 l 213 969 z "},"Û":{"ha":928,"x_min":0,"x_max":0,"o":"m 413 1292 l 249 1099 l 293 1067 l 461 1233 l 629 1067 l 674 1099 l 510 1292 z m 129 969 l 129 389 b 461 -17 129 104 213 -17 b 799 389 710 -17 799 104 l 799 969 l 715 969 l 715 371 b 464 58 715 156 653 58 b 213 371 274 58 213 156 l 213 969 z "},"Ü":{"ha":928,"x_min":0,"x_max":0,"o":"m 333 1111 b 388 1163 371 1111 388 1133 l 388 1176 b 333 1228 388 1206 371 1228 b 278 1176 294 1228 278 1206 l 278 1163 b 333 1111 278 1133 294 1111 z m 589 1111 b 644 1163 628 1111 644 1133 l 644 1176 b 589 1228 644 1206 628 1228 b 535 1176 551 1228 535 1206 l 535 1163 b 589 1111 535 1133 551 1111 z m 129 969 l 129 389 b 461 -17 129 104 213 -17 b 799 389 710 -17 799 104 l 799 969 l 715 969 l 715 371 b 464 58 715 156 653 58 b 213 371 274 58 213 156 l 213 969 z "},"Ụ":{"ha":928,"x_min":0,"x_max":0,"o":"m 463 -215 b 518 -164 500 -215 518 -194 l 518 -153 b 463 -101 518 -122 500 -101 b 407 -153 425 -101 407 -122 l 407 -164 b 463 -215 407 -194 425 -215 z m 129 969 l 129 389 b 461 -17 129 104 213 -17 b 799 389 710 -17 799 104 l 799 969 l 715 969 l 715 371 b 464 58 715 156 653 58 b 213 371 274 58 213 156 l 213 969 z "},"Ù":{"ha":928,"x_min":0,"x_max":0,"o":"m 464 1056 l 517 1081 l 385 1308 l 313 1272 z m 129 969 l 129 389 b 461 -17 129 104 213 -17 b 799 389 710 -17 799 104 l 799 969 l 715 969 l 715 371 b 464 58 715 156 653 58 b 213 371 274 58 213 156 l 213 969 z "},"Ủ":{"ha":928,"x_min":0,"x_max":0,"o":"m 350 1228 l 526 1228 l 435 1071 l 483 1047 l 531 1114 b 588 1232 571 1168 588 1204 b 517 1289 588 1264 568 1289 l 350 1289 z m 129 969 l 129 389 b 461 -17 129 104 213 -17 b 799 389 710 -17 799 104 l 799 969 l 715 969 l 715 371 b 464 58 715 156 653 58 b 213 371 274 58 213 156 l 213 969 z "},"Ű":{"ha":928,"x_min":0,"x_max":0,"o":"m 508 1274 l 439 1307 l 307 1081 l 356 1056 z m 731 1274 l 661 1307 l 529 1081 l 578 1056 z m 129 969 l 129 389 b 461 -17 129 104 213 -17 b 799 389 710 -17 799 104 l 799 969 l 715 969 l 715 371 b 464 58 715 156 653 58 b 213 371 274 58 213 156 l 213 969 z "},"Ū":{"ha":928,"x_min":0,"x_max":0,"o":"m 272 1138 l 650 1138 l 650 1206 l 272 1206 z m 129 969 l 129 389 b 461 -17 129 104 213 -17 b 799 389 710 -17 799 104 l 799 969 l 715 969 l 715 371 b 464 58 715 156 653 58 b 213 371 274 58 213 156 l 213 969 z "},"Ų":{"ha":928,"x_min":0,"x_max":0,"o":"m 129 969 l 129 389 b 461 -17 129 104 213 -17 b 586 1 507 -17 549 -11 l 588 -1 b 436 -185 488 -64 436 -118 b 558 -285 436 -251 492 -285 b 674 -235 618 -285 657 -262 l 633 -196 b 560 -229 617 -215 593 -229 b 501 -175 525 -229 501 -212 b 644 -4 501 -125 543 -83 b 799 389 765 90 799 200 l 799 969 l 715 969 l 715 371 b 464 58 715 156 653 58 b 213 371 274 58 213 156 l 213 969 z "},"Ů":{"ha":928,"x_min":0,"x_max":0,"o":"m 461 1049 b 608 1196 546 1049 608 1110 b 461 1342 608 1281 546 1342 b 314 1196 376 1342 314 1281 b 461 1049 314 1110 376 1049 z m 461 1100 b 374 1183 407 1100 374 1132 l 374 1207 b 461 1290 374 1260 407 1290 b 549 1207 515 1290 549 1260 l 549 1183 b 461 1100 549 1132 515 1100 z m 129 969 l 129 389 b 461 -17 129 104 213 -17 b 799 389 710 -17 799 104 l 799 969 l 715 969 l 715 371 b 464 58 715 156 653 58 b 213 371 274 58 213 156 l 213 969 z "},"Ũ":{"ha":928,"x_min":0,"x_max":0,"o":"m 561 1100 b 685 1167 615 1100 656 1129 l 650 1207 b 565 1167 621 1181 597 1167 b 471 1200 540 1167 513 1176 b 361 1239 435 1221 403 1239 b 238 1172 307 1239 267 1210 l 272 1132 b 357 1172 301 1158 325 1172 b 451 1139 382 1172 410 1163 b 561 1100 488 1118 519 1100 z m 129 969 l 129 389 b 461 -17 129 104 213 -17 b 799 389 710 -17 799 104 l 799 969 l 715 969 l 715 371 b 464 58 715 156 653 58 b 213 371 274 58 213 156 l 213 969 z "},"Ư":{"ha":928,"x_min":0,"x_max":0,"o":"m 129 969 l 129 389 b 461 -17 129 104 213 -17 b 799 389 710 -17 799 104 l 799 915 l 838 915 b 907 983 892 915 907 943 l 907 1125 l 836 1125 l 836 969 l 715 969 l 715 371 b 464 58 715 156 653 58 b 213 371 274 58 213 156 l 213 969 z "},"Ứ":{"ha":928,"x_min":0,"x_max":0,"o":"m 610 1272 l 538 1308 l 406 1081 l 457 1056 z m 129 969 l 129 389 b 461 -17 129 104 213 -17 b 799 389 710 -17 799 104 l 799 915 l 838 915 b 907 983 892 915 907 943 l 907 1125 l 836 1125 l 836 969 l 715 969 l 715 371 b 464 58 715 156 653 58 b 213 371 274 58 213 156 l 213 969 z "},"Ự":{"ha":928,"x_min":0,"x_max":0,"o":"m 463 -215 b 518 -164 500 -215 518 -194 l 518 -153 b 463 -101 518 -122 500 -101 b 407 -153 425 -101 407 -122 l 407 -164 b 463 -215 407 -194 425 -215 z m 129 969 l 129 389 b 461 -17 129 104 213 -17 b 799 389 710 -17 799 104 l 799 915 l 838 915 b 907 983 892 915 907 943 l 907 1125 l 836 1125 l 836 969 l 715 969 l 715 371 b 464 58 715 156 653 58 b 213 371 274 58 213 156 l 213 969 z "},"Ừ":{"ha":928,"x_min":0,"x_max":0,"o":"m 464 1056 l 517 1081 l 385 1308 l 313 1272 z m 129 969 l 129 389 b 461 -17 129 104 213 -17 b 799 389 710 -17 799 104 l 799 915 l 838 915 b 907 983 892 915 907 943 l 907 1125 l 836 1125 l 836 969 l 715 969 l 715 371 b 464 58 715 156 653 58 b 213 371 274 58 213 156 l 213 969 z "},"Ử":{"ha":928,"x_min":0,"x_max":0,"o":"m 350 1228 l 526 1228 l 435 1071 l 483 1047 l 531 1114 b 588 1232 571 1168 588 1204 b 517 1289 588 1264 568 1289 l 350 1289 z m 129 969 l 129 389 b 461 -17 129 104 213 -17 b 799 389 710 -17 799 104 l 799 915 l 838 915 b 907 983 892 915 907 943 l 907 1125 l 836 1125 l 836 969 l 715 969 l 715 371 b 464 58 715 156 653 58 b 213 371 274 58 213 156 l 213 969 z "},"Ữ":{"ha":928,"x_min":0,"x_max":0,"o":"m 564 1104 b 683 1169 615 1104 656 1132 l 649 1210 b 565 1169 621 1183 596 1169 b 482 1200 540 1169 518 1179 b 381 1235 447 1219 419 1235 b 261 1169 329 1235 289 1207 l 296 1129 b 379 1169 324 1156 349 1169 b 463 1139 404 1169 426 1160 b 564 1104 497 1119 525 1104 z m 129 969 l 129 389 b 461 -17 129 104 213 -17 b 799 389 710 -17 799 104 l 799 915 l 838 915 b 907 983 892 915 907 943 l 907 1125 l 836 1125 l 836 969 l 715 969 l 715 371 b 464 58 715 156 653 58 b 213 371 274 58 213 156 l 213 969 z "},"Ẃ":{"ha":1228,"x_min":0,"x_max":0,"o":"m 761 1272 l 689 1308 l 557 1081 l 608 1056 z m 375 0 l 610 876 l 613 876 l 844 0 l 942 0 l 1194 969 l 1108 969 l 894 103 l 890 103 l 664 969 l 563 969 l 333 103 l 329 103 l 122 969 l 33 969 l 278 0 z "},"Ŵ":{"ha":1228,"x_min":0,"x_max":0,"o":"m 564 1292 l 400 1099 l 444 1067 l 613 1233 l 781 1067 l 825 1099 l 661 1292 z m 375 0 l 610 876 l 613 876 l 844 0 l 942 0 l 1194 969 l 1108 969 l 894 103 l 890 103 l 664 969 l 563 969 l 333 103 l 329 103 l 122 969 l 33 969 l 278 0 z "},"Ẅ":{"ha":1228,"x_min":0,"x_max":0,"o":"m 485 1111 b 539 1163 522 1111 539 1133 l 539 1176 b 485 1228 539 1206 522 1228 b 429 1176 446 1228 429 1206 l 429 1163 b 485 1111 429 1133 446 1111 z m 740 1111 b 796 1163 779 1111 796 1133 l 796 1176 b 740 1228 796 1206 779 1228 b 686 1176 703 1228 686 1206 l 686 1163 b 740 1111 686 1133 703 1111 z m 375 0 l 610 876 l 613 876 l 844 0 l 942 0 l 1194 969 l 1108 969 l 894 103 l 890 103 l 664 969 l 563 969 l 333 103 l 329 103 l 122 969 l 33 969 l 278 0 z "},"Ẁ":{"ha":1228,"x_min":0,"x_max":0,"o":"m 615 1056 l 668 1081 l 536 1308 l 464 1272 z m 375 0 l 610 876 l 613 876 l 844 0 l 942 0 l 1194 969 l 1108 969 l 894 103 l 890 103 l 664 969 l 563 969 l 333 103 l 329 103 l 122 969 l 33 969 l 278 0 z "},"Ý":{"ha":799,"x_min":0,"x_max":0,"o":"m 547 1272 l 475 1308 l 343 1081 l 394 1056 z m 440 0 l 440 397 l 776 969 l 682 969 l 401 481 l 397 481 l 117 969 l 22 969 l 357 393 l 357 0 z "},"Ŷ":{"ha":799,"x_min":0,"x_max":0,"o":"m 350 1292 l 186 1099 l 231 1067 l 399 1233 l 567 1067 l 611 1099 l 447 1292 z m 440 0 l 440 397 l 776 969 l 682 969 l 401 481 l 397 481 l 117 969 l 22 969 l 357 393 l 357 0 z "},"Ỵ":{"ha":799,"x_min":0,"x_max":0,"o":"m 400 -215 b 456 -164 438 -215 456 -194 l 456 -153 b 400 -101 456 -122 438 -101 b 344 -153 363 -101 344 -122 l 344 -164 b 400 -215 344 -194 363 -215 z m 440 0 l 440 397 l 776 969 l 682 969 l 401 481 l 397 481 l 117 969 l 22 969 l 357 393 l 357 0 z "},"Ÿ":{"ha":799,"x_min":0,"x_max":0,"o":"m 271 1111 b 325 1163 308 1111 325 1133 l 325 1176 b 271 1228 325 1206 308 1228 b 215 1176 232 1228 215 1206 l 215 1163 b 271 1111 215 1133 232 1111 z m 526 1111 b 582 1163 565 1111 582 1133 l 582 1176 b 526 1228 582 1206 565 1228 b 472 1176 489 1228 472 1206 l 472 1163 b 526 1111 472 1133 489 1111 z m 440 0 l 440 397 l 776 969 l 682 969 l 401 481 l 397 481 l 117 969 l 22 969 l 357 393 l 357 0 z "},"Ỳ":{"ha":799,"x_min":0,"x_max":0,"o":"m 401 1056 l 454 1081 l 322 1308 l 250 1272 z m 440 0 l 440 397 l 776 969 l 682 969 l 401 481 l 397 481 l 117 969 l 22 969 l 357 393 l 357 0 z "},"Ỷ":{"ha":799,"x_min":0,"x_max":0,"o":"m 288 1228 l 464 1228 l 372 1071 l 421 1047 l 468 1114 b 525 1232 508 1168 525 1204 b 454 1289 525 1264 506 1289 l 288 1289 z m 440 0 l 440 397 l 776 969 l 682 969 l 401 481 l 397 481 l 117 969 l 22 969 l 357 393 l 357 0 z "},"Ỹ":{"ha":799,"x_min":0,"x_max":0,"o":"m 499 1100 b 622 1167 553 1100 593 1129 l 588 1207 b 503 1167 558 1181 535 1167 b 408 1200 478 1167 450 1176 b 299 1239 372 1221 340 1239 b 175 1172 244 1239 204 1210 l 210 1132 b 294 1172 239 1158 263 1172 b 389 1139 319 1172 347 1163 b 499 1100 425 1118 457 1100 z m 440 0 l 440 397 l 776 969 l 682 969 l 401 481 l 397 481 l 117 969 l 22 969 l 357 393 l 357 0 z "},"Ź":{"ha":792,"x_min":0,"x_max":0,"o":"m 553 1272 l 481 1308 l 349 1081 l 400 1056 z m 746 74 l 140 74 l 724 893 l 724 969 l 82 969 l 82 896 l 633 896 l 51 76 l 51 0 l 746 0 z "},"Ž":{"ha":792,"x_min":0,"x_max":0,"o":"m 453 1075 l 617 1269 l 572 1301 l 404 1133 l 236 1301 l 192 1269 l 356 1075 z m 746 74 l 140 74 l 724 893 l 724 969 l 82 969 l 82 896 l 633 896 l 51 76 l 51 0 l 746 0 z "},"Ż":{"ha":792,"x_min":0,"x_max":0,"o":"m 404 1106 b 464 1163 446 1106 464 1129 l 464 1178 b 404 1235 464 1211 446 1235 b 344 1178 363 1235 344 1211 l 344 1163 b 404 1106 344 1129 363 1106 z m 746 74 l 140 74 l 724 893 l 724 969 l 82 969 l 82 896 l 633 896 l 51 76 l 51 0 l 746 0 z "},"µ":{"ha":792,"x_min":0,"x_max":0,"o":"m 208 -278 l 208 -62 l 200 76 l 204 76 b 374 -17 233 14 289 -17 b 579 113 492 -17 553 46 l 583 113 l 583 0 l 663 0 l 663 711 l 583 711 l 583 214 b 392 54 583 106 490 54 b 208 269 274 54 208 124 l 208 711 l 129 711 l 129 -278 z "},"∆":{"ha":869,"x_min":0,"x_max":0,"o":"m 64 0 l 806 0 l 806 74 l 489 969 l 382 969 l 64 74 z m 719 74 l 149 74 l 428 883 l 439 883 z "},"∏":{"ha":982,"x_min":0,"x_max":0,"o":"m 268 -278 l 268 896 l 714 896 l 714 -278 l 797 -278 l 797 896 l 903 896 l 903 969 l 79 969 l 79 896 l 185 896 l 185 -278 z "},"∑":{"ha":688,"x_min":0,"x_max":0,"o":"m 638 -204 l 115 -204 l 485 319 l 485 372 l 115 896 l 638 896 l 638 969 l 24 969 l 24 897 l 410 349 l 410 343 l 24 -206 l 24 -278 l 638 -278 z "},"Ω":{"ha":996,"x_min":0,"x_max":0,"o":"m 99 0 l 400 0 l 400 117 b 188 472 306 156 188 290 l 188 585 b 497 911 188 763 306 911 b 808 585 690 911 808 763 l 808 472 b 594 117 808 290 690 156 l 594 0 l 897 0 l 897 69 l 667 69 l 667 88 b 897 524 810 167 897 306 b 497 986 897 781 768 986 b 99 524 228 986 99 781 b 329 88 99 306 186 167 l 329 69 l 99 69 z "},"π":{"ha":831,"x_min":0,"x_max":0,"o":"m 656 642 l 781 642 l 781 711 l 36 711 l 36 642 l 161 642 l 161 0 l 240 0 l 240 642 l 576 642 l 576 85 b 664 0 576 35 607 0 l 781 0 l 781 69 l 656 69 z "},"а":{"ha":732,"x_min":0,"x_max":0,"o":"m 699 0 l 699 69 l 603 69 l 603 490 b 344 728 603 640 510 728 b 97 585 215 728 136 667 l 147 543 b 342 658 186 617 247 658 b 524 482 463 658 524 599 l 524 399 l 360 399 b 71 193 154 399 71 319 b 306 -17 71 61 157 -17 b 521 113 417 -17 489 33 l 528 113 l 528 88 b 618 0 532 35 557 0 z m 317 51 b 154 178 219 51 154 96 l 154 211 b 357 339 154 290 215 339 l 524 339 l 524 207 b 317 51 524 111 432 51 z "},"б":{"ha":772,"x_min":0,"x_max":0,"o":"m 389 -17 b 700 346 579 -17 700 125 b 399 711 700 578 583 711 b 167 554 290 711 211 667 l 163 554 b 428 940 182 826 229 924 l 646 958 l 646 1038 l 436 1021 b 78 407 169 999 78 847 b 94 222 78 335 82 275 b 389 -17 136 58 240 -17 z m 393 54 b 164 313 253 54 164 144 l 164 415 b 386 640 164 553 242 640 b 615 382 526 640 615 550 l 615 304 b 393 54 615 144 524 54 z "},"в":{"ha":771,"x_min":0,"x_max":0,"o":"m 129 0 l 489 0 b 675 204 607 0 675 89 b 518 371 675 297 624 360 l 518 376 b 647 533 601 392 647 443 b 472 711 647 644 581 711 l 129 711 z m 208 67 l 208 335 l 460 335 b 590 219 544 335 590 286 l 590 183 b 468 67 590 115 547 67 z m 208 400 l 208 644 l 454 644 b 563 542 525 644 563 603 l 563 507 b 449 400 563 444 524 400 z "},"г":{"ha":608,"x_min":0,"x_max":0,"o":"m 129 0 l 208 0 l 208 642 l 565 642 l 565 711 l 129 711 z "},"д":{"ha":803,"x_min":0,"x_max":0,"o":"m 10 -194 l 83 -194 l 83 0 l 682 0 l 682 -194 l 756 -194 l 756 69 l 643 69 l 643 711 l 192 711 l 192 503 b 88 69 192 318 151 169 l 10 69 z m 172 69 b 268 500 225 158 268 306 l 268 642 l 564 642 l 564 69 z "},"е":{"ha":754,"x_min":0,"x_max":0,"o":"m 383 -17 b 661 157 518 -17 617 53 l 603 196 b 388 53 564 103 489 53 b 156 306 242 53 156 157 l 156 340 l 682 340 l 682 378 b 382 728 682 586 564 728 b 72 356 193 728 72 589 b 383 -17 72 122 193 -17 z m 382 661 b 596 413 510 661 596 563 l 596 401 l 156 401 l 156 408 b 382 661 156 558 244 661 z "},"ж":{"ha":1054,"x_min":0,"x_max":0,"o":"m 57 0 l 135 0 b 224 68 172 0 200 17 l 349 336 l 488 336 l 488 0 l 567 0 l 567 336 l 706 336 l 831 68 b 919 0 854 17 882 0 l 997 0 l 997 69 l 915 69 l 807 301 b 735 368 786 346 764 363 l 735 374 b 804 439 764 382 783 399 l 906 642 l 988 642 l 988 711 l 921 711 b 826 646 878 711 849 692 l 706 404 l 567 404 l 567 711 l 488 711 l 488 404 l 349 404 l 228 646 b 133 711 206 692 176 711 l 67 711 l 67 642 l 149 642 l 250 439 b 319 374 271 399 290 382 l 319 368 b 247 301 290 363 268 346 l 139 69 l 57 69 z "},"з":{"ha":692,"x_min":0,"x_max":0,"o":"m 321 -17 b 597 199 492 -17 597 67 b 440 369 597 296 540 356 l 440 375 b 581 540 528 393 581 447 b 328 728 581 656 494 728 b 67 588 190 728 111 671 l 121 544 b 325 657 161 615 222 657 b 497 540 439 657 497 611 l 497 521 b 342 400 497 449 436 400 l 203 400 l 203 333 l 350 333 b 513 207 451 333 513 288 l 513 185 b 321 54 513 107 443 54 b 113 169 221 54 153 96 l 53 124 b 321 -17 104 36 182 -17 z "},"и":{"ha":811,"x_min":0,"x_max":0,"o":"m 129 0 l 201 0 l 532 478 l 607 604 l 613 604 l 604 461 l 604 0 l 682 0 l 682 711 l 608 711 l 278 233 l 204 107 l 199 107 l 207 250 l 207 711 l 129 711 z "},"й":{"ha":811,"x_min":0,"x_max":0,"o":"m 404 833 b 585 949 500 833 551 883 l 608 994 l 539 1025 l 490 919 b 404 893 467 901 435 893 b 318 919 374 893 342 901 l 269 1025 l 200 994 l 224 949 b 404 833 257 883 308 833 z m 129 0 l 201 0 l 532 478 l 607 604 l 613 604 l 604 461 l 604 0 l 682 0 l 682 711 l 608 711 l 278 233 l 204 107 l 199 107 l 207 250 l 207 711 l 129 711 z "},"к":{"ha":747,"x_min":0,"x_max":0,"o":"m 129 0 l 208 0 l 208 336 l 361 336 l 524 61 b 613 0 551 14 578 0 l 692 0 l 692 69 l 610 69 l 474 300 b 393 368 444 350 425 363 l 393 374 b 461 433 422 382 435 393 l 597 642 l 679 642 l 679 711 l 614 711 b 524 653 575 711 554 700 l 361 404 l 208 404 l 208 711 l 129 711 z "},"л":{"ha":771,"x_min":0,"x_max":0,"o":"m 8 0 l 58 0 b 160 36 101 0 132 10 b 267 503 217 93 267 229 l 267 642 l 563 642 l 563 0 l 642 0 l 642 711 l 190 711 l 190 506 b 97 69 190 254 150 135 l 8 69 z "},"м":{"ha":958,"x_min":0,"x_max":0,"o":"m 129 0 l 207 0 l 207 615 l 214 615 l 258 536 l 479 167 l 700 536 l 744 615 l 751 615 l 751 0 l 829 0 l 829 711 l 724 711 l 483 304 l 478 304 l 236 711 l 129 711 z "},"н":{"ha":810,"x_min":0,"x_max":0,"o":"m 129 0 l 208 0 l 208 335 l 603 335 l 603 0 l 682 0 l 682 711 l 603 711 l 603 404 l 208 404 l 208 711 l 129 711 z "},"о":{"ha":764,"x_min":0,"x_max":0,"o":"m 382 -17 b 692 356 569 -17 692 122 b 382 728 692 589 569 728 b 72 356 194 728 72 589 b 382 -17 72 122 194 -17 z m 382 54 b 157 311 244 54 157 146 l 157 400 b 382 657 157 567 244 657 b 607 400 519 657 607 565 l 607 311 b 382 54 607 144 519 54 z "},"п":{"ha":793,"x_min":0,"x_max":0,"o":"m 129 0 l 208 0 l 208 642 l 585 642 l 585 0 l 664 0 l 664 711 l 129 711 z "},"р":{"ha":797,"x_min":0,"x_max":0,"o":"m 129 -278 l 208 -278 l 208 114 l 213 114 b 429 -17 251 35 321 -17 b 722 356 611 -17 722 121 b 429 728 722 590 611 728 b 213 597 321 728 247 676 l 208 597 l 208 711 l 129 711 z m 411 54 b 208 217 301 54 208 117 l 208 499 b 411 657 208 592 301 657 b 638 406 553 657 638 558 l 638 306 b 411 54 638 153 553 54 z "},"с":{"ha":689,"x_min":0,"x_max":0,"o":"m 379 -17 b 642 139 510 -17 596 44 l 583 178 b 379 54 543 99 476 54 b 157 306 235 54 157 156 l 157 406 b 379 657 157 556 235 657 b 565 538 472 657 532 614 l 632 571 b 379 728 590 664 510 728 b 72 356 185 728 72 590 b 379 -17 72 121 185 -17 z "},"т":{"ha":660,"x_min":0,"x_max":0,"o":"m 290 0 l 369 0 l 369 642 l 624 642 l 624 711 l 36 711 l 36 642 l 290 642 z "},"у":{"ha":665,"x_min":0,"x_max":0,"o":"m 338 85 l 332 85 l 114 711 l 31 711 l 294 -21 l 226 -208 l 107 -208 l 107 -278 l 188 -278 b 306 -200 260 -278 283 -260 l 635 711 l 554 711 z "},"ф":{"ha":1029,"x_min":0,"x_max":0,"o":"m 475 -278 l 554 -278 l 554 82 l 558 82 b 718 -17 592 26 642 -17 b 951 356 876 -17 951 106 b 718 728 951 606 876 728 b 558 629 642 728 592 685 l 554 629 l 554 986 l 475 986 l 475 629 l 471 629 b 311 728 438 685 388 728 b 78 356 153 728 78 606 b 311 -17 78 106 153 -17 b 471 82 388 -17 438 26 l 475 82 z m 329 54 b 164 306 213 54 164 136 l 164 406 b 329 657 164 575 213 657 b 476 538 424 657 476 600 l 476 174 b 329 54 476 111 424 54 z m 700 54 b 553 174 606 54 553 111 l 553 538 b 700 657 553 600 606 657 b 865 406 817 657 865 575 l 865 306 b 700 54 865 136 817 54 z "},"х":{"ha":685,"x_min":0,"x_max":0,"o":"m 36 0 l 125 0 l 343 300 l 346 300 l 556 0 l 649 0 l 389 364 l 642 711 l 553 711 l 346 421 l 342 421 l 139 711 l 46 711 l 300 358 z "},"ц":{"ha":824,"x_min":0,"x_max":0,"o":"m 703 -194 l 776 -194 l 776 69 l 663 69 l 663 711 l 583 711 l 583 69 l 208 69 l 208 711 l 129 711 l 129 0 l 703 0 z "},"ч":{"ha":739,"x_min":0,"x_max":0,"o":"m 531 0 l 610 0 l 610 711 l 531 711 l 531 450 b 331 325 531 371 449 325 b 154 483 215 325 154 374 l 154 711 l 75 711 l 75 476 b 310 254 75 325 163 254 b 524 351 424 254 486 297 l 531 351 z "},"ш":{"ha":1099,"x_min":0,"x_max":0,"o":"m 129 0 l 969 0 l 969 711 l 890 711 l 890 69 l 589 69 l 589 711 l 510 711 l 510 69 l 208 69 l 208 711 l 129 711 z "},"щ":{"ha":1129,"x_min":0,"x_max":0,"o":"m 1010 -194 l 1083 -194 l 1083 69 l 969 69 l 969 711 l 890 711 l 890 69 l 589 69 l 589 711 l 510 711 l 510 69 l 208 69 l 208 711 l 129 711 l 129 0 l 1010 0 z "},"ъ":{"ha":818,"x_min":0,"x_max":0,"o":"m 231 0 l 526 0 b 754 219 671 0 754 83 b 526 438 754 353 669 438 l 310 438 l 310 711 l 36 711 l 36 642 l 231 642 z m 310 69 l 310 368 l 517 368 b 669 244 617 368 669 322 l 669 194 b 517 69 669 117 617 69 z "},"ы":{"ha":978,"x_min":0,"x_max":0,"o":"m 129 0 l 407 0 b 635 218 551 0 635 83 b 406 438 635 353 549 438 l 208 438 l 208 711 l 129 711 z m 208 69 l 208 368 l 397 368 b 549 244 497 368 549 322 l 549 194 b 397 69 549 117 497 69 z m 769 0 l 849 0 l 849 711 l 769 711 z "},"ь":{"ha":717,"x_min":0,"x_max":0,"o":"m 129 0 l 425 0 b 653 218 569 0 653 83 b 424 438 653 353 568 438 l 208 438 l 208 711 l 129 711 z m 208 69 l 208 368 l 415 368 b 567 244 515 368 567 322 l 567 194 b 415 69 567 117 515 69 z "},"э":{"ha":703,"x_min":0,"x_max":0,"o":"m 211 325 l 544 325 l 544 306 b 318 54 544 154 467 54 b 122 172 217 54 156 99 l 57 138 b 318 -17 100 47 179 -17 b 629 356 515 -17 629 121 b 318 728 629 590 515 728 b 57 571 188 728 101 665 l 117 532 b 318 657 157 614 219 657 b 544 406 467 657 544 557 l 544 393 l 211 393 z "},"ю":{"ha":1060,"x_min":0,"x_max":0,"o":"m 685 -17 b 988 356 871 -17 988 118 b 685 728 988 593 871 728 b 385 404 513 728 400 613 l 208 404 l 208 711 l 129 711 l 129 0 l 208 0 l 208 336 l 383 336 b 685 -17 390 111 506 -17 z m 685 54 b 468 311 550 54 468 142 l 468 400 b 685 657 468 569 550 657 b 901 400 819 657 901 569 l 901 311 b 685 54 901 142 819 54 z "},"я":{"ha":733,"x_min":0,"x_max":0,"o":"m 54 0 l 129 0 b 218 69 167 0 194 15 l 321 283 l 526 283 l 526 0 l 606 0 l 606 711 l 308 711 b 81 496 165 711 81 628 b 275 290 81 378 149 300 l 275 286 b 208 225 247 281 225 261 l 133 69 l 54 69 z m 319 351 b 167 475 219 351 167 397 l 167 517 b 319 642 167 594 219 642 l 526 642 l 526 351 z "},"А":{"ha":868,"x_min":0,"x_max":0,"o":"m 832 0 l 488 969 l 381 969 l 38 0 l 121 0 l 226 301 l 639 301 l 744 0 z m 617 374 l 247 374 l 429 890 l 435 890 z "},"Б":{"ha":867,"x_min":0,"x_max":0,"o":"m 138 0 l 525 0 b 783 285 692 0 783 107 b 525 569 783 463 692 569 l 221 569 l 221 896 l 700 896 l 700 969 l 138 969 z m 221 74 l 221 496 l 525 496 b 694 318 636 496 694 425 l 694 251 b 525 74 694 146 636 74 z "},"В":{"ha":886,"x_min":0,"x_max":0,"o":"m 138 0 l 551 0 b 797 274 700 0 797 114 b 611 508 797 425 701 497 l 611 514 b 760 725 683 531 760 590 b 517 969 760 878 668 969 l 138 969 z m 221 468 l 529 468 b 708 297 646 468 708 397 l 708 246 b 529 74 708 144 646 74 l 221 74 z m 221 896 l 508 896 b 671 744 614 896 671 833 l 671 692 b 508 540 671 604 614 540 l 221 540 z "},"Г":{"ha":697,"x_min":0,"x_max":0,"o":"m 138 0 l 221 0 l 221 896 l 651 896 l 651 969 l 138 969 z "},"Д":{"ha":976,"x_min":0,"x_max":0,"o":"m 14 -208 l 92 -208 l 92 0 l 844 0 l 844 -208 l 922 -208 l 922 74 l 792 74 l 792 969 l 246 969 l 246 694 b 114 74 246 392 199 196 l 14 74 z m 213 74 l 213 79 b 326 690 282 190 326 385 l 326 896 l 708 896 l 708 74 z "},"Е":{"ha":797,"x_min":0,"x_max":0,"o":"m 704 0 l 704 74 l 221 74 l 221 456 l 681 456 l 681 529 l 221 529 l 221 896 l 704 896 l 704 969 l 138 969 l 138 0 z "},"Ж":{"ha":1313,"x_min":0,"x_max":0,"o":"m 60 0 l 139 0 b 235 71 181 0 207 18 l 438 457 l 615 457 l 615 0 l 697 0 l 697 457 l 875 457 l 1078 71 b 1174 0 1106 18 1132 0 l 1253 0 l 1253 74 l 1169 74 l 990 415 b 908 490 965 463 940 482 l 908 496 b 981 567 936 503 958 524 l 1146 896 l 1229 896 l 1229 969 l 1161 969 b 1060 897 1117 969 1086 950 l 875 529 l 697 529 l 697 969 l 615 969 l 615 529 l 438 529 l 253 897 b 151 969 226 950 196 969 l 83 969 l 83 896 l 167 896 l 332 567 b 404 496 354 524 376 503 l 404 490 b 322 415 372 482 347 463 l 143 74 l 60 74 z "},"З":{"ha":814,"x_min":0,"x_max":0,"o":"m 392 -17 b 725 265 599 -17 725 94 b 515 494 725 407 636 479 l 515 500 b 704 738 629 524 704 600 b 400 986 704 888 596 986 b 96 831 246 986 153 926 l 160 790 b 400 911 203 864 275 911 b 614 743 536 911 614 846 l 614 718 b 397 532 614 600 539 532 l 251 532 l 251 458 l 404 458 b 636 278 557 458 636 386 l 636 251 b 392 58 636 126 542 58 b 125 194 268 58 185 104 l 64 146 b 392 -17 133 42 240 -17 z "},"И":{"ha":974,"x_min":0,"x_max":0,"o":"m 138 0 l 213 0 l 679 710 l 761 856 l 765 856 l 756 694 l 756 0 l 836 0 l 836 969 l 763 969 l 294 260 l 214 114 l 210 114 l 218 275 l 218 969 l 138 969 z "},"Й":{"ha":974,"x_min":0,"x_max":0,"o":"m 483 1075 b 664 1190 579 1075 631 1125 l 688 1236 l 618 1267 l 569 1161 b 483 1135 546 1143 514 1135 b 397 1161 453 1135 421 1143 l 349 1267 l 279 1236 l 303 1190 b 483 1075 336 1125 388 1075 z m 138 0 l 213 0 l 679 710 l 761 856 l 765 856 l 756 694 l 756 0 l 836 0 l 836 969 l 763 969 l 294 260 l 214 114 l 210 114 l 218 275 l 218 969 l 138 969 z "},"К":{"ha":894,"x_min":0,"x_max":0,"o":"m 138 0 l 221 0 l 221 457 l 422 457 l 658 69 b 756 0 689 19 717 0 l 835 0 l 835 74 l 751 74 l 539 422 b 457 490 510 471 489 485 l 457 496 b 525 558 485 503 499 515 l 725 896 l 808 896 l 808 969 l 744 969 b 640 897 700 969 672 951 l 422 529 l 221 529 l 221 969 l 138 969 z "},"Л":{"ha":925,"x_min":0,"x_max":0,"o":"m 13 0 l 65 0 b 185 46 117 0 151 13 b 324 700 268 129 324 308 l 324 896 l 706 896 l 706 0 l 789 0 l 789 969 l 243 969 l 243 706 b 108 74 243 321 194 158 l 13 74 z "},"М":{"ha":1117,"x_min":0,"x_max":0,"o":"m 138 0 l 218 0 l 218 863 l 224 863 l 558 269 l 893 863 l 899 863 l 899 0 l 979 0 l 979 969 l 869 969 l 563 424 l 558 424 l 251 969 l 138 969 z "},"Н":{"ha":974,"x_min":0,"x_max":0,"o":"m 753 0 l 836 0 l 836 969 l 753 969 l 753 529 l 221 529 l 221 969 l 138 969 l 138 0 l 221 0 l 221 456 l 753 456 z "},"О":{"ha":968,"x_min":0,"x_max":0,"o":"m 485 -17 b 881 485 731 -17 881 157 b 485 986 881 813 731 986 b 88 485 238 986 88 813 b 485 -17 88 157 238 -17 z m 485 58 b 176 424 299 58 176 193 l 176 546 b 485 911 176 776 299 911 b 792 546 669 911 792 776 l 792 424 b 485 58 792 193 669 58 z "},"П":{"ha":953,"x_min":0,"x_max":0,"o":"m 138 0 l 221 0 l 221 896 l 732 896 l 732 0 l 815 0 l 815 969 l 138 969 z "},"Р":{"ha":835,"x_min":0,"x_max":0,"o":"m 221 0 l 221 426 l 518 426 b 778 699 686 426 778 532 b 518 969 778 864 686 969 l 138 969 l 138 0 z m 221 896 l 518 896 b 689 732 629 896 689 826 l 689 665 b 518 500 689 569 629 500 l 221 500 z "},"С":{"ha":857,"x_min":0,"x_max":0,"o":"m 465 -17 b 793 200 622 -17 736 68 l 725 240 b 465 58 683 129 594 58 b 176 426 285 58 176 189 l 176 536 b 465 911 176 775 285 911 b 718 739 588 911 675 844 l 786 779 b 465 986 728 907 619 986 b 88 482 226 986 88 808 b 465 -17 88 154 226 -17 z "},"Т":{"ha":789,"x_min":0,"x_max":0,"o":"m 761 896 l 761 969 l 28 969 l 28 896 l 353 896 l 353 0 l 436 0 l 436 896 z "},"У":{"ha":815,"x_min":0,"x_max":0,"o":"m 207 0 l 297 0 b 428 86 369 0 400 18 l 782 969 l 696 969 l 493 461 l 439 315 l 433 315 l 369 458 l 124 969 l 33 969 l 399 213 l 343 74 l 207 74 z "},"Ф":{"ha":1156,"x_min":0,"x_max":0,"o":"m 536 -40 l 619 -40 l 619 85 l 675 85 b 1081 483 929 85 1081 256 b 675 882 1081 711 929 882 l 619 882 l 619 1007 l 536 1007 l 536 882 l 481 882 b 75 483 226 882 75 711 b 479 85 75 256 225 85 l 536 85 z m 479 156 b 164 440 285 156 164 292 l 164 526 b 481 813 164 675 286 813 l 538 813 l 538 156 z m 618 156 l 618 813 l 675 813 b 992 526 869 813 992 675 l 992 440 b 675 156 992 292 869 156 z "},"Х":{"ha":822,"x_min":0,"x_max":0,"o":"m 36 0 l 132 0 l 408 429 l 411 429 l 686 0 l 786 0 l 463 497 l 776 969 l 681 969 l 413 560 l 410 560 l 144 969 l 46 969 l 357 493 z "},"Ц":{"ha":1000,"x_min":0,"x_max":0,"o":"m 869 -208 l 946 -208 l 946 74 l 815 74 l 815 969 l 732 969 l 732 74 l 221 74 l 221 969 l 138 969 l 138 0 l 869 0 z "},"Ч":{"ha":883,"x_min":0,"x_max":0,"o":"m 663 0 l 746 0 l 746 969 l 663 969 l 663 472 b 429 438 608 450 528 438 b 169 699 258 438 169 515 l 169 969 l 86 969 l 86 699 b 426 364 86 471 193 364 b 656 399 521 364 601 378 l 663 399 z "},"Ш":{"ha":1300,"x_min":0,"x_max":0,"o":"m 138 0 l 1163 0 l 1163 969 l 1079 969 l 1079 74 l 692 74 l 692 969 l 608 969 l 608 74 l 221 74 l 221 969 l 138 969 z "},"Щ":{"ha":1347,"x_min":0,"x_max":0,"o":"m 1215 -208 l 1293 -208 l 1293 74 l 1163 74 l 1163 969 l 1079 969 l 1079 74 l 692 74 l 692 969 l 608 969 l 608 74 l 221 74 l 221 969 l 138 969 l 138 0 l 1215 0 z "},"Ъ":{"ha":1021,"x_min":0,"x_max":0,"o":"m 294 0 l 696 0 b 954 285 863 0 954 107 b 696 569 954 463 863 569 l 378 569 l 378 969 l 28 969 l 28 896 l 294 896 z m 378 74 l 378 496 l 696 496 b 865 318 807 496 865 425 l 865 251 b 696 74 865 146 807 74 z "},"Ы":{"ha":1186,"x_min":0,"x_max":0,"o":"m 138 0 l 525 0 b 783 285 692 0 783 107 b 525 569 783 463 692 569 l 221 569 l 221 969 l 138 969 z m 221 74 l 221 496 l 525 496 b 694 318 636 496 694 425 l 694 251 b 525 74 694 146 636 74 z m 965 0 l 1049 0 l 1049 969 l 965 969 z "},"Ь":{"ha":864,"x_min":0,"x_max":0,"o":"m 138 0 l 539 0 b 797 285 706 0 797 107 b 539 569 797 463 706 569 l 221 569 l 221 969 l 138 969 z m 221 74 l 221 496 l 539 496 b 708 318 650 496 708 425 l 708 251 b 539 74 708 146 650 74 z "},"Э":{"ha":865,"x_min":0,"x_max":0,"o":"m 251 454 l 689 454 l 689 433 b 396 58 689 194 582 58 b 131 240 260 58 174 129 l 64 200 b 396 -17 121 68 233 -17 b 778 488 640 -17 778 161 b 396 986 778 815 640 986 b 71 779 238 986 129 907 l 139 739 b 396 911 182 844 269 911 b 689 543 582 911 689 781 l 689 528 l 251 528 z "},"Ю":{"ha":1304,"x_min":0,"x_max":0,"o":"m 831 -17 b 1217 485 1075 -17 1217 151 b 831 986 1217 818 1075 986 b 446 529 592 986 456 826 l 221 529 l 221 969 l 138 969 l 138 0 l 221 0 l 221 456 l 443 456 b 831 -17 453 144 589 -17 z m 831 58 b 533 424 646 58 533 188 l 533 546 b 831 911 533 782 646 911 b 1128 546 1014 911 1128 782 l 1128 424 b 831 58 1128 188 1014 58 z "},"Я":{"ha":883,"x_min":0,"x_max":0,"o":"m 53 0 l 133 0 b 226 68 174 0 199 17 l 413 429 l 663 429 l 663 0 l 746 0 l 746 969 l 365 969 b 106 700 200 969 106 869 b 354 440 106 546 186 443 l 358 440 l 358 433 b 286 361 326 425 310 408 l 136 74 l 53 74 z m 365 500 b 196 665 254 500 196 569 l 196 732 b 365 896 196 826 254 896 l 663 896 l 663 500 z "},"ӓ":{"ha":732,"x_min":0,"x_max":0,"o":"m 221 871 b 275 921 258 871 275 892 l 275 935 b 221 985 275 964 258 985 b 167 935 182 985 167 964 l 167 921 b 221 871 167 892 182 871 z m 476 871 b 531 921 515 871 531 892 l 531 935 b 476 985 531 964 515 985 b 422 935 439 985 422 964 l 422 921 b 476 871 422 892 439 871 z m 699 0 l 699 69 l 603 69 l 603 490 b 344 728 603 640 510 728 b 97 585 215 728 136 667 l 147 543 b 342 658 186 617 247 658 b 524 482 463 658 524 599 l 524 399 l 360 399 b 71 193 154 399 71 319 b 306 -17 71 61 157 -17 b 521 113 417 -17 489 33 l 528 113 l 528 88 b 618 0 532 35 557 0 z m 317 51 b 154 178 219 51 154 96 l 154 211 b 357 339 154 290 215 339 l 524 339 l 524 207 b 317 51 524 111 432 51 z "},"ӑ":{"ha":732,"x_min":0,"x_max":0,"o":"m 349 833 b 529 949 444 833 496 883 l 553 994 l 483 1025 l 435 919 b 349 893 411 901 379 893 b 263 919 318 893 286 901 l 214 1025 l 144 994 l 168 949 b 349 833 201 883 253 833 z m 699 0 l 699 69 l 603 69 l 603 490 b 344 728 603 640 510 728 b 97 585 215 728 136 667 l 147 543 b 342 658 186 617 247 658 b 524 482 463 658 524 599 l 524 399 l 360 399 b 71 193 154 399 71 319 b 306 -17 71 61 157 -17 b 521 113 417 -17 489 33 l 528 113 l 528 88 b 618 0 532 35 557 0 z m 317 51 b 154 178 219 51 154 96 l 154 211 b 357 339 154 290 215 339 l 524 339 l 524 207 b 317 51 524 111 432 51 z "},"ӕ":{"ha":1199,"x_min":0,"x_max":0,"o":"m 521 340 l 521 207 b 314 51 521 111 428 51 b 151 178 215 51 151 96 l 151 211 b 354 340 151 290 213 339 z m 600 401 l 600 408 b 826 661 600 558 689 661 b 1040 413 954 661 1040 563 l 1040 401 z m 832 53 b 600 306 686 53 600 157 l 600 340 l 1126 340 l 1126 378 b 833 728 1126 586 1011 728 b 574 557 696 728 601 643 l 568 557 b 343 728 554 638 496 728 b 94 585 213 728 133 665 l 144 543 b 342 660 185 619 244 660 b 521 482 458 660 521 600 l 521 401 l 357 401 b 68 190 154 401 68 319 b 301 -17 68 61 157 -17 b 564 154 449 -17 546 68 l 569 154 b 836 -17 596 67 693 -17 b 1106 157 964 -17 1061 51 l 1047 194 b 832 53 1007 101 935 53 z "},"ѓ":{"ha":608,"x_min":0,"x_max":0,"o":"m 497 1031 l 425 1067 l 293 839 l 344 814 z m 129 0 l 208 0 l 208 642 l 565 642 l 565 711 l 129 711 z "},"ґ":{"ha":608,"x_min":0,"x_max":0,"o":"m 129 0 l 208 0 l 208 642 l 565 642 l 565 906 l 493 906 l 493 711 l 129 711 z "},"ғ":{"ha":628,"x_min":0,"x_max":0,"o":"m 149 0 l 228 0 l 228 335 l 468 335 l 468 396 l 228 396 l 228 642 l 586 642 l 586 711 l 149 711 l 149 396 l 40 396 l 40 335 l 149 335 z "},"ҕ":{"ha":740,"x_min":0,"x_max":0,"o":"m 415 -278 l 499 -278 b 663 -22 594 -278 663 -200 l 663 158 b 429 403 663 335 582 403 b 214 306 315 403 251 360 l 208 306 l 208 642 l 565 642 l 565 711 l 129 711 l 129 0 l 208 0 l 208 207 b 407 332 208 286 290 332 b 583 150 529 332 583 286 l 583 -10 b 535 -208 583 -121 564 -175 l 415 -208 z "},"ѐ":{"ha":754,"x_min":0,"x_max":0,"o":"m 385 814 l 438 839 l 306 1067 l 233 1031 z m 383 -17 b 661 157 518 -17 617 53 l 603 196 b 388 53 564 103 489 53 b 156 306 242 53 156 157 l 156 340 l 682 340 l 682 378 b 382 728 682 586 564 728 b 72 356 193 728 72 589 b 383 -17 72 122 193 -17 z m 382 661 b 596 413 510 661 596 563 l 596 401 l 156 401 l 156 408 b 382 661 156 558 244 661 z "},"ё":{"ha":754,"x_min":0,"x_max":0,"o":"m 254 871 b 308 921 292 871 308 892 l 308 935 b 254 985 308 964 292 985 b 200 935 215 985 200 964 l 200 921 b 254 871 200 892 215 871 z m 510 871 b 564 921 549 871 564 892 l 564 935 b 510 985 564 964 549 985 b 456 935 472 985 456 964 l 456 921 b 510 871 456 892 472 871 z m 383 -17 b 661 157 518 -17 617 53 l 603 196 b 388 53 564 103 489 53 b 156 306 242 53 156 157 l 156 340 l 682 340 l 682 378 b 382 728 682 586 564 728 b 72 356 193 728 72 589 b 383 -17 72 122 193 -17 z m 382 661 b 596 413 510 661 596 563 l 596 401 l 156 401 l 156 408 b 382 661 156 558 244 661 z "},"ӗ":{"ha":754,"x_min":0,"x_max":0,"o":"m 382 833 b 563 949 478 833 529 883 l 586 994 l 517 1025 l 468 919 b 382 893 444 901 413 893 b 296 919 351 893 319 901 l 247 1025 l 178 994 l 201 949 b 382 833 235 883 286 833 z m 383 -17 b 661 157 518 -17 617 53 l 603 196 b 388 53 564 103 489 53 b 156 306 242 53 156 157 l 156 340 l 682 340 l 682 378 b 382 728 682 586 564 728 b 72 356 193 728 72 589 b 383 -17 72 122 193 -17 z m 382 661 b 596 413 510 661 596 563 l 596 401 l 156 401 l 156 408 b 382 661 156 558 244 661 z "},"є":{"ha":703,"x_min":0,"x_max":0,"o":"m 385 -17 b 650 139 518 -17 604 44 l 592 178 b 385 54 551 99 485 54 b 158 306 233 54 158 156 l 158 325 l 492 325 l 492 393 l 158 393 l 158 406 b 385 657 158 556 233 657 b 574 538 481 657 540 614 l 640 571 b 385 728 599 664 518 728 b 72 356 185 728 72 590 b 385 -17 72 121 185 -17 z "},"ӝ":{"ha":1054,"x_min":0,"x_max":0,"o":"m 397 871 b 451 921 435 871 451 892 l 451 935 b 397 985 451 964 435 985 b 343 935 358 985 343 964 l 343 921 b 397 871 343 892 358 871 z m 653 871 b 707 921 692 871 707 892 l 707 935 b 653 985 707 964 692 985 b 599 935 615 985 599 964 l 599 921 b 653 871 599 892 615 871 z m 57 0 l 135 0 b 224 68 172 0 200 17 l 349 336 l 488 336 l 488 0 l 567 0 l 567 336 l 706 336 l 831 68 b 919 0 854 17 882 0 l 997 0 l 997 69 l 915 69 l 807 301 b 735 368 786 346 764 363 l 735 374 b 804 439 764 382 783 399 l 906 642 l 988 642 l 988 711 l 921 711 b 826 646 878 711 849 692 l 706 404 l 567 404 l 567 711 l 488 711 l 488 404 l 349 404 l 228 646 b 133 711 206 692 176 711 l 67 711 l 67 642 l 149 642 l 250 439 b 319 374 271 399 290 382 l 319 368 b 247 301 290 363 268 346 l 139 69 l 57 69 z "},"ӂ":{"ha":1054,"x_min":0,"x_max":0,"o":"m 525 833 b 706 949 621 833 672 883 l 729 994 l 660 1025 l 611 919 b 525 893 588 901 556 893 b 439 919 494 893 463 901 l 390 1025 l 321 994 l 344 949 b 525 833 378 883 429 833 z m 57 0 l 135 0 b 224 68 172 0 200 17 l 349 336 l 488 336 l 488 0 l 567 0 l 567 336 l 706 336 l 831 68 b 919 0 854 17 882 0 l 997 0 l 997 69 l 915 69 l 807 301 b 735 368 786 346 764 363 l 735 374 b 804 439 764 382 783 399 l 906 642 l 988 642 l 988 711 l 921 711 b 826 646 878 711 849 692 l 706 404 l 567 404 l 567 711 l 488 711 l 488 404 l 349 404 l 228 646 b 133 711 206 692 176 711 l 67 711 l 67 642 l 149 642 l 250 439 b 319 374 271 399 290 382 l 319 368 b 247 301 290 363 268 346 l 139 69 l 57 69 z "},"җ":{"ha":1061,"x_min":0,"x_max":0,"o":"m 950 -194 l 1024 -194 l 1024 69 l 915 69 l 807 301 b 735 368 786 346 764 363 l 735 374 b 804 439 764 382 783 399 l 906 642 l 988 642 l 988 711 l 921 711 b 826 646 878 711 849 692 l 706 404 l 567 404 l 567 711 l 488 711 l 488 404 l 349 404 l 228 646 b 133 711 206 692 176 711 l 67 711 l 67 642 l 149 642 l 250 439 b 319 374 271 399 290 382 l 319 368 b 247 301 290 363 268 346 l 139 69 l 57 69 l 57 0 l 135 0 b 224 68 172 0 200 17 l 349 336 l 488 336 l 488 0 l 567 0 l 567 336 l 706 336 l 831 68 b 919 0 854 17 882 0 l 950 0 z "},"ӟ":{"ha":692,"x_min":0,"x_max":0,"o":"m 199 871 b 253 921 236 871 253 892 l 253 935 b 199 985 253 964 236 985 b 144 935 160 985 144 964 l 144 921 b 199 871 144 892 160 871 z m 454 871 b 508 921 493 871 508 892 l 508 935 b 454 985 508 964 493 985 b 400 935 417 985 400 964 l 400 921 b 454 871 400 892 417 871 z m 321 -17 b 597 199 492 -17 597 67 b 440 369 597 296 540 356 l 440 375 b 581 540 528 393 581 447 b 328 728 581 656 494 728 b 67 588 190 728 111 671 l 121 544 b 325 657 161 615 222 657 b 497 540 439 657 497 611 l 497 521 b 342 400 497 449 436 400 l 203 400 l 203 333 l 350 333 b 513 207 451 333 513 288 l 513 185 b 321 54 513 107 443 54 b 113 169 221 54 153 96 l 53 124 b 321 -17 104 36 182 -17 z "},"ҙ":{"ha":692,"x_min":0,"x_max":0,"o":"m 286 -194 l 360 -194 l 360 -15 b 597 199 507 -4 597 78 b 442 369 597 296 542 356 l 442 375 b 582 540 529 393 582 447 b 328 728 582 656 496 728 b 67 588 192 728 111 671 l 122 544 b 325 657 161 615 224 657 b 497 540 440 657 497 611 l 497 521 b 342 400 497 449 438 400 l 203 400 l 203 333 l 350 333 b 513 207 451 333 513 288 l 513 185 b 322 54 513 107 443 54 b 113 169 221 54 153 96 l 53 124 b 286 -15 100 44 168 -7 z "},"ӏ":{"ha":338,"x_min":0,"x_max":0,"o":"m 129 0 l 208 0 l 208 1028 l 129 1028 z "},"ӥ":{"ha":811,"x_min":0,"x_max":0,"o":"m 276 871 b 331 921 314 871 331 892 l 331 935 b 276 985 331 964 314 985 b 222 935 238 985 222 964 l 222 921 b 276 871 222 892 238 871 z m 532 871 b 586 921 571 871 586 892 l 586 935 b 532 985 586 964 571 985 b 478 935 494 985 478 964 l 478 921 b 532 871 478 892 494 871 z m 129 0 l 201 0 l 532 478 l 607 604 l 613 604 l 604 461 l 604 0 l 682 0 l 682 711 l 608 711 l 278 233 l 204 107 l 199 107 l 207 250 l 207 711 l 129 711 z "},"ѝ":{"ha":811,"x_min":0,"x_max":0,"o":"m 407 814 l 460 839 l 328 1067 l 256 1031 z m 129 0 l 201 0 l 532 478 l 607 604 l 613 604 l 604 461 l 604 0 l 682 0 l 682 711 l 608 711 l 278 233 l 204 107 l 199 107 l 207 250 l 207 711 l 129 711 z "},"ӣ":{"ha":811,"x_min":0,"x_max":0,"o":"m 215 896 l 593 896 l 593 964 l 215 964 z m 129 0 l 201 0 l 532 478 l 607 604 l 613 604 l 604 461 l 604 0 l 682 0 l 682 711 l 608 711 l 278 233 l 204 107 l 199 107 l 207 250 l 207 711 l 129 711 z "},"ќ":{"ha":747,"x_min":0,"x_max":0,"o":"m 531 1031 l 458 1067 l 326 839 l 378 814 z m 129 0 l 208 0 l 208 336 l 361 336 l 524 61 b 613 0 551 14 578 0 l 692 0 l 692 69 l 610 69 l 474 300 b 393 368 444 350 425 363 l 393 374 b 461 433 422 382 435 393 l 597 642 l 679 642 l 679 711 l 614 711 b 524 653 575 711 554 700 l 361 404 l 208 404 l 208 711 l 129 711 z "},"қ":{"ha":757,"x_min":0,"x_max":0,"o":"m 646 -194 l 719 -194 l 719 69 l 610 69 l 474 300 b 393 368 444 350 425 363 l 393 374 b 461 433 422 382 435 393 l 597 642 l 679 642 l 679 711 l 614 711 b 524 653 575 711 554 700 l 361 404 l 208 404 l 208 711 l 129 711 l 129 0 l 208 0 l 208 336 l 361 336 l 524 61 b 613 0 551 14 578 0 l 646 0 z "},"ҝ":{"ha":783,"x_min":0,"x_max":0,"o":"m 129 0 l 208 0 l 208 336 l 282 336 l 282 167 l 343 167 l 343 336 l 406 336 l 561 61 b 649 0 588 14 614 0 l 728 0 l 728 69 l 646 69 l 514 303 b 438 368 486 351 471 363 l 438 374 b 504 433 464 381 479 392 l 633 642 l 715 642 l 715 711 l 650 711 b 560 653 611 711 590 701 l 406 404 l 343 404 l 343 575 l 282 575 l 282 404 l 208 404 l 208 711 l 129 711 z "},"ҡ":{"ha":850,"x_min":0,"x_max":0,"o":"m 231 0 l 310 0 l 310 336 l 463 336 l 625 61 b 714 0 653 14 679 0 l 793 0 l 793 69 l 711 69 l 575 300 b 494 368 546 350 526 363 l 494 374 b 563 433 524 382 536 393 l 699 642 l 781 642 l 781 711 l 715 711 b 625 653 676 711 656 700 l 463 404 l 310 404 l 310 711 l 36 711 l 36 642 l 231 642 z "},"љ":{"ha":1097,"x_min":0,"x_max":0,"o":"m 8 0 l 58 0 b 160 36 101 0 132 10 b 267 503 217 93 267 229 l 267 642 l 528 642 l 528 0 l 806 0 b 1033 218 950 0 1033 83 b 804 438 1033 353 949 438 l 607 438 l 607 711 l 190 711 l 190 506 b 97 69 190 254 150 135 l 8 69 z m 607 69 l 607 368 l 796 368 b 949 244 896 368 949 322 l 949 194 b 796 69 949 117 896 69 z "},"ң":{"ha":842,"x_min":0,"x_max":0,"o":"m 721 -194 l 794 -194 l 794 69 l 682 69 l 682 711 l 603 711 l 603 404 l 208 404 l 208 711 l 129 711 l 129 0 l 208 0 l 208 335 l 603 335 l 603 0 l 721 0 z "},"њ":{"ha":1142,"x_min":0,"x_max":0,"o":"m 129 0 l 208 0 l 208 325 l 572 325 l 572 0 l 850 0 b 1078 215 994 0 1078 81 b 850 432 1078 350 993 432 l 651 432 l 651 711 l 572 711 l 572 394 l 208 394 l 208 711 l 129 711 z m 651 69 l 651 363 l 840 363 b 993 242 940 363 993 319 l 993 192 b 840 69 993 114 940 69 z "},"ҥ":{"ha":1054,"x_min":0,"x_max":0,"o":"m 129 0 l 208 0 l 208 335 l 572 335 l 572 0 l 651 0 l 651 642 l 1010 642 l 1010 711 l 572 711 l 572 404 l 208 404 l 208 711 l 129 711 z "},"ӧ":{"ha":764,"x_min":0,"x_max":0,"o":"m 254 871 b 308 921 292 871 308 892 l 308 935 b 254 985 308 964 292 985 b 200 935 215 985 200 964 l 200 921 b 254 871 200 892 215 871 z m 510 871 b 564 921 549 871 564 892 l 564 935 b 510 985 564 964 549 985 b 456 935 472 985 456 964 l 456 921 b 510 871 456 892 472 871 z m 382 -17 b 692 356 569 -17 692 122 b 382 728 692 589 569 728 b 72 356 194 728 72 589 b 382 -17 72 122 194 -17 z m 382 54 b 157 311 244 54 157 146 l 157 400 b 382 657 157 567 244 657 b 607 400 519 657 607 565 l 607 311 b 382 54 607 144 519 54 z "},"ѳ":{"ha":767,"x_min":0,"x_max":0,"o":"m 383 -17 b 694 356 572 -17 694 122 b 383 728 694 589 572 728 b 72 356 194 728 72 589 b 383 -17 72 122 194 -17 z m 383 54 b 158 311 246 54 158 146 l 158 331 l 610 331 l 610 311 b 383 54 610 146 521 54 z m 158 400 b 383 657 158 567 246 657 b 610 400 521 657 610 567 l 610 393 l 158 393 z "},"ө":{"ha":767,"x_min":0,"x_max":0,"o":"m 383 -17 b 694 356 572 -17 694 122 b 383 728 694 589 572 728 b 72 356 194 728 72 589 b 383 -17 72 122 194 -17 z m 383 54 b 158 311 246 54 158 146 l 158 331 l 610 331 l 610 311 b 383 54 610 146 521 54 z m 158 400 b 383 657 158 567 246 657 b 610 400 521 657 610 567 l 610 393 l 158 393 z "},"ҫ":{"ha":690,"x_min":0,"x_max":0,"o":"m 346 -194 l 419 -194 l 419 -15 b 642 139 528 -3 601 54 l 583 178 b 379 54 543 99 476 54 b 157 306 235 54 157 156 l 157 406 b 379 657 157 556 235 657 b 565 538 472 657 532 614 l 632 571 b 379 728 590 664 510 728 b 72 356 185 728 72 590 b 346 -15 72 135 172 0 z "},"ӯ":{"ha":665,"x_min":0,"x_max":0,"o":"m 144 896 l 522 896 l 522 964 l 144 964 z m 338 85 l 332 85 l 114 711 l 31 711 l 294 -21 l 226 -208 l 107 -208 l 107 -278 l 188 -278 b 306 -200 260 -278 283 -260 l 635 711 l 554 711 z "},"ӱ":{"ha":665,"x_min":0,"x_max":0,"o":"m 206 871 b 260 921 243 871 260 892 l 260 935 b 206 985 260 964 243 985 b 151 935 167 985 151 964 l 151 921 b 206 871 151 892 167 871 z m 461 871 b 515 921 500 871 515 892 l 515 935 b 461 985 515 964 500 985 b 407 935 424 985 407 964 l 407 921 b 461 871 407 892 424 871 z m 338 85 l 332 85 l 114 711 l 31 711 l 294 -21 l 226 -208 l 107 -208 l 107 -278 l 188 -278 b 306 -200 260 -278 283 -260 l 635 711 l 554 711 z "},"ӳ":{"ha":665,"x_min":0,"x_max":0,"o":"m 381 1032 l 311 1065 l 179 839 l 228 814 z m 603 1032 l 533 1065 l 401 839 l 450 814 z m 338 85 l 332 85 l 114 711 l 31 711 l 294 -21 l 226 -208 l 107 -208 l 107 -278 l 188 -278 b 306 -200 260 -278 283 -260 l 635 711 l 554 711 z "},"ў":{"ha":665,"x_min":0,"x_max":0,"o":"m 333 833 b 514 949 429 833 481 883 l 538 994 l 468 1025 l 419 919 b 333 893 396 901 364 893 b 247 919 303 893 271 901 l 199 1025 l 129 994 l 153 949 b 333 833 186 883 238 833 z m 338 85 l 332 85 l 114 711 l 31 711 l 294 -21 l 226 -208 l 107 -208 l 107 -278 l 188 -278 b 306 -200 260 -278 283 -260 l 635 711 l 554 711 z "},"ү":{"ha":660,"x_min":0,"x_max":0,"o":"m 290 -278 l 369 -278 l 369 0 l 632 711 l 556 711 l 396 281 l 332 93 l 326 93 l 265 281 l 107 711 l 28 711 l 290 0 z "},"ұ":{"ha":660,"x_min":0,"x_max":0,"o":"m 290 -278 l 369 -278 l 369 -62 l 544 -62 l 544 0 l 369 0 l 632 711 l 556 711 l 396 281 l 332 93 l 326 93 l 265 281 l 107 711 l 28 711 l 290 0 l 114 0 l 114 -62 l 290 -62 z "},"ҳ":{"ha":715,"x_min":0,"x_max":0,"o":"m 635 -194 l 708 -194 l 708 69 l 599 69 l 389 364 l 642 711 l 553 711 l 346 421 l 342 421 l 139 711 l 46 711 l 300 358 l 36 0 l 125 0 l 343 300 l 346 300 l 556 0 l 635 0 z "},"ӵ":{"ha":739,"x_min":0,"x_max":0,"o":"m 214 871 b 268 921 251 871 268 892 l 268 935 b 214 985 268 964 251 985 b 160 935 175 985 160 964 l 160 921 b 214 871 160 892 175 871 z m 469 871 b 524 921 508 871 524 892 l 524 935 b 469 985 524 964 508 985 b 415 935 432 985 415 964 l 415 921 b 469 871 415 892 432 871 z m 531 0 l 610 0 l 610 711 l 531 711 l 531 450 b 331 325 531 371 449 325 b 154 483 215 325 154 374 l 154 711 l 75 711 l 75 476 b 310 254 75 325 163 254 b 524 351 424 254 486 297 l 531 351 z "}}}
